{"glyphs":{"0":{"ha":664,"x_min":67,"x_max":644,"o":"m 267 -14 q 121 56 175 -14 q 67 265 67 125 q 76 413 67 332 q 106 576 86 493 q 156 736 125 660 q 229 874 188 813 q 325 971 271 935 q 446 1007 379 1007 q 533 989 496 1007 q 594 938 569 971 q 632 856 619 904 q 644 746 644 807 q 634 582 644 668 q 603 411 624 496 q 550 250 582 326 q 476 114 518 174 q 383 20 435 54 q 267 -14 331 -14 m 269 35 q 366 68 322 35 q 445 158 410 101 q 508 288 481 215 q 553 440 535 360 q 581 598 572 519 q 590 744 590 676 q 555 903 590 849 q 443 958 519 958 q 344 924 389 958 q 263 833 299 890 q 199 704 226 776 q 155 554 172 632 q 128 401 138 476 q 119 265 119 326 q 160 90 119 146 q 269 35 200 35 z "},"1":{"ha":664,"x_min":199,"x_max":515,"o":"m 415 771 q 428 831 422 804 q 441 883 435 858 q 453 931 447 908 q 422 904 438 917 q 382 875 406 892 l 225 765 l 199 804 l 465 992 l 515 992 l 306 0 l 251 0 l 415 771 z "},"2":{"ha":664,"x_min":-10,"x_max":631,"o":"m -10 0 l -1 46 l 310 358 q 410 463 363 411 q 494 569 457 515 q 554 680 532 622 q 576 803 576 738 q 534 917 576 876 q 419 957 492 957 q 352 948 385 957 q 287 922 319 939 q 222 882 254 906 l 196 922 q 307 984 249 963 q 425 1006 365 1006 q 533 981 488 1006 q 605 911 579 956 q 631 807 631 867 q 594 640 631 718 q 494 486 557 561 q 350 332 431 411 l 68 53 l 68 50 l 506 50 l 497 0 l -10 0 z "},"3":{"ha":664,"x_min":8,"x_max":643,"o":"m 228 -14 q 103 0 158 -14 q 8 35 47 14 l 8 90 q 104 50 47 67 q 228 33 161 33 q 347 55 296 33 q 433 113 399 76 q 486 196 468 149 q 504 296 504 243 q 478 407 504 364 q 406 470 453 450 q 293 490 358 490 l 213 490 l 222 539 l 304 539 q 412 557 361 539 q 503 610 463 575 q 566 692 543 644 q 589 801 589 740 q 547 915 589 872 q 431 957 504 957 q 310 935 365 957 q 201 875 254 913 l 175 917 q 292 981 228 956 q 435 1006 357 1006 q 546 980 499 1006 q 618 909 593 954 q 643 803 643 864 q 612 667 643 728 q 526 567 581 607 q 407 515 472 528 l 406 513 q 518 443 476 497 q 560 299 560 389 q 538 179 560 236 q 474 79 517 122 q 370 11 432 36 q 228 -14 308 -14 z "},"4":{"ha":664,"x_min":1,"x_max":632,"o":"m 368 0 l 421 249 l 1 249 l 10 290 l 567 999 l 632 999 l 483 299 l 628 299 l 617 249 l 474 249 l 421 0 l 368 0 m 74 299 l 432 299 l 524 732 q 542 812 535 776 q 558 878 550 847 q 572 940 565 908 l 569 940 q 540 897 554 917 q 511 858 526 878 q 476 814 496 838 l 74 299 z "},"5":{"ha":664,"x_min":21,"x_max":656,"o":"m 219 -14 q 142 -7 179 -14 q 74 10 104 0 q 21 35 43 21 l 21 92 q 109 51 56 68 q 222 35 163 35 q 344 57 289 35 q 438 120 399 79 q 497 218 476 161 q 518 344 518 275 q 468 494 518 440 q 322 547 418 547 q 239 540 275 547 q 163 519 203 532 l 136 547 l 265 992 l 656 992 l 644 942 l 303 942 l 194 574 q 253 588 219 582 q 333 594 288 594 q 460 564 407 594 q 544 479 514 533 q 574 350 574 425 q 549 204 574 271 q 478 89 524 138 q 367 13 432 40 q 219 -14 301 -14 z "},"6":{"ha":664,"x_min":71,"x_max":669,"o":"m 290 -14 q 167 21 215 -14 q 94 118 118 56 q 71 263 71 181 q 84 419 71 338 q 122 582 97 501 q 183 733 147 663 q 263 857 219 804 q 344 936 299 903 q 442 988 389 969 q 553 1007 494 1007 q 617 1002 588 1007 q 669 990 647 997 l 656 940 q 609 953 636 949 q 550 958 582 958 q 384 910 461 958 q 246 755 307 861 q 144 472 185 649 l 149 472 q 208 541 172 510 q 290 592 243 572 q 394 611 336 611 q 540 550 486 611 q 594 386 594 489 q 573 238 594 310 q 510 110 551 167 q 414 19 469 53 q 290 -14 358 -14 m 292 35 q 398 67 351 35 q 476 151 444 99 q 525 264 508 203 q 542 382 542 325 q 499 517 542 471 q 383 564 457 564 q 269 536 321 564 q 183 465 217 508 q 138 376 150 422 q 131 342 133 361 q 126 301 128 324 q 124 254 124 279 q 133 170 124 210 q 160 100 142 131 q 212 52 179 69 q 292 35 244 35 z "},"7":{"ha":664,"x_min":113,"x_max":693,"o":"m 113 0 l 626 943 l 157 943 l 167 992 l 693 992 l 688 951 l 172 0 l 113 0 z "},"8":{"ha":664,"x_min":35,"x_max":654,"o":"m 276 -14 q 150 15 204 -14 q 65 94 96 43 q 35 211 35 146 q 71 354 35 296 q 170 453 107 413 q 314 525 233 494 q 249 588 278 554 q 202 662 219 621 q 185 756 185 703 q 217 887 185 831 q 308 974 250 943 q 442 1006 365 1006 q 554 980 507 1006 q 628 910 601 954 q 654 811 654 865 q 622 685 654 739 q 535 590 590 631 q 407 518 479 549 q 490 450 454 486 q 548 368 526 414 q 569 258 569 322 q 532 117 569 178 q 428 21 494 56 q 276 -14 363 -14 m 279 35 q 401 61 347 35 q 485 138 454 88 q 517 257 517 189 q 496 356 517 315 q 440 431 475 397 q 356 496 404 464 q 222 432 283 467 q 125 346 161 397 q 89 214 89 294 q 142 83 89 132 q 279 35 196 35 m 367 546 q 490 612 438 575 q 572 697 543 649 q 600 807 600 744 q 554 918 600 878 q 439 958 508 958 q 335 935 382 958 q 263 867 289 911 q 236 756 236 822 q 273 636 236 685 q 367 546 310 588 z "},"9":{"ha":664,"x_min":39,"x_max":636,"o":"m 176 -14 q 101 -8 136 -14 q 39 6 65 -3 l 39 58 q 101 42 64 50 q 178 35 138 35 q 295 62 239 35 q 401 147 351 89 q 491 295 450 204 q 561 514 532 386 l 558 514 q 501 449 536 479 q 419 399 465 418 q 317 381 374 381 q 207 408 253 381 q 137 487 161 436 q 113 604 113 538 q 135 752 113 681 q 197 881 157 824 q 294 972 238 939 q 419 1006 350 1006 q 540 972 492 1006 q 613 876 589 938 q 636 731 636 815 q 622 572 636 656 q 583 406 608 488 q 522 255 557 325 q 444 133 486 185 q 389 73 419 100 q 325 26 358 46 q 254 -3 292 7 q 176 -14 217 -14 m 324 428 q 436 454 386 428 q 520 523 486 481 q 567 613 554 565 q 580 667 576 638 q 583 735 583 696 q 567 849 583 799 q 514 928 550 899 q 418 957 478 957 q 310 926 357 957 q 232 842 264 894 q 183 729 200 790 q 167 608 167 668 q 209 476 167 524 q 324 428 251 428 z "},"\u0000":{"ha":0,"x_min":0,"x_max":0,"o":""},"\r":{"ha":314,"x_min":0,"x_max":0,"o":""}," ":{"ha":314,"x_min":0,"x_max":0,"o":""},"!":{"ha":300,"x_min":33,"x_max":313,"o":"m 97 246 l 253 992 l 313 992 l 143 246 l 97 246 m 71 -10 q 44 1 54 -10 q 33 31 33 11 q 47 76 33 54 q 86 99 60 99 q 113 88 104 99 q 122 60 122 76 q 109 13 122 36 q 71 -10 96 -10 z "},"\"":{"ha":426,"x_min":146,"x_max":460,"o":"m 335 633 l 401 992 l 460 992 l 372 633 l 335 633 m 146 633 l 213 992 l 269 992 l 183 633 l 146 633 z "},"#":{"ha":738,"x_min":31,"x_max":756,"o":"m 93 0 l 186 314 l 31 314 l 35 360 l 199 360 l 283 644 l 121 644 l 125 689 l 297 689 l 386 992 l 433 992 l 344 689 l 553 689 l 643 992 l 690 992 l 600 689 l 756 689 l 751 644 l 588 644 l 504 360 l 667 360 l 663 314 l 492 314 l 397 0 l 349 0 l 444 314 l 233 314 l 140 0 l 93 0 m 246 360 l 457 360 l 539 644 l 332 644 l 246 360 z "},"$":{"ha":663,"x_min":38,"x_max":643,"o":"m 238 64 q 122 78 174 65 q 38 104 71 90 l 39 157 q 130 126 76 139 q 249 111 183 113 l 328 486 q 241 542 279 513 q 181 610 203 571 q 158 703 158 649 q 194 830 158 779 q 290 908 229 881 q 424 938 350 935 l 447 1054 l 490 1054 l 465 938 q 563 922 518 935 q 643 892 608 910 l 621 846 q 543 876 583 865 q 456 890 503 888 l 376 517 q 467 460 428 489 q 527 396 506 432 q 549 307 549 360 q 513 180 549 232 q 417 99 478 128 q 281 64 357 69 l 249 -81 l 206 -81 l 238 64 m 290 113 q 397 140 350 117 q 471 205 443 164 q 499 303 499 246 q 482 369 499 342 q 436 418 465 396 q 365 464 407 440 l 290 113 m 414 890 q 308 865 354 888 q 237 803 263 843 q 211 707 211 764 q 228 635 211 664 q 273 583 244 606 q 339 539 301 561 l 414 890 z "},"%":{"ha":951,"x_min":99,"x_max":886,"o":"m 144 0 l 790 992 l 842 992 l 197 0 l 144 0 m 224 383 q 132 425 165 383 q 99 556 99 467 q 107 663 99 604 q 133 783 115 722 q 180 894 151 843 q 248 975 208 944 q 339 1006 288 1006 q 432 965 400 1006 q 464 840 464 924 q 456 737 464 796 q 430 616 447 678 q 384 501 413 554 q 316 416 356 449 q 224 383 276 383 m 228 429 q 299 459 268 429 q 351 537 329 489 q 388 640 374 585 q 408 748 401 696 q 415 836 415 800 q 395 931 415 903 q 336 960 375 960 q 267 932 297 960 q 214 858 236 904 q 177 758 192 813 q 155 651 163 704 q 147 560 147 599 q 169 460 147 490 q 228 429 190 429 m 644 -17 q 553 25 586 -17 q 519 157 519 67 q 528 264 519 204 q 555 383 536 324 q 601 494 574 443 q 669 575 629 544 q 761 606 708 606 q 854 565 822 606 q 886 440 886 525 q 877 338 886 397 q 851 216 868 278 q 805 102 833 154 q 737 17 776 50 q 644 -17 697 -17 m 649 29 q 719 60 689 29 q 772 138 750 90 q 808 241 794 186 q 829 349 822 296 q 836 438 836 401 q 816 532 836 503 q 757 561 796 561 q 688 533 718 561 q 635 458 657 504 q 598 359 613 413 q 576 253 583 306 q 568 160 568 200 q 590 60 568 90 q 649 29 611 29 z "},"&":{"ha":774,"x_min":33,"x_max":729,"o":"m 242 -14 q 92 40 150 -14 q 33 190 33 93 q 67 338 33 275 q 160 450 100 400 q 299 544 219 500 q 251 650 268 599 q 233 754 233 701 q 260 885 233 828 q 335 974 286 942 q 451 1007 385 1007 q 535 986 499 1007 q 591 930 571 965 q 611 846 611 894 q 579 716 611 771 q 492 617 547 661 q 367 532 438 574 l 543 213 q 618 319 583 258 q 678 447 653 381 l 729 447 q 686 346 711 394 q 631 252 661 297 q 568 167 601 207 l 661 0 l 601 0 l 531 129 q 407 28 474 69 q 242 -14 340 -14 m 249 35 q 351 53 307 35 q 433 101 396 71 q 508 171 471 132 l 321 507 q 199 422 251 465 q 116 323 146 378 q 86 196 86 268 q 108 107 86 143 q 167 53 131 71 q 249 35 204 35 m 344 571 q 419 619 382 593 q 488 678 457 646 q 539 751 519 711 q 558 843 558 792 q 526 928 558 896 q 446 960 494 960 q 363 934 400 960 q 306 863 326 908 q 286 757 286 817 q 301 663 286 707 q 344 571 315 618 z "},"'":{"ha":238,"x_min":146,"x_max":269,"o":"m 146 633 l 213 992 l 269 992 l 183 633 l 146 633 z "},"(":{"ha":346,"x_min":42,"x_max":438,"o":"m 131 -219 q 83 -104 103 -167 q 53 28 64 -42 q 42 171 42 99 q 66 408 42 294 q 135 625 90 522 q 242 819 179 728 q 382 990 304 911 l 438 990 q 292 809 356 904 q 185 611 229 714 q 117 398 140 508 q 94 171 94 288 q 104 31 94 100 q 133 -101 114 -39 q 179 -219 151 -164 l 131 -219 z "},")":{"ha":346,"x_min":-93,"x_max":301,"o":"m -93 -219 q 51 -38 -12 -133 q 159 160 115 57 q 226 373 203 263 q 249 600 249 483 q 240 741 249 672 q 211 873 231 810 q 164 990 192 936 l 213 990 q 260 875 240 938 q 291 743 281 813 q 301 600 301 674 q 277 363 301 476 q 208 146 253 249 q 101 -49 164 43 q -39 -219 39 -140 l -93 -219 z "},"*":{"ha":636,"x_min":167,"x_max":664,"o":"m 494 533 l 401 761 l 226 586 l 192 622 l 379 783 l 167 889 l 188 935 l 394 811 l 433 1053 l 483 1043 l 425 804 l 664 840 l 664 790 l 431 774 l 542 554 l 494 533 z "},"+":{"ha":708,"x_min":81,"x_max":664,"o":"m 396 513 l 664 513 l 664 467 l 396 467 l 396 168 l 350 168 l 350 467 l 81 467 l 81 513 l 350 513 l 350 813 l 396 813 l 396 513 z "},",":{"ha":258,"x_min":-60,"x_max":136,"o":"m -60 -179 q -6 -65 -31 -122 q 41 47 19 -8 q 78 150 63 101 l 132 150 l 136 135 q 93 31 118 86 q 40 -78 68 -25 q -18 -179 11 -132 l -60 -179 z "},"-":{"ha":408,"x_min":43,"x_max":363,"o":"m 43 351 l 51 401 l 363 401 l 354 351 l 43 351 z "},".":{"ha":276,"x_min":33,"x_max":122,"o":"m 71 -10 q 44 1 54 -10 q 33 29 33 11 q 47 76 33 54 q 88 99 60 99 q 113 88 104 99 q 122 60 122 76 q 109 13 122 36 q 71 -10 96 -10 z "},"/":{"ha":431,"x_min":-61,"x_max":542,"o":"m -61 0 l 486 992 l 542 992 l -7 0 l -61 0 z "},":":{"ha":276,"x_min":26,"x_max":251,"o":"m 199 633 q 172 644 182 633 q 163 672 163 654 q 168 705 163 689 q 185 731 174 721 q 215 742 197 742 q 242 731 233 742 q 251 703 251 719 q 238 656 251 679 q 199 633 225 633 m 64 -10 q 37 1 47 -10 q 26 29 26 11 q 40 76 26 54 q 81 99 53 99 q 106 88 97 99 q 115 60 115 76 q 102 13 115 36 q 64 -10 89 -10 z "},";":{"ha":278,"x_min":-64,"x_max":253,"o":"m -64 -179 q -9 -65 -35 -121 q 38 46 17 -8 q 74 150 58 100 l 128 150 l 132 135 q 89 31 114 86 q 35 -78 64 -25 q -22 -179 7 -132 l -64 -179 m 201 633 q 174 644 185 633 q 164 672 164 654 q 170 705 164 689 q 188 731 176 721 q 217 742 200 742 q 244 731 235 742 q 253 703 253 719 q 240 656 253 679 q 201 633 226 633 z "},"<":{"ha":708,"x_min":82,"x_max":663,"o":"m 663 192 l 82 483 l 82 519 l 663 806 l 663 754 l 144 501 l 663 243 l 663 192 z "},"=":{"ha":708,"x_min":82,"x_max":663,"o":"m 82 610 l 82 657 l 663 657 l 663 610 l 82 610 m 82 322 l 82 369 l 663 369 l 663 322 l 82 322 z "},">":{"ha":708,"x_min":82,"x_max":664,"o":"m 82 243 l 601 501 l 82 754 l 82 806 l 664 519 l 664 483 l 82 192 l 82 243 z "},"?":{"ha":488,"x_min":78,"x_max":525,"o":"m 132 246 q 165 369 144 321 q 219 455 186 417 q 300 538 253 493 q 385 619 347 582 q 448 702 424 657 q 472 810 472 747 q 432 917 472 878 q 325 957 392 957 q 245 945 285 957 q 165 913 206 933 l 146 956 q 240 994 194 982 q 329 1006 285 1006 q 473 953 421 1006 q 525 814 525 901 q 501 697 525 747 q 434 602 476 646 q 338 510 392 558 q 260 434 292 469 q 209 356 229 399 q 178 246 189 313 l 132 246 m 114 -10 q 88 1 97 -10 q 78 29 78 11 q 91 76 78 54 q 131 99 104 99 q 158 88 149 99 q 167 60 167 76 q 153 13 167 36 q 114 -10 140 -10 z "},"@":{"ha":1003,"x_min":61,"x_max":972,"o":"m 425 -125 q 280 -99 346 -125 q 165 -21 214 -72 q 88 107 115 31 q 61 282 61 183 q 85 485 61 383 q 156 676 108 586 q 272 838 203 767 q 433 948 342 908 q 636 988 525 988 q 819 943 744 988 q 933 816 893 899 q 972 619 972 733 q 960 486 972 553 q 924 359 947 419 q 868 252 900 299 q 796 179 836 206 q 710 153 756 153 q 629 187 653 153 q 606 285 606 221 l 603 283 q 528 188 574 224 q 424 151 483 151 q 328 192 365 151 q 292 313 292 233 q 306 428 292 371 q 349 535 321 485 q 415 626 376 586 q 499 688 453 665 q 597 710 546 710 q 675 702 639 710 q 740 682 711 694 l 679 444 q 656 349 664 388 q 647 286 647 311 q 663 221 647 244 q 713 197 678 197 q 778 222 747 197 q 835 288 808 246 q 882 383 863 329 q 912 497 901 438 q 922 617 922 557 q 890 792 922 719 q 792 904 857 865 q 632 943 728 943 q 450 906 532 943 q 305 805 368 869 q 199 656 242 740 q 133 477 156 572 q 111 285 111 382 q 151 85 111 167 q 264 -37 192 4 q 428 -79 336 -79 q 542 -68 485 -79 q 650 -36 600 -57 l 650 -82 q 544 -113 600 -101 q 425 -125 489 -125 m 432 196 q 547 260 497 196 q 631 447 597 325 l 683 650 q 643 661 665 657 q 592 665 621 665 q 494 635 539 665 q 415 555 449 606 q 361 442 381 504 q 342 317 342 381 q 366 226 342 256 q 432 196 390 196 z "},"A":{"ha":658,"x_min":-79,"x_max":581,"o":"m -79 0 l 433 994 l 490 994 l 581 0 l 528 0 l 494 368 l 168 368 l -21 0 l -79 0 m 192 418 l 490 418 l 458 800 q 453 865 456 831 q 450 929 451 900 l 447 929 q 418 867 435 900 q 385 799 401 833 l 192 418 z "},"B":{"ha":722,"x_min":44,"x_max":710,"o":"m 44 0 l 253 992 l 465 992 q 603 968 549 992 q 683 901 657 944 q 710 794 710 857 q 685 669 710 726 q 610 573 660 611 q 490 521 561 535 l 490 517 q 598 451 560 501 q 636 319 636 400 q 592 147 636 218 q 467 38 547 75 q 278 0 386 0 l 44 0 m 286 49 q 442 81 376 49 q 545 174 508 114 q 582 318 582 235 q 524 455 582 413 q 367 497 467 497 l 203 497 l 107 49 l 286 49 m 382 544 q 529 575 468 544 q 623 660 590 606 q 656 792 656 715 q 606 905 656 867 q 454 943 557 943 l 297 943 l 213 544 l 382 544 z "},"C":{"ha":699,"x_min":90,"x_max":774,"o":"m 382 -14 q 224 28 289 -14 q 124 152 158 71 q 90 349 90 233 q 112 540 90 444 q 176 718 133 635 q 278 867 218 801 q 415 969 338 932 q 583 1006 492 1006 q 687 994 640 1006 q 774 960 733 982 l 747 913 q 671 947 713 936 q 582 957 629 957 q 434 922 501 957 q 313 828 367 888 q 222 692 260 769 q 165 526 185 614 q 146 351 146 439 q 209 117 146 199 q 388 35 272 35 q 486 44 439 35 q 576 69 533 54 l 576 21 q 487 -4 535 6 q 382 -14 439 -14 z "},"D":{"ha":808,"x_min":43,"x_max":765,"o":"m 43 0 l 253 992 l 428 992 q 676 904 588 992 q 765 633 765 817 q 745 454 765 544 q 683 282 725 364 q 577 137 642 200 q 424 37 513 74 q 222 0 336 0 l 43 0 m 225 49 q 401 83 324 49 q 538 174 479 117 q 634 307 596 232 q 691 465 672 382 q 710 633 710 549 q 633 870 710 797 q 415 943 557 943 l 297 943 l 107 49 l 225 49 z "},"E":{"ha":642,"x_min":43,"x_max":688,"o":"m 43 0 l 253 992 l 688 992 l 676 943 l 297 943 l 213 546 l 569 546 l 560 497 l 203 497 l 107 49 l 488 49 l 476 0 l 43 0 z "},"F":{"ha":589,"x_min":43,"x_max":689,"o":"m 43 0 l 253 992 l 689 992 l 678 943 l 297 943 l 203 499 l 563 499 l 551 450 l 192 450 l 97 0 l 43 0 z "},"G":{"ha":839,"x_min":90,"x_max":829,"o":"m 404 -14 q 172 80 253 -14 q 90 343 90 174 q 115 556 90 456 q 183 738 139 656 q 289 881 228 821 q 425 973 350 940 q 586 1006 500 1006 q 719 990 660 1006 q 829 947 779 974 l 806 900 q 702 942 757 926 q 585 957 647 957 q 410 910 490 957 q 271 778 331 863 q 178 584 211 694 q 144 346 144 474 q 177 173 144 242 q 269 69 210 104 q 410 35 328 35 q 521 46 467 35 q 617 74 575 57 l 696 446 l 481 446 l 492 494 l 760 494 l 663 38 q 539 -1 604 13 q 404 -14 474 -14 z "},"H":{"ha":828,"x_min":43,"x_max":832,"o":"m 43 0 l 254 992 l 307 992 l 213 546 l 685 546 l 779 992 l 832 992 l 622 0 l 569 0 l 674 496 l 203 496 l 97 0 l 43 0 z "},"I":{"ha":347,"x_min":-26,"x_max":421,"o":"m -26 0 l -19 35 l 75 43 l 267 947 l 176 957 l 183 992 l 421 992 l 413 957 l 318 947 l 126 43 l 217 35 l 210 0 l -26 0 z "},"J":{"ha":294,"x_min":-219,"x_max":310,"o":"m -122 -246 q -176 -240 -150 -246 q -219 -228 -203 -235 l -214 -181 q -168 -192 -193 -187 q -121 -196 -143 -196 q -42 -176 -74 -196 q 9 -115 -11 -156 q 42 -17 29 -75 l 256 992 l 310 992 l 94 -26 q 51 -149 79 -100 q -20 -222 22 -199 q -122 -246 -62 -246 z "},"K":{"ha":664,"x_min":43,"x_max":778,"o":"m 43 0 l 253 992 l 307 992 l 193 458 l 278 554 l 710 992 l 778 992 l 361 564 l 579 0 l 519 0 l 319 526 l 181 397 l 97 0 l 43 0 z "},"L":{"ha":588,"x_min":43,"x_max":481,"o":"m 43 0 l 253 992 l 307 992 l 107 50 l 481 50 l 471 0 l 43 0 z "},"M":{"ha":1021,"x_min":43,"x_max":1025,"o":"m 43 0 l 253 992 l 329 992 l 442 83 l 446 83 l 942 992 l 1025 992 l 815 0 l 763 0 l 928 781 q 938 825 933 803 q 949 870 943 847 q 960 917 954 893 l 957 917 l 454 0 l 403 0 l 289 918 l 285 918 q 277 870 281 893 q 269 825 274 847 q 260 778 265 803 l 96 0 l 43 0 z "},"N":{"ha":839,"x_min":43,"x_max":844,"o":"m 43 0 l 253 992 l 307 992 l 603 99 l 606 99 q 620 173 613 135 q 635 247 628 211 q 647 314 642 283 l 792 992 l 844 992 l 635 0 l 581 0 l 285 897 l 282 897 q 273 845 278 871 q 263 792 268 819 q 251 738 257 765 q 240 681 246 710 l 96 0 l 43 0 z "},"O":{"ha":863,"x_min":89,"x_max":819,"o":"m 379 -14 q 213 31 278 -14 q 119 154 149 75 q 89 338 89 233 q 101 489 89 411 q 138 642 113 567 q 199 782 163 717 q 285 898 236 847 q 397 978 335 949 q 535 1007 460 1007 q 743 923 667 1007 q 819 665 819 839 q 810 531 819 604 q 778 381 800 457 q 723 234 757 304 q 640 108 689 164 q 526 19 590 51 q 379 -14 463 -14 m 382 36 q 506 66 451 36 q 603 147 561 96 q 675 263 644 199 q 725 399 706 328 q 754 538 744 469 q 764 665 764 607 q 706 881 764 806 q 531 957 649 957 q 407 928 463 957 q 308 849 351 899 q 235 737 265 800 q 184 604 204 674 q 154 467 164 535 q 144 339 144 399 q 170 176 144 244 q 249 72 196 108 q 382 36 301 36 z "},"P":{"ha":678,"x_min":43,"x_max":685,"o":"m 43 0 l 253 992 l 428 992 q 571 965 514 992 q 656 886 628 938 q 685 760 685 835 q 662 621 685 683 q 593 513 639 558 q 479 442 547 467 q 319 417 411 417 l 185 417 l 97 0 l 43 0 m 324 465 q 497 502 429 465 q 597 605 565 539 q 629 757 629 671 q 577 897 629 851 q 419 943 525 943 l 297 943 l 196 465 l 324 465 z "},"Q":{"ha":863,"x_min":89,"x_max":819,"o":"m 390 -12 q 381 -14 386 -14 q 371 -14 376 -14 q 213 31 275 -12 q 119 153 150 75 q 89 338 89 232 q 101 489 89 411 q 138 642 113 567 q 199 782 163 717 q 285 898 236 847 q 397 978 335 949 q 535 1007 460 1007 q 743 923 667 1007 q 819 665 819 839 q 807 516 819 599 q 768 349 794 433 q 699 190 742 264 q 594 65 656 117 q 449 -6 532 13 l 578 -236 l 513 -236 l 390 -12 m 382 36 q 506 66 451 36 q 603 147 561 96 q 676 263 646 199 q 726 399 707 328 q 754 538 744 469 q 764 665 764 607 q 706 881 764 806 q 531 957 649 957 q 407 928 463 957 q 308 849 351 899 q 235 737 265 800 q 184 604 204 674 q 154 467 164 535 q 144 339 144 399 q 170 176 144 244 q 249 72 196 108 q 382 36 301 36 z "},"R":{"ha":685,"x_min":43,"x_max":685,"o":"m 43 0 l 253 992 l 426 992 q 618 936 551 992 q 685 769 685 881 q 656 619 685 685 q 572 509 628 553 q 433 449 517 465 l 567 0 l 508 0 l 382 439 l 190 439 l 97 0 l 43 0 m 354 486 q 469 506 418 486 q 556 563 519 526 q 610 651 592 600 q 629 765 629 703 q 576 900 629 857 q 415 943 524 943 l 297 943 l 200 486 l 354 486 z "},"S":{"ha":617,"x_min":3,"x_max":642,"o":"m 221 -14 q 94 -1 146 -14 q 3 29 42 13 l 4 86 q 99 50 46 64 q 221 36 153 36 q 313 49 268 36 q 394 89 358 61 q 452 159 431 117 q 474 258 474 201 q 453 349 474 311 q 395 421 433 388 q 301 490 357 454 q 222 555 258 521 q 163 633 185 589 q 140 738 140 676 q 165 858 140 807 q 231 941 189 908 q 324 990 272 974 q 433 1006 376 1006 q 550 992 500 1006 q 642 956 600 978 l 618 907 q 532 943 576 931 q 431 956 488 956 q 347 944 389 956 q 271 906 306 932 q 216 840 236 881 q 196 742 196 799 q 215 652 196 689 q 269 585 235 615 q 346 524 303 556 q 440 453 399 489 q 505 371 481 417 q 529 261 529 325 q 503 139 529 190 q 435 53 478 88 q 336 3 392 19 q 221 -14 281 -14 z "},"T":{"ha":585,"x_min":124,"x_max":703,"o":"m 181 0 l 381 942 l 124 942 l 135 992 l 703 992 l 693 942 l 435 942 l 235 0 l 181 0 z "},"U":{"ha":826,"x_min":92,"x_max":840,"o":"m 344 -14 q 211 13 268 -14 q 123 94 154 40 q 92 224 92 147 q 95 277 92 249 q 106 336 99 306 l 244 992 l 299 992 l 160 336 q 150 278 153 307 q 147 228 147 250 q 201 85 147 133 q 347 36 254 36 q 488 70 429 36 q 585 172 546 104 q 646 340 625 240 l 786 992 l 840 992 l 699 335 q 628 143 675 221 q 512 26 582 65 q 344 -14 442 -14 z "},"V":{"ha":656,"x_min":133,"x_max":765,"o":"m 211 0 l 133 992 l 186 992 l 243 226 q 247 173 246 200 q 250 119 249 146 q 251 69 251 93 l 254 69 q 287 144 268 104 q 329 231 306 183 l 707 992 l 765 992 l 268 0 l 211 0 z "},"W":{"ha":1042,"x_min":150,"x_max":1140,"o":"m 174 0 l 150 992 l 201 992 l 218 254 q 218 164 218 207 q 217 83 218 121 l 221 83 q 255 169 238 126 q 293 258 272 213 l 621 992 l 674 992 l 693 268 q 693 204 693 236 q 693 140 693 172 q 693 78 693 108 l 696 78 q 718 137 707 107 q 743 199 729 167 q 772 268 757 231 l 1083 992 l 1140 992 l 708 0 l 651 0 l 631 764 q 631 811 631 788 q 630 857 631 835 q 631 901 629 879 l 628 901 q 604 841 615 869 q 579 782 593 813 l 231 0 l 174 0 z "},"X":{"ha":599,"x_min":-81,"x_max":701,"o":"m -81 0 l 299 521 l 160 992 l 214 992 l 336 563 l 642 992 l 701 992 l 360 514 l 507 0 l 451 0 l 319 471 l -21 0 l -81 0 z "},"Y":{"ha":585,"x_min":126,"x_max":710,"o":"m 182 0 l 263 379 l 126 992 l 179 992 l 300 443 l 649 992 l 710 992 l 317 382 l 236 0 l 182 0 z "},"Z":{"ha":631,"x_min":-29,"x_max":692,"o":"m -29 0 l -21 42 l 615 942 l 190 942 l 200 992 l 692 992 l 683 950 l 49 50 l 504 50 l 494 0 l -29 0 z "},"[":{"ha":404,"x_min":-18,"x_max":497,"o":"m -18 -219 l 240 992 l 497 992 l 486 944 l 282 944 l 44 -172 l 250 -172 l 239 -219 l -18 -219 z "},"\\":{"ha":443,"x_min":140,"x_max":350,"o":"m 301 0 l 140 992 l 189 992 l 350 0 l 301 0 z "},"]":{"ha":404,"x_min":-94,"x_max":419,"o":"m -94 -219 l -85 -172 l 119 -172 l 357 944 l 151 944 l 163 992 l 419 992 l 161 -219 l -94 -219 z "},"^":{"ha":688,"x_min":53,"x_max":646,"o":"m 53 428 l 404 996 l 446 996 l 646 428 l 594 428 l 419 932 l 110 428 l 53 428 z "},"_":{"ha":468,"x_min":-115,"x_max":358,"o":"m -115 -185 l -107 -137 l 358 -137 l 351 -185 l -115 -185 z "},"`":{"ha":317,"x_min":204,"x_max":363,"o":"m 332 842 q 287 905 313 867 q 239 982 261 943 q 204 1050 217 1021 l 204 1063 l 258 1063 q 290 990 272 1028 q 327 918 308 953 q 363 857 346 883 l 363 842 l 332 842 z "},"a":{"ha":682,"x_min":58,"x_max":650,"o":"m 238 -14 q 140 15 179 -14 q 79 98 100 44 q 58 226 58 151 q 73 367 58 294 q 115 508 88 440 q 184 631 143 576 q 279 717 225 685 q 401 749 333 749 q 488 726 454 749 q 542 668 522 703 q 568 594 561 633 l 572 594 l 607 735 l 650 735 l 494 0 l 451 0 l 481 160 l 478 160 q 417 78 453 118 q 337 12 382 38 q 238 -14 292 -14 m 249 33 q 360 76 307 33 q 455 191 414 119 q 515 349 496 263 q 534 444 528 400 q 540 526 540 489 q 503 654 540 608 q 403 700 467 700 q 301 672 347 700 q 220 594 256 643 q 161 483 185 544 q 125 356 138 422 q 113 228 113 289 q 148 83 113 133 q 249 33 183 33 z "},"b":{"ha":696,"x_min":29,"x_max":636,"o":"m 292 -14 q 197 8 235 -14 q 139 66 160 31 q 111 142 118 101 l 107 142 l 72 0 l 29 0 l 253 1056 l 306 1056 l 238 735 q 225 681 232 710 q 212 624 218 651 q 200 575 206 597 l 203 575 q 263 659 226 619 q 346 724 299 699 q 450 749 393 749 q 549 720 507 749 q 613 638 590 692 q 636 508 636 585 q 622 371 636 443 q 581 231 608 299 q 513 107 554 163 q 417 19 472 51 q 292 -14 361 -14 m 290 33 q 394 63 349 33 q 476 143 440 93 q 535 255 511 193 q 570 383 558 317 q 582 507 582 449 q 544 652 582 603 q 438 701 506 701 q 353 678 393 701 q 279 616 313 656 q 219 527 246 576 q 175 423 193 478 q 148 315 157 368 q 139 215 139 261 q 180 80 139 126 q 290 33 221 33 z "},"c":{"ha":540,"x_min":63,"x_max":560,"o":"m 289 -14 q 165 17 217 -14 q 88 106 114 49 q 63 246 63 164 q 77 390 63 318 q 120 527 92 463 q 192 642 149 592 q 291 720 235 692 q 417 749 347 749 q 494 742 457 749 q 560 721 532 735 l 543 674 q 483 694 517 688 q 417 701 449 701 q 291 663 347 701 q 196 559 235 624 q 136 414 157 494 q 115 249 115 333 q 135 135 115 183 q 196 60 156 86 q 294 33 236 33 q 370 43 335 33 q 440 69 406 53 l 440 21 q 375 -3 413 7 q 289 -14 338 -14 z "},"d":{"ha":699,"x_min":58,"x_max":731,"o":"m 240 -14 q 140 15 181 -14 q 79 98 100 44 q 58 226 58 151 q 72 367 58 294 q 114 508 86 440 q 183 631 142 576 q 280 717 225 685 q 404 749 335 749 q 497 727 460 749 q 554 671 533 706 q 582 599 575 636 l 586 599 q 596 656 590 626 q 607 714 601 685 q 618 771 613 743 l 679 1056 l 731 1056 l 508 0 l 465 0 l 493 163 l 490 163 q 426 76 464 117 q 343 11 389 36 q 240 -14 297 -14 m 250 33 q 332 56 293 33 q 405 118 371 79 q 467 206 439 157 q 514 311 494 256 q 544 422 533 367 q 556 526 556 478 q 515 656 556 611 q 406 700 475 700 q 301 672 349 700 q 219 594 254 643 q 160 483 185 544 q 124 355 136 421 q 113 226 113 289 q 148 83 113 132 q 250 33 183 33 z "},"e":{"ha":606,"x_min":65,"x_max":568,"o":"m 289 -14 q 176 13 226 -14 q 95 98 125 40 q 65 244 65 156 q 92 438 65 347 q 165 599 118 529 q 275 709 213 669 q 410 749 338 749 q 525 709 482 749 q 568 599 568 669 q 540 492 568 539 q 458 413 511 446 q 328 364 404 381 q 157 347 251 347 l 126 347 q 122 301 124 326 q 119 247 119 275 q 167 88 119 142 q 300 33 214 33 q 390 47 349 33 q 465 78 431 61 l 465 28 q 388 -1 433 11 q 289 -14 343 -14 m 172 394 q 356 419 279 394 q 474 489 433 443 q 515 596 515 535 q 488 672 515 643 q 404 701 460 701 q 294 663 349 701 q 197 556 239 625 q 135 394 154 488 l 172 394 z "},"f":{"ha":340,"x_min":-178,"x_max":526,"o":"m -104 -333 q -144 -330 -122 -333 q -178 -321 -165 -326 l -178 -272 q -143 -282 -162 -278 q -106 -286 -124 -286 q -28 -247 -56 -286 q 14 -139 -1 -208 l 189 689 l 76 689 l 83 722 l 199 736 l 224 851 q 253 944 236 904 q 294 1010 269 983 q 352 1049 318 1036 q 431 1063 386 1063 q 484 1057 458 1063 q 526 1044 510 1051 l 510 999 q 472 1011 493 1007 q 429 1015 451 1015 q 328 974 363 1015 q 275 844 293 932 l 251 735 l 392 735 l 382 689 l 242 689 l 64 -144 q 31 -247 51 -204 q -23 -311 10 -289 q -104 -333 -56 -333 z "},"g":{"ha":699,"x_min":13,"x_max":664,"o":"m 193 -333 q 92 -320 139 -333 q 13 -292 46 -307 l 13 -237 q 65 -260 35 -249 q 128 -279 94 -272 q 194 -286 161 -286 q 363 -223 306 -286 q 447 -44 421 -160 l 461 22 q 476 90 467 50 q 494 163 486 129 l 492 163 q 426 76 464 117 q 342 11 389 36 q 240 -14 296 -14 q 140 15 181 -14 q 79 97 100 43 q 58 226 58 151 q 72 367 58 294 q 114 508 86 440 q 183 631 142 576 q 281 717 225 685 q 406 749 336 749 q 498 726 461 749 q 555 669 535 704 q 583 594 575 635 l 586 594 l 621 735 l 664 735 l 497 -49 q 442 -202 479 -139 q 344 -299 404 -265 q 193 -333 283 -333 m 251 33 q 331 56 293 33 q 403 117 369 78 q 465 206 438 157 q 513 311 493 256 q 544 422 533 367 q 556 526 556 478 q 515 656 556 611 q 407 700 475 700 q 302 672 349 700 q 220 594 256 643 q 160 483 185 544 q 124 355 136 421 q 113 226 113 289 q 147 83 113 133 q 251 33 181 33 z "},"h":{"ha":679,"x_min":31,"x_max":611,"o":"m 31 0 l 254 1056 l 307 1056 l 243 761 q 230 700 238 731 q 215 640 222 669 q 200 581 208 610 l 204 581 q 262 660 226 622 q 344 724 297 699 q 450 749 392 749 q 538 731 501 749 q 592 677 574 713 q 611 589 611 642 q 606 531 611 565 q 594 467 601 497 l 496 0 l 443 0 l 543 474 q 554 532 550 504 q 558 583 558 560 q 527 672 558 643 q 439 700 496 700 q 321 660 376 700 q 224 549 265 621 q 164 381 183 476 l 83 0 l 31 0 z "},"i":{"ha":274,"x_min":29,"x_max":301,"o":"m 29 0 l 186 735 l 239 735 l 82 0 l 29 0 m 253 899 q 226 909 236 899 q 217 938 217 919 q 222 967 217 953 q 239 992 228 982 q 267 1001 250 1001 q 292 991 283 1001 q 301 964 301 981 q 288 920 301 942 q 253 899 275 899 z "},"j":{"ha":276,"x_min":-189,"x_max":303,"o":"m -119 -333 q -158 -330 -139 -333 q -189 -322 -178 -326 l -189 -272 q -157 -282 -175 -279 q -122 -285 -139 -285 q -61 -267 -86 -285 q -20 -213 -36 -250 q 7 -118 -4 -176 l 189 735 l 240 735 l 58 -124 q 23 -241 44 -194 q -33 -310 1 -287 q -119 -333 -68 -333 m 256 899 q 229 909 239 899 q 219 938 219 919 q 225 967 219 953 q 241 992 231 982 q 268 1001 251 1001 q 294 991 286 1001 q 303 965 303 981 q 290 920 303 942 q 256 899 278 899 z "},"k":{"ha":554,"x_min":29,"x_max":604,"o":"m 29 0 l 253 1056 l 306 1056 l 196 538 q 170 422 182 474 q 144 317 158 369 l 146 317 l 543 735 l 604 735 l 314 428 l 472 0 l 415 0 l 272 389 l 135 251 l 82 0 l 29 0 z "},"l":{"ha":271,"x_min":29,"x_max":306,"o":"m 29 0 l 254 1056 l 306 1056 l 82 0 l 29 0 z "},"m":{"ha":1031,"x_min":29,"x_max":964,"o":"m 29 0 l 186 735 l 229 735 l 200 583 l 204 583 q 257 662 225 624 q 333 724 289 700 q 431 749 376 749 q 542 705 507 749 q 576 588 576 661 l 579 588 q 633 664 600 626 q 710 725 665 701 q 810 749 754 749 q 922 708 881 749 q 964 590 964 668 q 960 543 964 569 q 951 493 957 517 l 847 0 l 794 0 l 900 496 q 909 543 907 522 q 911 582 911 564 q 881 671 911 642 q 796 700 850 700 q 715 678 753 700 q 644 619 676 657 q 590 531 613 581 q 556 426 567 482 l 464 0 l 413 0 l 518 494 q 526 544 524 519 q 528 583 528 568 q 499 669 528 639 q 417 700 471 700 q 331 675 372 700 q 258 606 290 650 q 201 505 225 563 q 164 382 176 447 l 82 0 l 29 0 z "},"n":{"ha":679,"x_min":29,"x_max":613,"o":"m 29 0 l 185 735 l 229 735 l 201 581 l 204 581 q 260 660 225 622 q 344 724 296 699 q 450 749 392 749 q 538 731 501 749 q 593 678 574 713 q 613 590 613 643 q 607 531 613 565 q 594 467 601 497 l 496 0 l 442 0 l 543 474 q 553 532 549 504 q 558 583 558 560 q 526 672 558 643 q 439 700 494 700 q 321 660 376 700 q 224 547 265 619 q 164 379 183 475 l 83 0 l 29 0 z "},"o":{"ha":685,"x_min":61,"x_max":624,"o":"m 279 -14 q 160 17 208 -14 q 86 105 111 47 q 61 242 61 163 q 76 385 61 313 q 119 524 90 458 q 191 640 149 589 q 288 719 233 690 q 408 749 343 749 q 526 717 478 749 q 599 629 574 686 q 624 494 624 572 q 609 349 624 421 q 567 211 594 276 q 497 95 539 146 q 401 15 456 44 q 279 -14 346 -14 m 283 35 q 383 60 338 35 q 463 132 428 86 q 521 238 497 178 q 557 363 544 297 q 569 497 569 429 q 551 603 569 557 q 497 674 533 649 q 406 700 461 700 q 308 674 353 700 q 227 603 263 649 q 167 497 192 557 q 128 372 142 438 q 115 240 115 307 q 158 89 115 143 q 283 35 200 35 z "},"p":{"ha":696,"x_min":-37,"x_max":636,"o":"m -37 -322 l 186 735 l 229 735 l 200 574 l 203 574 q 265 660 229 619 q 348 724 301 700 q 451 749 394 749 q 550 720 508 749 q 614 638 592 692 q 636 508 636 585 q 622 367 636 440 q 581 226 608 294 q 511 104 553 158 q 415 18 469 50 q 290 -14 360 -14 q 199 8 236 -14 q 140 63 161 29 q 113 136 119 97 l 108 136 q 94 53 103 97 q 78 -28 86 10 l 15 -322 l -37 -322 m 289 33 q 393 63 347 33 q 474 141 439 92 q 534 251 510 190 q 570 379 558 313 q 582 508 582 446 q 544 651 582 601 q 438 701 506 701 q 355 678 394 701 q 282 616 315 656 q 222 526 249 576 q 177 421 196 476 q 149 310 158 365 q 139 208 139 256 q 180 78 139 124 q 289 33 221 33 z "},"q":{"ha":700,"x_min":58,"x_max":664,"o":"m 457 3 q 469 54 463 26 q 482 110 475 82 q 494 163 489 139 l 492 163 q 431 80 468 121 q 344 13 393 39 q 240 -14 296 -14 q 140 15 181 -14 q 79 97 100 43 q 58 226 58 150 q 72 364 58 292 q 113 504 86 436 q 182 628 140 572 q 278 716 224 683 q 403 749 333 749 q 497 726 460 749 q 556 669 535 704 q 583 593 576 633 l 586 593 l 621 735 l 664 735 l 439 -325 l 388 -325 l 457 3 m 251 33 q 333 56 294 33 q 406 117 372 78 q 467 206 440 157 q 515 310 494 256 q 545 418 535 364 q 556 519 556 472 q 515 654 556 608 q 404 700 475 700 q 301 671 347 700 q 219 592 254 642 q 160 479 183 542 q 124 351 136 417 q 113 226 113 286 q 147 83 113 132 q 251 33 182 33 z "},"r":{"ha":454,"x_min":31,"x_max":499,"o":"m 31 0 l 186 735 l 229 735 l 199 575 l 203 575 q 256 656 224 615 q 333 722 289 696 q 429 747 378 747 q 468 744 450 747 q 499 738 486 742 l 488 688 q 460 694 475 692 q 425 697 444 697 q 335 670 378 697 q 258 597 293 643 q 199 492 224 550 q 161 374 175 435 l 82 0 l 31 0 z "},"s":{"ha":518,"x_min":1,"x_max":503,"o":"m 183 -14 q 76 1 122 -14 q 1 29 29 15 l 1 86 q 83 49 35 65 q 183 33 131 33 q 287 53 247 33 q 345 108 326 72 q 364 192 364 143 q 348 258 364 231 q 303 310 332 286 q 236 360 274 333 q 167 414 199 388 q 116 474 135 440 q 97 556 97 508 q 126 660 97 618 q 205 726 154 703 q 319 749 256 749 q 424 735 379 749 q 503 706 469 722 l 481 660 q 410 689 451 676 q 318 701 368 701 q 198 665 244 701 q 151 560 151 629 q 166 499 151 525 q 208 449 181 472 q 271 401 236 426 q 344 344 311 372 q 398 282 378 317 q 418 194 418 247 q 392 85 418 132 q 314 13 365 39 q 183 -14 263 -14 z "},"t":{"ha":374,"x_min":54,"x_max":406,"o":"m 175 -14 q 85 17 117 -14 q 54 107 54 47 q 58 151 54 126 q 67 201 61 175 l 171 689 l 78 689 l 86 725 l 181 738 l 233 914 l 271 914 l 233 735 l 406 735 l 394 689 l 224 689 l 119 203 q 111 153 114 176 q 108 113 108 131 q 126 54 108 75 q 183 33 143 33 q 230 38 210 33 q 269 49 250 42 l 269 3 q 228 -9 251 -4 q 175 -14 204 -14 z "},"u":{"ha":679,"x_min":61,"x_max":643,"o":"m 224 -14 q 137 4 174 -14 q 81 58 100 22 q 61 144 61 93 q 67 203 61 169 q 78 267 72 236 l 178 735 l 231 735 l 129 260 q 119 203 124 231 q 114 151 114 175 q 146 64 114 93 q 235 35 178 35 q 353 75 299 35 q 449 188 408 115 q 510 356 490 260 l 590 735 l 643 735 l 488 0 l 444 0 l 472 154 l 468 154 q 413 75 449 114 q 329 11 376 36 q 224 -14 282 -14 z "},"v":{"ha":515,"x_min":72,"x_max":583,"o":"m 143 0 l 72 735 l 125 735 l 172 231 q 177 174 175 203 q 181 119 179 146 q 182 68 182 93 l 186 68 q 209 120 197 94 q 234 173 221 146 q 261 226 247 200 l 528 735 l 583 735 l 199 0 l 143 0 z "},"w":{"ha":828,"x_min":81,"x_max":879,"o":"m 104 0 l 81 735 l 131 735 l 146 242 q 147 150 147 190 q 146 75 147 110 l 150 75 q 169 122 158 97 q 192 176 179 147 q 222 239 206 206 l 456 735 l 507 735 l 533 242 q 537 154 536 197 q 538 74 538 111 l 540 74 q 560 124 550 99 q 582 179 569 150 q 610 244 594 208 l 825 735 l 879 735 l 553 0 l 499 0 l 471 517 q 469 563 469 540 q 468 610 468 586 q 468 658 468 633 l 465 658 q 447 613 456 635 q 427 568 438 590 q 406 521 417 546 l 160 0 l 104 0 z "},"x":{"ha":556,"x_min":-51,"x_max":588,"o":"m -51 0 l 244 381 l 115 735 l 171 735 l 282 419 l 526 735 l 588 735 l 306 375 l 446 0 l 390 0 l 268 336 l 10 0 l -51 0 z "},"y":{"ha":525,"x_min":-153,"x_max":594,"o":"m -78 -336 q -122 -333 -104 -336 q -153 -322 -140 -329 l -150 -275 q -118 -285 -135 -281 q -78 -289 -101 -289 q 8 -253 -29 -289 q 85 -142 44 -218 l 163 8 l 83 735 l 136 735 l 185 251 q 192 185 189 217 q 198 124 196 153 q 200 74 200 96 l 203 74 q 226 123 213 96 q 254 181 239 150 q 286 243 269 213 l 538 735 l 594 735 l 132 -158 q 72 -257 103 -217 q 5 -317 40 -297 q -78 -336 -31 -336 z "},"z":{"ha":508,"x_min":-29,"x_max":522,"o":"m -29 0 l -22 38 l 449 689 l 138 689 l 147 735 l 522 735 l 515 696 l 43 46 l 389 46 l 379 0 l -29 0 z "},"{":{"ha":451,"x_min":36,"x_max":531,"o":"m 271 -219 q 138 -185 181 -219 q 94 -81 94 -151 q 97 -46 94 -64 q 104 -7 100 -28 l 151 208 q 158 245 156 228 q 161 276 161 263 q 132 344 161 324 q 36 364 103 364 l 47 411 q 168 444 128 411 q 225 560 208 476 l 278 806 q 322 913 292 872 q 402 973 353 954 q 519 992 451 992 l 531 992 l 519 944 q 391 910 436 943 q 328 796 346 876 l 275 550 q 228 440 261 482 q 133 386 194 397 l 133 383 q 193 346 174 372 q 213 276 213 319 q 210 244 213 261 q 203 207 207 228 l 157 -11 q 150 -46 153 -31 q 147 -75 147 -61 q 180 -152 147 -132 q 286 -172 213 -172 l 283 -219 l 271 -219 z "},"|":{"ha":650,"x_min":322,"x_max":371,"o":"m 322 -336 l 322 1057 l 371 1057 l 371 -336 l 322 -336 z "},"}":{"ha":450,"x_min":-75,"x_max":417,"o":"m -68 -172 q 27 -158 -12 -172 q 91 -110 67 -143 q 126 -24 115 -78 l 179 221 q 226 332 193 289 q 321 385 258 375 l 321 388 q 262 425 282 399 q 242 494 242 451 q 244 528 242 511 q 251 564 246 544 l 297 782 q 304 817 301 801 q 307 846 307 833 q 274 923 307 903 q 165 943 240 943 l 172 990 l 183 990 q 283 976 244 990 q 340 931 322 961 q 358 851 358 900 q 356 818 358 836 q 350 779 354 800 l 303 563 q 296 526 299 543 q 293 494 293 508 q 322 428 293 449 q 417 408 351 408 l 407 361 q 287 328 326 361 q 229 211 247 294 l 176 -35 q 131 -142 163 -101 q 51 -202 100 -183 q -67 -221 3 -221 l -75 -221 l -68 -172 z "},"~":{"ha":708,"x_min":82,"x_max":664,"o":"m 368 468 q 301 498 332 486 q 232 510 271 510 q 156 491 194 510 q 82 432 118 472 l 82 490 q 150 538 111 519 q 233 557 189 557 q 315 544 282 557 q 388 513 349 532 q 452 483 424 494 q 517 472 481 472 q 591 490 553 472 q 664 546 629 507 l 664 490 q 600 444 638 463 q 515 425 563 425 q 440 437 472 425 q 368 468 407 449 z "}," ":{"ha":314,"x_min":0,"x_max":0,"o":""},"¡":{"ha":300,"x_min":-11,"x_max":268,"o":"m -11 -253 l 160 492 l 201 492 l 49 -253 l -11 -253 m 215 638 q 188 649 197 638 q 179 678 179 660 q 192 724 179 701 q 232 746 206 746 q 258 736 249 746 q 268 707 268 726 q 255 660 268 683 q 215 638 242 638 z "},"¢":{"ha":664,"x_min":128,"x_max":624,"o":"m 300 131 q 172 212 217 146 q 128 382 128 278 q 142 522 128 451 q 183 656 156 593 q 249 769 210 719 q 341 851 289 819 q 456 888 393 882 l 479 1006 l 525 1006 l 500 888 q 567 879 535 886 q 624 860 599 872 l 607 813 q 547 833 581 826 q 481 840 513 840 q 358 801 413 840 q 263 698 303 763 q 203 551 224 633 q 182 383 182 469 q 227 229 182 285 q 356 174 272 174 q 431 182 394 174 q 503 208 468 190 l 506 161 q 426 134 465 142 q 344 126 386 126 l 314 -14 l 269 -14 l 300 131 z "},"£":{"ha":664,"x_min":-22,"x_max":696,"o":"m -12 44 q 68 81 33 56 q 128 152 103 107 q 167 264 153 197 l 208 463 l 85 463 l 93 510 l 218 510 l 269 753 q 319 892 288 836 q 401 976 351 949 q 524 1004 451 1004 q 623 989 579 1004 q 696 954 667 974 l 671 911 q 607 942 643 928 q 522 957 571 957 q 390 904 438 957 q 321 744 343 851 l 271 510 l 490 510 l 482 463 l 261 463 l 218 263 q 164 117 197 164 q 88 50 131 71 l 536 50 l 526 0 l -22 0 l -12 44 z "},"¤":{"ha":781,"x_min":100,"x_max":718,"o":"m 585 285 q 501 236 547 253 q 408 219 456 219 q 316 236 361 219 q 233 285 271 253 l 129 182 l 101 213 l 203 315 q 155 399 171 353 q 139 492 139 444 q 155 583 139 538 q 203 667 171 629 l 100 771 l 129 800 l 233 697 q 317 747 272 731 q 408 763 363 763 q 501 747 456 763 q 585 697 547 731 l 688 799 l 717 769 l 615 668 q 664 585 647 631 q 681 492 681 539 q 665 399 681 444 q 615 314 649 353 l 718 211 l 689 182 l 585 285 m 407 263 q 524 294 472 263 q 608 378 576 326 q 639 493 639 431 q 608 606 640 554 q 524 690 576 658 q 410 721 472 721 q 295 690 347 721 q 212 606 243 658 q 181 492 181 554 q 211 376 181 428 q 294 293 242 324 q 407 263 346 263 z "},"¥":{"ha":656,"x_min":69,"x_max":732,"o":"m 214 0 l 258 213 l 69 213 l 79 258 l 269 258 l 299 403 l 110 403 l 119 447 l 293 447 l 167 992 l 219 992 l 338 472 l 674 992 l 732 992 l 376 447 l 551 447 l 542 403 l 350 403 l 319 258 l 510 258 l 501 213 l 311 213 l 265 0 l 214 0 z "},"¦":{"ha":650,"x_min":322,"x_max":371,"o":"m 322 538 l 322 1056 l 371 1056 l 371 538 l 322 538 m 322 -333 l 322 185 l 371 185 l 371 -333 l 322 -333 z "},"§":{"ha":589,"x_min":17,"x_max":599,"o":"m 196 26 q 90 39 136 26 q 17 65 44 51 l 17 119 q 99 85 51 100 q 196 71 146 71 q 343 110 289 71 q 397 221 397 150 q 379 280 397 256 q 331 324 361 304 q 261 364 300 343 q 190 408 224 383 q 133 465 156 432 q 111 547 111 499 q 135 635 111 599 q 197 695 158 671 q 278 735 235 719 q 215 791 240 758 q 189 871 189 824 q 220 973 189 932 q 303 1034 251 1014 q 415 1056 356 1054 q 517 1043 468 1056 q 599 1013 565 1031 l 578 971 q 501 999 544 988 q 417 1010 458 1010 q 335 997 375 1010 q 268 953 294 983 q 242 874 242 924 q 277 797 242 825 q 369 738 313 768 q 444 694 410 718 q 501 640 479 671 q 524 560 524 608 q 503 473 524 513 q 450 403 483 433 q 378 351 417 374 q 428 298 408 329 q 449 224 449 267 q 418 118 449 163 q 331 50 388 74 q 196 26 274 26 m 343 376 q 434 451 396 407 q 472 554 472 494 q 455 617 472 592 q 403 663 438 642 q 318 708 369 685 q 242 677 278 696 q 185 628 207 658 q 163 550 163 597 q 183 483 163 511 q 244 431 204 456 q 343 376 285 407 z "},"¨":{"ha":742,"x_min":321,"x_max":619,"o":"m 574 894 q 550 903 558 894 q 542 929 542 913 q 553 971 542 950 q 588 992 564 992 q 612 983 604 992 q 619 957 619 974 q 608 915 619 935 q 574 894 597 894 m 351 894 q 328 903 336 894 q 321 929 321 913 q 332 971 321 950 q 367 992 343 992 q 384 988 376 992 q 394 976 392 983 q 397 957 397 968 q 386 915 397 935 q 351 894 375 894 z "},"©":{"ha":1154,"x_min":68,"x_max":1086,"o":"m 576 -11 q 370 27 464 -11 q 209 135 276 65 q 105 297 142 206 q 68 496 68 389 q 108 700 68 607 q 217 861 147 793 q 378 966 286 929 q 578 1003 471 1003 q 782 963 689 1003 q 943 853 875 924 q 1049 690 1011 782 q 1086 494 1086 599 q 1048 296 1086 389 q 940 134 1010 203 q 778 27 871 65 q 576 -11 685 -11 m 604 196 q 397 272 474 196 q 319 494 319 347 q 354 655 319 588 q 453 760 389 722 q 606 797 518 797 q 701 787 660 797 q 778 760 743 776 l 758 718 q 689 742 726 733 q 606 750 651 750 q 434 682 497 750 q 371 496 371 614 q 435 305 371 368 q 607 242 500 242 q 685 248 649 242 q 761 269 721 254 l 761 226 q 688 204 726 213 q 604 196 650 196 m 576 31 q 763 67 678 31 q 910 168 847 104 q 1007 316 972 232 q 1042 496 1042 400 q 1007 676 1042 592 q 910 824 972 760 q 763 924 849 888 q 576 961 678 961 q 392 926 476 961 q 245 827 308 890 q 148 679 182 764 q 114 496 114 594 q 147 315 114 400 q 241 167 179 231 q 388 67 303 103 q 576 31 472 31 z "},"ª":{"ha":408,"x_min":111,"x_max":481,"o":"m 232 550 q 169 567 197 550 q 126 617 142 583 q 111 701 111 650 q 126 813 111 758 q 168 910 140 867 q 233 978 196 953 q 317 1003 271 1003 q 388 979 364 1003 q 421 924 411 956 l 424 924 l 446 994 l 481 994 l 389 557 l 353 557 l 367 642 l 365 642 q 308 576 342 603 q 232 550 275 550 m 239 592 q 293 610 268 592 q 338 657 318 628 q 371 720 357 686 q 392 788 385 754 q 399 850 399 822 q 379 929 399 897 q 315 961 360 961 q 253 940 282 961 q 203 883 225 919 q 169 800 181 846 q 157 704 157 754 q 178 621 157 650 q 239 592 200 592 z "},"«":{"ha":528,"x_min":38,"x_max":535,"o":"m 172 110 l 38 369 l 40 388 l 283 636 l 313 610 l 96 372 l 210 126 l 172 110 m 394 110 l 260 367 l 264 385 l 506 636 l 535 610 l 319 369 l 431 126 l 394 110 z "},"¬":{"ha":708,"x_min":83,"x_max":646,"o":"m 646 513 l 646 176 l 599 176 l 599 465 l 83 465 l 83 513 l 646 513 z "},"­":{"ha":401,"x_min":42,"x_max":361,"o":"m 42 351 l 50 401 l 361 401 l 353 351 l 42 351 z "},"®":{"ha":1154,"x_min":68,"x_max":1086,"o":"m 408 199 l 408 792 l 574 792 q 719 751 665 792 q 774 622 774 711 q 738 514 774 553 q 649 458 701 475 l 799 199 l 740 199 l 600 447 l 457 447 l 457 199 l 408 199 m 568 489 q 680 521 635 489 q 725 622 725 553 q 683 718 725 689 q 571 747 640 747 l 456 747 l 456 489 l 568 489 m 576 -11 q 370 27 464 -11 q 209 135 276 65 q 105 297 142 206 q 68 496 68 389 q 108 700 68 607 q 217 861 147 793 q 378 966 286 929 q 578 1003 471 1003 q 782 963 689 1003 q 943 853 875 924 q 1049 690 1011 782 q 1086 494 1086 599 q 1048 296 1086 389 q 940 134 1010 203 q 778 27 871 65 q 576 -11 685 -11 m 576 31 q 763 67 678 31 q 910 168 847 104 q 1007 316 972 232 q 1042 496 1042 400 q 1007 676 1042 592 q 910 824 972 760 q 763 924 849 888 q 576 961 678 961 q 392 926 476 961 q 245 827 308 890 q 148 679 182 764 q 114 496 114 594 q 147 315 114 400 q 241 167 179 231 q 388 67 303 103 q 576 31 472 31 z "},"¯":{"ha":592,"x_min":140,"x_max":686,"o":"m 140 1056 l 151 1101 l 686 1101 l 675 1056 l 140 1056 z "},"°":{"ha":560,"x_min":88,"x_max":472,"o":"m 279 625 q 181 649 225 625 q 113 715 138 672 q 88 815 88 758 q 113 916 88 874 q 181 982 138 958 q 279 1006 225 1006 q 377 982 333 1006 q 447 916 421 958 q 472 815 472 874 q 447 715 472 758 q 378 649 422 672 q 279 625 335 625 m 279 668 q 385 710 344 668 q 425 815 425 751 q 385 922 425 882 q 279 963 344 963 q 172 922 211 963 q 133 815 133 882 q 174 709 133 750 q 279 668 214 668 z "},"±":{"ha":708,"x_min":81,"x_max":664,"o":"m 83 0 l 83 47 l 661 47 l 661 0 l 83 0 m 396 515 l 664 515 l 664 468 l 396 468 l 396 171 l 350 171 l 350 468 l 81 468 l 81 515 l 350 515 l 350 815 l 396 815 l 396 515 z "},"²":{"ha":418,"x_min":72,"x_max":494,"o":"m 72 578 l 79 615 l 261 789 q 358 883 317 840 q 423 967 400 926 q 446 1054 446 1008 q 421 1120 446 1096 q 351 1144 396 1144 q 283 1131 315 1144 q 215 1093 250 1118 l 193 1129 q 269 1172 228 1157 q 357 1188 310 1188 q 432 1172 401 1188 q 478 1126 463 1156 q 494 1058 494 1096 q 469 958 494 1006 q 401 865 444 911 q 299 767 357 818 l 146 622 l 421 622 l 411 578 l 72 578 z "},"³":{"ha":418,"x_min":85,"x_max":493,"o":"m 224 569 q 145 578 181 569 q 85 601 110 588 l 85 650 q 150 624 115 635 q 225 614 185 614 q 348 653 303 614 q 393 763 393 693 q 359 842 393 815 q 265 868 325 868 l 211 868 l 221 910 l 274 910 q 363 928 325 910 q 422 978 401 947 q 443 1050 443 1010 q 419 1117 443 1092 q 350 1142 396 1142 q 274 1128 308 1142 q 207 1094 240 1115 l 188 1131 q 263 1169 221 1154 q 354 1185 304 1185 q 431 1168 400 1185 q 477 1123 461 1151 q 493 1057 493 1094 q 453 945 493 988 q 358 890 414 903 l 357 886 q 419 844 394 876 q 443 763 443 813 q 417 660 443 704 q 341 593 390 617 q 224 569 292 569 z "},"´":{"ha":307,"x_min":158,"x_max":397,"o":"m 158 853 q 224 920 190 882 q 288 997 258 958 q 336 1064 318 1035 l 397 1064 l 397 1053 q 358 1003 382 1031 q 305 946 333 975 q 248 890 276 917 q 193 842 219 863 l 160 842 l 158 853 z "},"μ":{"ha":729,"x_min":-37,"x_max":651,"o":"m -37 -322 l 188 735 l 239 735 l 133 236 q 125 128 119 174 q 159 59 131 83 q 242 35 188 35 q 360 74 304 35 q 457 184 415 113 q 518 350 499 256 l 600 735 l 651 735 l 531 169 q 525 63 515 92 q 568 33 535 33 q 592 35 579 33 q 618 42 606 38 l 608 -3 q 592 -8 601 -6 q 571 -12 582 -11 q 549 -14 560 -14 q 497 9 514 -14 q 478 69 481 32 q 481 154 475 107 l 476 154 q 442 101 464 131 q 391 47 421 72 q 323 3 361 21 q 236 -14 285 -14 q 144 10 175 -14 q 99 78 113 35 l 96 78 q 90 43 93 61 q 84 8 88 25 q 76 -26 81 -10 l 14 -322 l -37 -322 z "},"¶":{"ha":788,"x_min":151,"x_max":675,"o":"m 429 514 q 394 506 413 508 q 351 503 375 503 q 267 521 304 503 q 203 575 229 539 q 165 662 178 611 q 151 779 151 713 q 166 902 151 850 q 209 988 181 954 q 279 1039 238 1022 q 375 1056 321 1056 l 675 1056 l 675 -176 l 631 -176 l 631 1008 l 474 1008 l 474 -176 l 429 -176 l 429 514 z "},"·":{"ha":283,"x_min":121,"x_max":210,"o":"m 157 407 q 130 417 140 407 q 119 446 119 428 q 133 493 119 471 q 174 515 146 515 q 199 504 190 515 q 208 476 208 493 q 195 430 208 453 q 157 407 182 407 z "},"¸":{"ha":279,"x_min":-110,"x_max":139,"o":"m -32 -333 q -76 -331 -57 -333 q -110 -325 -94 -328 l -110 -283 q -77 -290 -96 -287 q -36 -292 -58 -292 q 25 -281 -4 -292 q 72 -247 54 -269 q 90 -192 90 -225 q 62 -137 90 -156 q -22 -115 33 -118 l 47 0 l 90 0 l 39 -87 q 111 -120 83 -94 q 139 -190 139 -146 q 115 -266 139 -233 q 53 -316 92 -299 q -32 -333 15 -333 z "},"¹":{"ha":418,"x_min":186,"x_max":418,"o":"m 332 996 q 347 1060 339 1026 q 363 1121 356 1093 q 326 1097 343 1108 q 283 1071 308 1085 l 207 1025 l 186 1061 l 375 1172 l 418 1172 l 292 578 l 243 578 l 332 996 z "},"º":{"ha":429,"x_min":121,"x_max":471,"o":"m 258 546 q 156 590 192 546 q 121 707 121 633 q 135 815 121 761 q 177 910 150 868 q 244 979 204 953 q 336 1006 285 1006 q 437 963 403 1006 q 471 846 471 919 q 457 737 471 790 q 415 640 443 683 q 348 572 388 597 q 258 546 308 546 m 261 589 q 329 611 299 589 q 381 671 360 633 q 414 753 403 708 q 425 843 425 799 q 401 930 425 897 q 332 963 378 963 q 264 940 294 963 q 212 881 233 918 q 178 799 190 844 q 167 708 167 754 q 191 621 167 653 q 261 589 215 589 z "},"»":{"ha":529,"x_min":-8,"x_max":490,"o":"m 243 110 l 214 136 l 431 374 l 318 619 l 354 636 l 490 376 l 488 357 l 243 110 m 22 111 l -8 136 l 207 376 l 96 619 l 132 636 l 267 379 l 264 361 l 22 111 z "},"¼":{"ha":894,"x_min":64,"x_max":871,"o":"m 64 0 l 813 992 l 871 992 l 122 0 l 64 0 m 293 817 q 308 881 300 847 q 324 942 317 914 q 287 917 304 929 q 244 892 269 906 l 168 846 l 147 882 l 336 993 l 379 993 l 253 399 l 204 399 l 293 817 m 660 1 l 692 157 l 451 157 l 458 199 l 788 600 l 835 600 l 749 200 l 831 200 l 821 157 l 740 157 l 707 1 l 660 1 m 513 200 l 701 200 l 740 381 q 757 456 749 417 q 772 524 765 496 q 751 492 764 510 q 721 454 738 474 q 688 414 704 435 l 513 200 z "},"½":{"ha":961,"x_min":58,"x_max":925,"o":"m 58 0 l 807 992 l 865 992 l 117 0 l 58 0 m 293 817 q 308 881 300 847 q 324 942 317 914 q 287 917 304 929 q 244 892 269 906 l 168 846 l 147 882 l 336 993 l 379 993 l 253 399 l 204 399 l 293 817 m 503 1 l 510 39 l 692 213 q 789 307 747 264 q 853 391 831 350 q 876 478 876 432 q 851 544 876 519 q 782 568 826 568 q 713 555 746 568 q 646 517 681 542 l 624 553 q 699 596 658 581 q 788 611 740 611 q 863 595 832 611 q 909 549 893 579 q 925 482 925 519 q 900 382 925 429 q 831 288 875 335 q 729 190 788 242 l 576 46 l 851 46 l 842 1 l 503 1 z "},"¾":{"ha":924,"x_min":40,"x_max":917,"o":"m 179 388 q 101 397 136 388 q 40 419 65 406 l 40 468 q 106 442 71 453 q 181 432 140 432 q 303 472 258 432 q 349 581 349 511 q 315 660 349 633 q 221 686 281 686 l 167 686 l 176 728 l 229 728 q 319 747 281 728 q 378 797 357 765 q 399 868 399 828 q 375 935 399 910 q 306 960 351 960 q 230 947 264 960 q 163 913 196 933 l 143 949 q 218 988 176 972 q 310 1003 260 1003 q 386 986 356 1003 q 433 941 417 969 q 449 875 449 913 q 409 763 449 806 q 314 708 369 721 l 313 704 q 374 663 350 694 q 399 581 399 631 q 372 478 399 522 q 297 411 346 435 q 179 388 247 388 m 110 0 l 858 992 l 917 992 l 168 0 l 110 0 m 688 1 l 719 157 l 479 157 l 486 199 l 815 600 l 863 600 l 776 200 l 858 200 l 849 157 l 768 157 l 735 1 l 688 1 m 540 200 l 729 200 l 768 381 q 785 456 776 417 q 800 524 793 496 q 778 492 792 510 q 749 454 765 474 q 715 414 732 435 l 540 200 z "},"¿":{"ha":483,"x_min":-35,"x_max":414,"o":"m 360 488 q 326 365 347 414 q 271 278 304 317 q 190 194 238 240 q 106 115 144 153 q 43 31 67 76 q 19 -76 19 -14 q 59 -184 19 -144 q 165 -224 99 -224 q 245 -212 206 -224 q 325 -181 285 -200 l 344 -224 q 251 -260 297 -247 q 161 -272 206 -272 q 18 -219 71 -272 q -35 -82 -35 -167 q -10 37 -35 -14 q 56 132 14 88 q 153 222 99 176 q 230 299 199 264 q 281 378 261 335 q 314 488 301 421 l 360 488 m 376 742 q 403 732 393 742 q 414 703 414 722 q 401 656 414 679 q 360 633 388 633 q 334 644 343 633 q 325 674 325 656 q 338 719 325 697 q 376 742 351 742 z "},"À":{"ha":658,"x_min":-79,"x_max":581,"o":"m -79 0 l 433 994 l 490 994 l 581 0 l 528 0 l 494 368 l 168 368 l -21 0 l -79 0 m 192 418 l 490 418 l 458 800 q 453 865 456 831 q 450 929 451 900 l 447 929 q 418 867 435 900 q 385 799 401 833 l 192 418 m 499 1100 q 453 1163 479 1125 q 406 1240 428 1201 q 371 1308 383 1279 l 371 1321 l 425 1321 q 457 1249 439 1286 q 494 1176 475 1211 q 529 1115 513 1142 l 529 1100 l 499 1100 z "},"Á":{"ha":658,"x_min":-79,"x_max":675,"o":"m -79 0 l 433 994 l 490 994 l 581 0 l 528 0 l 494 368 l 168 368 l -21 0 l -79 0 m 192 418 l 490 418 l 458 800 q 453 865 456 831 q 450 929 451 900 l 447 929 q 418 867 435 900 q 385 799 401 833 l 192 418 m 435 1108 q 501 1176 467 1138 q 565 1252 535 1214 q 613 1319 594 1290 l 674 1319 l 674 1308 q 634 1258 658 1286 q 581 1201 610 1231 q 524 1145 553 1172 q 469 1097 496 1118 l 436 1097 l 435 1108 z "},"Â":{"ha":658,"x_min":-79,"x_max":631,"o":"m -79 0 l 433 994 l 490 994 l 581 0 l 528 0 l 494 368 l 168 368 l -21 0 l -79 0 m 192 418 l 490 418 l 458 800 q 453 865 456 831 q 450 929 451 900 l 447 929 q 418 867 435 900 q 385 799 401 833 l 192 418 m 304 1108 q 368 1173 333 1136 q 435 1248 403 1210 q 489 1317 467 1286 l 535 1317 q 560 1250 543 1289 q 596 1173 576 1211 q 632 1108 615 1135 l 629 1097 l 599 1097 q 565 1148 582 1121 q 532 1203 547 1175 q 503 1260 517 1232 q 425 1177 468 1221 q 339 1097 382 1133 l 303 1097 l 304 1108 z "},"Ã":{"ha":658,"x_min":-79,"x_max":711,"o":"m -79 0 l 433 994 l 490 994 l 581 0 l 528 0 l 494 368 l 168 368 l -21 0 l -79 0 m 192 418 l 490 418 l 458 800 q 453 865 456 831 q 450 929 451 900 l 447 929 q 418 867 435 900 q 385 799 401 833 l 192 418 m 272 1108 q 301 1187 283 1156 q 344 1234 318 1218 q 404 1250 369 1250 q 458 1235 435 1250 q 502 1202 482 1221 q 541 1169 522 1183 q 581 1156 560 1156 q 631 1175 610 1156 q 668 1250 653 1194 l 711 1250 q 683 1172 700 1204 q 640 1124 665 1140 q 578 1108 614 1108 q 526 1122 549 1108 q 485 1155 504 1136 q 445 1188 465 1174 q 401 1203 425 1203 q 351 1182 372 1203 q 315 1108 331 1161 l 272 1108 z "},"Ä":{"ha":658,"x_min":-79,"x_max":633,"o":"m -79 0 l 433 994 l 490 994 l 581 0 l 528 0 l 494 368 l 168 368 l -21 0 l -79 0 m 192 418 l 490 418 l 458 800 q 453 865 456 831 q 450 929 451 900 l 447 929 q 418 867 435 900 q 385 799 401 833 l 192 418 m 586 1150 q 563 1159 571 1150 q 554 1185 554 1168 q 565 1226 554 1206 q 600 1247 576 1247 q 624 1238 617 1247 q 632 1213 632 1229 q 621 1170 632 1190 q 586 1150 610 1150 m 364 1150 q 341 1159 349 1150 q 333 1185 333 1168 q 344 1226 333 1206 q 379 1247 356 1247 q 397 1243 389 1247 q 407 1231 404 1239 q 410 1213 410 1224 q 399 1170 410 1190 q 364 1150 388 1150 z "},"Å":{"ha":658,"x_min":-79,"x_max":617,"o":"m -79 0 l 433 994 l 490 994 l 581 0 l 528 0 l 494 368 l 168 368 l -21 0 l -79 0 m 192 418 l 490 418 l 458 800 q 453 865 456 831 q 450 929 451 900 l 447 929 q 418 867 435 900 q 385 799 401 833 l 192 418 m 482 1033 q 385 1070 424 1033 q 346 1168 346 1107 q 385 1264 346 1226 q 482 1301 424 1301 q 579 1263 542 1301 q 617 1168 617 1225 q 578 1072 617 1110 q 482 1033 540 1033 m 482 1074 q 550 1101 525 1074 q 575 1168 575 1128 q 549 1235 575 1208 q 482 1263 524 1263 q 414 1235 440 1263 q 388 1168 388 1208 q 413 1101 388 1128 q 482 1074 439 1074 z "},"Æ":{"ha":944,"x_min":-82,"x_max":1000,"o":"m -82 0 l 479 992 l 1000 992 l 990 943 l 603 943 l 518 546 l 882 546 l 872 497 l 508 497 l 413 49 l 800 49 l 789 0 l 349 0 l 426 368 l 185 368 l -21 0 l -82 0 m 213 418 l 438 418 l 549 942 l 507 942 l 213 418 z "},"Ç":{"ha":699,"x_min":90,"x_max":774,"o":"m 382 -14 q 224 28 289 -14 q 124 152 158 71 q 90 349 90 233 q 112 540 90 444 q 176 718 133 635 q 278 867 218 801 q 415 969 338 932 q 583 1006 492 1006 q 687 994 640 1006 q 774 960 733 982 l 747 913 q 671 947 713 936 q 582 957 629 957 q 434 922 501 957 q 313 828 367 888 q 222 692 260 769 q 165 526 185 614 q 146 351 146 439 q 209 117 146 199 q 388 35 272 35 q 486 44 439 35 q 576 69 533 54 l 576 21 q 487 -4 535 6 q 382 -14 439 -14 m 242 -333 q 198 -331 217 -333 q 164 -325 179 -328 l 164 -283 q 197 -290 178 -287 q 238 -292 215 -292 q 299 -281 269 -292 q 346 -247 328 -269 q 364 -192 364 -225 q 335 -137 364 -156 q 251 -115 307 -118 l 321 0 l 364 0 l 313 -87 q 385 -120 357 -94 q 413 -190 413 -146 q 389 -266 413 -233 q 327 -316 365 -299 q 242 -333 289 -333 z "},"È":{"ha":642,"x_min":43,"x_max":688,"o":"m 43 0 l 253 992 l 688 992 l 676 943 l 297 943 l 213 546 l 569 546 l 560 497 l 203 497 l 107 49 l 488 49 l 476 0 l 43 0 m 501 1099 q 456 1162 482 1124 q 408 1239 431 1200 q 374 1307 386 1278 l 374 1319 l 428 1319 q 460 1247 442 1285 q 497 1175 478 1210 q 532 1114 515 1140 l 532 1099 l 501 1099 z "},"É":{"ha":642,"x_min":43,"x_max":688,"o":"m 43 0 l 253 992 l 688 992 l 676 943 l 297 943 l 213 546 l 569 546 l 560 497 l 203 497 l 107 49 l 488 49 l 476 0 l 43 0 m 432 1108 q 498 1176 464 1138 q 562 1252 532 1214 q 610 1319 592 1290 l 671 1319 l 671 1308 q 631 1258 656 1286 q 578 1201 607 1231 q 522 1145 550 1172 q 467 1097 493 1118 l 433 1097 l 432 1108 z "},"Ê":{"ha":642,"x_min":43,"x_max":688,"o":"m 43 0 l 253 992 l 688 992 l 676 943 l 297 943 l 213 546 l 569 546 l 560 497 l 203 497 l 107 49 l 488 49 l 476 0 l 43 0 m 321 1099 q 385 1163 350 1126 q 451 1238 419 1200 q 506 1307 483 1276 l 551 1307 q 576 1240 560 1279 q 613 1163 593 1201 q 649 1099 632 1125 l 646 1088 l 615 1088 q 581 1138 599 1111 q 549 1194 564 1165 q 519 1250 533 1222 q 442 1167 485 1211 q 356 1088 399 1124 l 319 1088 l 321 1099 z "},"Ë":{"ha":642,"x_min":43,"x_max":688,"o":"m 43 0 l 253 992 l 688 992 l 676 943 l 297 943 l 213 546 l 569 546 l 560 497 l 203 497 l 107 49 l 488 49 l 476 0 l 43 0 m 606 1140 q 582 1149 590 1140 q 574 1175 574 1158 q 585 1217 574 1196 q 619 1238 596 1238 q 644 1228 636 1238 q 651 1203 651 1219 q 640 1160 651 1181 q 606 1140 629 1140 m 383 1140 q 360 1149 368 1140 q 353 1175 353 1158 q 364 1217 353 1196 q 399 1238 375 1238 q 416 1233 408 1238 q 426 1222 424 1229 q 429 1203 429 1214 q 418 1160 429 1181 q 383 1140 407 1140 z "},"Ì":{"ha":347,"x_min":-26,"x_max":421,"o":"m -26 0 l -19 35 l 75 43 l 267 947 l 176 957 l 183 992 l 421 992 l 413 957 l 318 947 l 126 43 l 217 35 l 210 0 l -26 0 m 344 1099 q 299 1162 325 1124 q 251 1239 274 1200 q 217 1307 229 1278 l 217 1319 l 271 1319 q 303 1247 285 1285 q 340 1175 321 1210 q 375 1114 358 1140 l 375 1099 l 344 1099 z "},"Í":{"ha":347,"x_min":-26,"x_max":513,"o":"m -26 0 l -19 35 l 75 43 l 267 947 l 176 957 l 183 992 l 421 992 l 413 957 l 318 947 l 126 43 l 217 35 l 210 0 l -26 0 m 274 1108 q 340 1176 306 1138 q 403 1252 374 1214 q 451 1319 433 1290 l 513 1319 l 513 1308 q 473 1258 497 1286 q 420 1201 449 1231 q 363 1145 392 1172 q 308 1097 335 1118 l 275 1097 l 274 1108 z "},"Î":{"ha":347,"x_min":-26,"x_max":481,"o":"m -26 0 l -19 35 l 75 43 l 267 947 l 176 957 l 183 992 l 421 992 l 413 957 l 318 947 l 126 43 l 217 35 l 210 0 l -26 0 m 153 1111 q 217 1176 182 1139 q 283 1251 251 1213 q 338 1319 315 1289 l 383 1319 q 408 1253 392 1292 q 444 1176 425 1214 q 481 1111 464 1138 l 478 1100 l 447 1100 q 413 1151 431 1124 q 381 1206 396 1178 q 351 1263 365 1235 q 274 1180 317 1224 q 188 1100 231 1136 l 151 1100 l 153 1111 z "},"Ï":{"ha":347,"x_min":-26,"x_max":486,"o":"m -26 0 l -19 35 l 75 43 l 267 947 l 176 957 l 183 992 l 421 992 l 413 957 l 318 947 l 126 43 l 217 35 l 210 0 l -26 0 m 439 1153 q 415 1162 424 1153 q 407 1188 407 1171 q 418 1229 407 1208 q 453 1250 429 1250 q 477 1241 469 1250 q 485 1215 485 1232 q 474 1173 485 1193 q 439 1153 463 1153 m 217 1153 q 194 1162 201 1153 q 186 1188 186 1171 q 197 1229 186 1208 q 232 1250 208 1250 q 249 1246 242 1250 q 260 1234 257 1242 q 263 1215 263 1226 q 251 1173 263 1193 q 217 1153 240 1153 z "},"Ð":{"ha":811,"x_min":43,"x_max":765,"o":"m 49 476 l 60 525 l 422 525 l 413 476 l 49 476 m 43 0 l 253 992 l 428 992 q 676 904 588 992 q 765 633 765 817 q 745 454 765 544 q 683 282 725 364 q 577 137 642 200 q 424 37 513 74 q 222 0 336 0 l 43 0 m 225 49 q 401 83 324 49 q 538 174 479 117 q 634 307 596 232 q 691 465 672 382 q 710 633 710 549 q 633 870 710 797 q 415 943 557 943 l 297 943 l 107 49 l 225 49 z "},"Ñ":{"ha":839,"x_min":43,"x_max":844,"o":"m 43 0 l 253 992 l 307 992 l 603 99 l 606 99 q 620 173 613 135 q 635 247 628 211 q 647 314 642 283 l 792 992 l 844 992 l 635 0 l 581 0 l 285 897 l 282 897 q 273 845 278 871 q 263 792 268 819 q 251 738 257 765 q 240 681 246 710 l 96 0 l 43 0 m 368 1099 q 397 1177 379 1146 q 440 1224 414 1208 q 500 1240 465 1240 q 554 1226 531 1240 q 598 1192 578 1211 q 637 1160 618 1174 q 676 1146 656 1146 q 727 1165 706 1146 q 764 1240 749 1185 l 807 1240 q 778 1163 796 1194 q 735 1115 761 1131 q 674 1099 710 1099 q 622 1113 644 1099 q 581 1145 600 1126 q 541 1178 561 1164 q 497 1193 521 1193 q 447 1172 468 1193 q 411 1099 426 1151 l 368 1099 z "},"Ò":{"ha":863,"x_min":89,"x_max":819,"o":"m 379 -14 q 213 31 278 -14 q 119 154 149 75 q 89 338 89 233 q 101 489 89 411 q 138 642 113 567 q 199 782 163 717 q 285 898 236 847 q 397 978 335 949 q 535 1007 460 1007 q 743 923 667 1007 q 819 665 819 839 q 810 531 819 604 q 778 381 800 457 q 723 234 757 304 q 640 108 689 164 q 526 19 590 51 q 379 -14 463 -14 m 382 36 q 506 66 451 36 q 603 147 561 96 q 675 263 644 199 q 725 399 706 328 q 754 538 744 469 q 764 665 764 607 q 706 881 764 806 q 531 957 649 957 q 407 928 463 957 q 308 849 351 899 q 235 737 265 800 q 184 604 204 674 q 154 467 164 535 q 144 339 144 399 q 170 176 144 244 q 249 72 196 108 q 382 36 301 36 m 589 1099 q 544 1162 569 1124 q 496 1239 518 1200 q 461 1307 474 1278 l 461 1319 l 515 1319 q 547 1247 529 1285 q 584 1175 565 1210 q 619 1114 603 1140 l 619 1099 l 589 1099 z "},"Ó":{"ha":863,"x_min":89,"x_max":819,"o":"m 379 -14 q 213 31 278 -14 q 119 154 149 75 q 89 338 89 233 q 101 489 89 411 q 138 642 113 567 q 199 782 163 717 q 285 898 236 847 q 397 978 335 949 q 535 1007 460 1007 q 743 923 667 1007 q 819 665 819 839 q 810 531 819 604 q 778 381 800 457 q 723 234 757 304 q 640 108 689 164 q 526 19 590 51 q 379 -14 463 -14 m 382 36 q 506 66 451 36 q 603 147 561 96 q 675 263 644 199 q 725 399 706 328 q 754 538 744 469 q 764 665 764 607 q 706 881 764 806 q 531 957 649 957 q 407 928 463 957 q 308 849 351 899 q 235 737 265 800 q 184 604 204 674 q 154 467 164 535 q 144 339 144 399 q 170 176 144 244 q 249 72 196 108 q 382 36 301 36 m 518 1108 q 584 1176 550 1138 q 648 1252 618 1214 q 696 1319 678 1290 l 757 1319 l 757 1308 q 717 1258 742 1286 q 665 1201 693 1231 q 608 1145 636 1172 q 553 1097 579 1118 l 519 1097 l 518 1108 z "},"Ô":{"ha":863,"x_min":89,"x_max":819,"o":"m 379 -14 q 213 31 278 -14 q 119 154 149 75 q 89 338 89 233 q 101 489 89 411 q 138 642 113 567 q 199 782 163 717 q 285 898 236 847 q 397 978 335 949 q 535 1007 460 1007 q 743 923 667 1007 q 819 665 819 839 q 810 531 819 604 q 778 381 800 457 q 723 234 757 304 q 640 108 689 164 q 526 19 590 51 q 379 -14 463 -14 m 382 36 q 506 66 451 36 q 603 147 561 96 q 675 263 644 199 q 725 399 706 328 q 754 538 744 469 q 764 665 764 607 q 706 881 764 806 q 531 957 649 957 q 407 928 463 957 q 308 849 351 899 q 235 737 265 800 q 184 604 204 674 q 154 467 164 535 q 144 339 144 399 q 170 176 144 244 q 249 72 196 108 q 382 36 301 36 m 389 1099 q 453 1163 418 1126 q 519 1238 488 1200 q 574 1307 551 1276 l 619 1307 q 644 1240 628 1279 q 681 1163 661 1201 q 717 1099 700 1125 l 714 1088 l 683 1088 q 649 1138 667 1111 q 617 1194 632 1165 q 588 1250 601 1222 q 510 1167 553 1211 q 424 1088 467 1124 l 388 1088 l 389 1099 z "},"Õ":{"ha":863,"x_min":89,"x_max":819,"o":"m 379 -14 q 213 31 278 -14 q 119 154 149 75 q 89 338 89 233 q 101 489 89 411 q 138 642 113 567 q 199 782 163 717 q 285 898 236 847 q 397 978 335 949 q 535 1007 460 1007 q 743 923 667 1007 q 819 665 819 839 q 810 531 819 604 q 778 381 800 457 q 723 234 757 304 q 640 108 689 164 q 526 19 590 51 q 379 -14 463 -14 m 382 36 q 506 66 451 36 q 603 147 561 96 q 675 263 644 199 q 725 399 706 328 q 754 538 744 469 q 764 665 764 607 q 706 881 764 806 q 531 957 649 957 q 407 928 463 957 q 308 849 351 899 q 235 737 265 800 q 184 604 204 674 q 154 467 164 535 q 144 339 144 399 q 170 176 144 244 q 249 72 196 108 q 382 36 301 36 m 358 1099 q 387 1177 369 1146 q 430 1224 404 1208 q 490 1240 456 1240 q 544 1226 521 1240 q 588 1192 568 1211 q 627 1160 608 1174 q 667 1146 646 1146 q 717 1165 696 1146 q 754 1240 739 1185 l 797 1240 q 769 1163 786 1194 q 726 1115 751 1131 q 664 1099 700 1099 q 613 1113 635 1099 q 571 1145 590 1126 q 531 1178 551 1164 q 488 1193 511 1193 q 438 1172 458 1193 q 401 1099 417 1151 l 358 1099 z "},"Ö":{"ha":863,"x_min":89,"x_max":819,"o":"m 379 -14 q 213 31 278 -14 q 119 154 149 75 q 89 338 89 233 q 101 489 89 411 q 138 642 113 567 q 199 782 163 717 q 285 898 236 847 q 397 978 335 949 q 535 1007 460 1007 q 743 923 667 1007 q 819 665 819 839 q 810 531 819 604 q 778 381 800 457 q 723 234 757 304 q 640 108 689 164 q 526 19 590 51 q 379 -14 463 -14 m 382 36 q 506 66 451 36 q 603 147 561 96 q 675 263 644 199 q 725 399 706 328 q 754 538 744 469 q 764 665 764 607 q 706 881 764 806 q 531 957 649 957 q 407 928 463 957 q 308 849 351 899 q 235 737 265 800 q 184 604 204 674 q 154 467 164 535 q 144 339 144 399 q 170 176 144 244 q 249 72 196 108 q 382 36 301 36 m 713 1151 q 689 1160 697 1151 q 681 1186 681 1169 q 692 1228 681 1207 q 726 1249 703 1249 q 751 1240 743 1249 q 758 1214 758 1231 q 747 1172 758 1192 q 713 1151 736 1151 m 490 1151 q 467 1160 475 1151 q 460 1186 460 1169 q 471 1228 460 1207 q 506 1249 482 1249 q 523 1244 515 1249 q 533 1233 531 1240 q 536 1214 536 1225 q 525 1172 536 1192 q 490 1151 514 1151 z "},"×":{"ha":708,"x_min":100,"x_max":646,"o":"m 614 764 l 646 732 l 404 490 l 644 250 l 613 218 l 372 458 l 132 217 l 100 250 l 340 490 l 100 732 l 133 764 l 372 522 l 614 764 z "},"Ø":{"ha":864,"x_min":18,"x_max":889,"o":"m 54 -47 l 18 -18 l 133 128 q 100 224 111 171 q 89 338 89 276 q 101 489 89 411 q 138 642 113 567 q 199 782 163 717 q 285 898 236 847 q 397 978 335 949 q 535 1007 460 1007 q 659 983 604 1007 q 749 910 714 958 l 851 1038 l 889 1010 l 776 867 q 808 779 797 831 q 819 665 819 728 q 810 531 819 604 q 778 381 800 457 q 723 234 757 304 q 640 108 689 164 q 526 19 590 51 q 379 -14 463 -14 q 249 13 304 -14 q 160 86 194 39 l 54 -47 m 382 36 q 506 65 450 36 q 603 146 561 94 q 675 262 644 197 q 725 397 706 326 q 754 535 744 467 q 764 663 764 604 q 757 747 764 708 q 736 814 750 785 l 194 132 q 269 60 222 85 q 382 36 317 36 m 715 865 q 641 934 686 911 q 531 957 596 957 q 407 928 463 957 q 308 851 351 900 q 235 738 265 801 q 184 606 204 675 q 154 469 164 538 q 144 342 144 401 q 151 254 144 294 q 172 179 158 214 l 715 865 z "},"Ù":{"ha":826,"x_min":92,"x_max":840,"o":"m 344 -14 q 211 13 268 -14 q 123 94 154 40 q 92 224 92 147 q 95 277 92 249 q 106 336 99 306 l 244 992 l 299 992 l 160 336 q 150 278 153 307 q 147 228 147 250 q 201 85 147 133 q 347 36 254 36 q 488 70 429 36 q 585 172 546 104 q 646 340 625 240 l 786 992 l 840 992 l 699 335 q 628 143 675 221 q 512 26 582 65 q 344 -14 442 -14 m 582 1099 q 537 1162 563 1124 q 489 1239 511 1200 q 454 1307 467 1278 l 454 1319 l 508 1319 q 540 1247 522 1285 q 577 1175 558 1210 q 613 1114 596 1140 l 613 1099 l 582 1099 z "},"Ú":{"ha":826,"x_min":92,"x_max":840,"o":"m 344 -14 q 211 13 268 -14 q 123 94 154 40 q 92 224 92 147 q 95 277 92 249 q 106 336 99 306 l 244 992 l 299 992 l 160 336 q 150 278 153 307 q 147 228 147 250 q 201 85 147 133 q 347 36 254 36 q 488 70 429 36 q 585 172 546 104 q 646 340 625 240 l 786 992 l 840 992 l 699 335 q 628 143 675 221 q 512 26 582 65 q 344 -14 442 -14 m 504 1108 q 570 1176 536 1138 q 634 1252 604 1214 q 682 1319 664 1290 l 743 1319 l 743 1308 q 703 1258 728 1286 q 651 1201 679 1231 q 594 1145 622 1172 q 539 1097 565 1118 l 506 1097 l 504 1108 z "},"Û":{"ha":826,"x_min":92,"x_max":840,"o":"m 344 -14 q 211 13 268 -14 q 123 94 154 40 q 92 224 92 147 q 95 277 92 249 q 106 336 99 306 l 244 992 l 299 992 l 160 336 q 150 278 153 307 q 147 228 147 250 q 201 85 147 133 q 347 36 254 36 q 488 70 429 36 q 585 172 546 104 q 646 340 625 240 l 786 992 l 840 992 l 699 335 q 628 143 675 221 q 512 26 582 65 q 344 -14 442 -14 m 383 1099 q 447 1163 413 1126 q 514 1238 482 1200 q 568 1307 546 1276 l 614 1307 q 639 1240 622 1279 q 675 1163 656 1201 q 711 1099 694 1125 l 708 1088 l 678 1088 q 644 1138 661 1111 q 611 1194 626 1165 q 582 1250 596 1222 q 504 1167 547 1211 q 418 1088 461 1124 l 382 1088 l 383 1099 z "},"Ü":{"ha":826,"x_min":92,"x_max":840,"o":"m 344 -14 q 211 13 268 -14 q 123 94 154 40 q 92 224 92 147 q 95 277 92 249 q 106 336 99 306 l 244 992 l 299 992 l 160 336 q 150 278 153 307 q 147 228 147 250 q 201 85 147 133 q 347 36 254 36 q 488 70 429 36 q 585 172 546 104 q 646 340 625 240 l 786 992 l 840 992 l 699 335 q 628 143 675 221 q 512 26 582 65 q 344 -14 442 -14 m 694 1151 q 671 1160 679 1151 q 663 1186 663 1169 q 674 1228 663 1207 q 708 1249 685 1249 q 733 1240 725 1249 q 740 1214 740 1231 q 729 1172 740 1192 q 694 1151 718 1151 m 472 1151 q 449 1160 457 1151 q 442 1186 442 1169 q 453 1228 442 1207 q 488 1249 464 1249 q 505 1244 497 1249 q 515 1233 513 1240 q 518 1214 518 1225 q 507 1172 518 1192 q 472 1151 496 1151 z "},"Ý":{"ha":585,"x_min":126,"x_max":710,"o":"m 182 0 l 263 379 l 126 992 l 179 992 l 300 443 l 649 992 l 710 992 l 317 382 l 236 0 l 182 0 m 388 1108 q 453 1176 419 1138 q 517 1252 488 1214 q 565 1319 547 1290 l 626 1319 l 626 1308 q 587 1258 611 1286 q 534 1201 563 1231 q 477 1145 506 1172 q 422 1097 449 1118 l 389 1097 l 388 1108 z "},"Þ":{"ha":676,"x_min":43,"x_max":646,"o":"m 43 0 l 253 992 l 307 992 l 268 810 l 390 810 q 533 783 476 810 q 617 708 589 757 q 646 588 646 658 q 618 431 646 497 q 539 320 590 364 q 417 256 488 276 q 265 235 347 235 l 146 235 l 97 0 l 43 0 m 269 283 q 438 316 365 283 q 551 416 510 349 q 592 585 592 483 q 540 716 592 671 q 382 761 488 761 l 258 761 l 157 283 l 269 283 z "},"ß":{"ha":653,"x_min":-194,"x_max":632,"o":"m -124 -333 q -164 -330 -146 -333 q -194 -321 -182 -326 l -194 -271 q -162 -281 -179 -278 q -125 -285 -144 -285 q -48 -247 -76 -285 q -4 -139 -19 -210 l 196 806 q 248 949 215 893 q 332 1034 281 1006 q 454 1063 383 1063 q 586 1019 540 1063 q 632 907 632 975 q 613 817 632 854 q 565 752 594 779 q 501 697 536 725 q 431 631 458 664 q 403 546 403 597 q 414 499 403 521 q 442 455 425 476 q 478 410 460 433 q 536 330 510 375 q 563 222 563 285 q 535 99 563 151 q 456 16 508 46 q 325 -14 403 -14 q 236 -3 275 -14 q 172 21 197 7 l 174 75 q 244 45 206 57 q 325 33 283 33 q 459 83 411 33 q 507 219 507 132 q 497 280 507 253 q 472 331 488 307 q 438 378 457 356 q 376 456 403 417 q 350 544 350 496 q 365 620 350 589 q 406 676 381 651 q 461 724 432 701 q 519 773 493 749 q 562 829 546 797 q 578 904 578 861 q 544 985 578 954 q 450 1015 510 1015 q 353 991 393 1015 q 289 920 314 967 q 249 806 264 874 l 47 -143 q 14 -244 36 -201 q -42 -310 -8 -287 q -124 -333 -75 -333 z "},"à":{"ha":682,"x_min":58,"x_max":650,"o":"m 238 -14 q 140 15 179 -14 q 79 98 100 44 q 58 226 58 151 q 73 367 58 294 q 115 508 88 440 q 184 631 143 576 q 279 717 225 685 q 401 749 333 749 q 488 726 454 749 q 542 668 522 703 q 568 594 561 633 l 572 594 l 607 735 l 650 735 l 494 0 l 451 0 l 481 160 l 478 160 q 417 78 453 118 q 337 12 382 38 q 238 -14 292 -14 m 249 33 q 360 76 307 33 q 455 191 414 119 q 515 349 496 263 q 534 444 528 400 q 540 526 540 489 q 503 654 540 608 q 403 700 467 700 q 301 672 347 700 q 220 594 256 643 q 161 483 185 544 q 125 356 138 422 q 113 228 113 289 q 148 83 113 133 q 249 33 183 33 m 467 843 q 422 906 447 868 q 374 983 396 944 q 339 1051 351 1022 l 339 1064 l 393 1064 q 425 992 407 1029 q 462 919 443 954 q 497 858 481 885 l 497 843 l 467 843 z "},"á":{"ha":682,"x_min":58,"x_max":650,"o":"m 238 -14 q 140 15 179 -14 q 79 98 100 44 q 58 226 58 151 q 73 367 58 294 q 115 508 88 440 q 184 631 143 576 q 279 717 225 685 q 401 749 333 749 q 488 726 454 749 q 542 668 522 703 q 568 594 561 633 l 572 594 l 607 735 l 650 735 l 494 0 l 451 0 l 481 160 l 478 160 q 417 78 453 118 q 337 12 382 38 q 238 -14 292 -14 m 249 33 q 360 76 307 33 q 455 191 414 119 q 515 349 496 263 q 534 444 528 400 q 540 526 540 489 q 503 654 540 608 q 403 700 467 700 q 301 672 347 700 q 220 594 256 643 q 161 483 185 544 q 125 356 138 422 q 113 228 113 289 q 148 83 113 133 q 249 33 183 33 m 382 851 q 448 919 414 881 q 512 995 482 957 q 560 1063 542 1033 l 621 1063 l 621 1051 q 581 1001 606 1029 q 528 944 557 974 q 472 888 500 915 q 417 840 443 861 l 383 840 l 382 851 z "},"â":{"ha":682,"x_min":58,"x_max":650,"o":"m 238 -14 q 140 15 179 -14 q 79 98 100 44 q 58 226 58 151 q 73 367 58 294 q 115 508 88 440 q 184 631 143 576 q 279 717 225 685 q 401 749 333 749 q 488 726 454 749 q 542 668 522 703 q 568 594 561 633 l 572 594 l 607 735 l 650 735 l 494 0 l 451 0 l 481 160 l 478 160 q 417 78 453 118 q 337 12 382 38 q 238 -14 292 -14 m 249 33 q 360 76 307 33 q 455 191 414 119 q 515 349 496 263 q 534 444 528 400 q 540 526 540 489 q 503 654 540 608 q 403 700 467 700 q 301 672 347 700 q 220 594 256 643 q 161 483 185 544 q 125 356 138 422 q 113 228 113 289 q 148 83 113 133 q 249 33 183 33 m 272 853 q 336 917 301 881 q 403 992 371 954 q 457 1061 435 1031 l 503 1061 q 528 994 511 1033 q 564 917 544 956 q 600 853 583 879 l 597 842 l 567 842 q 533 892 550 865 q 500 948 515 919 q 471 1004 485 976 q 393 922 436 965 q 307 842 350 878 l 271 842 l 272 853 z "},"ã":{"ha":682,"x_min":58,"x_max":668,"o":"m 238 -14 q 140 15 179 -14 q 79 98 100 44 q 58 226 58 151 q 73 367 58 294 q 115 508 88 440 q 184 631 143 576 q 279 717 225 685 q 401 749 333 749 q 488 726 454 749 q 542 668 522 703 q 568 594 561 633 l 572 594 l 607 735 l 650 735 l 494 0 l 451 0 l 481 160 l 478 160 q 417 78 453 118 q 337 12 382 38 q 238 -14 292 -14 m 249 33 q 360 76 307 33 q 455 191 414 119 q 515 349 496 263 q 534 444 528 400 q 540 526 540 489 q 503 654 540 608 q 403 700 467 700 q 301 672 347 700 q 220 594 256 643 q 161 483 185 544 q 125 356 138 422 q 113 228 113 289 q 148 83 113 133 q 249 33 183 33 m 229 853 q 258 931 240 900 q 301 978 275 963 q 361 994 326 994 q 415 980 392 994 q 459 947 439 965 q 498 914 479 928 q 538 900 517 900 q 588 919 567 900 q 625 994 610 939 l 668 994 q 640 917 657 949 q 597 869 622 885 q 535 853 571 853 q 483 867 506 853 q 442 899 461 881 q 402 933 422 918 q 358 947 382 947 q 308 926 329 947 q 272 853 288 906 l 229 853 z "},"ä":{"ha":682,"x_min":58,"x_max":650,"o":"m 238 -14 q 140 15 179 -14 q 79 98 100 44 q 58 226 58 151 q 73 367 58 294 q 115 508 88 440 q 184 631 143 576 q 279 717 225 685 q 401 749 333 749 q 488 726 454 749 q 542 668 522 703 q 568 594 561 633 l 572 594 l 607 735 l 650 735 l 494 0 l 451 0 l 481 160 l 478 160 q 417 78 453 118 q 337 12 382 38 q 238 -14 292 -14 m 249 33 q 360 76 307 33 q 455 191 414 119 q 515 349 496 263 q 534 444 528 400 q 540 526 540 489 q 503 654 540 608 q 403 700 467 700 q 301 672 347 700 q 220 594 256 643 q 161 483 185 544 q 125 356 138 422 q 113 228 113 289 q 148 83 113 133 q 249 33 183 33 m 558 894 q 535 903 543 894 q 526 929 526 913 q 538 971 526 950 q 572 992 549 992 q 597 983 589 992 q 604 957 604 974 q 593 915 604 935 q 558 894 582 894 m 336 894 q 313 903 321 894 q 306 929 306 913 q 317 971 306 950 q 351 992 328 992 q 369 988 361 992 q 379 976 376 983 q 382 957 382 968 q 371 915 382 935 q 336 894 360 894 z "},"å":{"ha":682,"x_min":58,"x_max":650,"o":"m 238 -14 q 140 15 179 -14 q 79 98 100 44 q 58 226 58 151 q 73 367 58 294 q 115 508 88 440 q 184 631 143 576 q 279 717 225 685 q 401 749 333 749 q 488 726 454 749 q 542 668 522 703 q 568 594 561 633 l 572 594 l 607 735 l 650 735 l 494 0 l 451 0 l 481 160 l 478 160 q 417 78 453 118 q 337 12 382 38 q 238 -14 292 -14 m 249 33 q 360 76 307 33 q 455 191 414 119 q 515 349 496 263 q 534 444 528 400 q 540 526 540 489 q 503 654 540 608 q 403 700 467 700 q 301 672 347 700 q 220 594 256 643 q 161 483 185 544 q 125 356 138 422 q 113 228 113 289 q 148 83 113 133 q 249 33 183 33 m 453 847 q 356 884 394 847 q 317 982 317 921 q 356 1078 317 1040 q 453 1115 394 1115 q 550 1077 513 1115 q 588 982 588 1039 q 549 885 588 924 q 453 847 511 847 m 453 888 q 521 915 496 888 q 546 982 546 942 q 520 1049 546 1022 q 453 1076 494 1076 q 385 1049 411 1076 q 358 982 358 1022 q 384 915 358 942 q 453 888 410 888 z "},"æ":{"ha":1028,"x_min":58,"x_max":992,"o":"m 232 -14 q 139 15 178 -14 q 79 97 100 43 q 58 226 58 150 q 73 369 58 296 q 115 511 88 443 q 184 633 143 579 q 278 717 225 686 q 396 749 331 749 q 478 725 447 749 q 526 667 510 701 q 549 596 543 632 l 553 596 l 588 735 l 628 735 l 597 592 q 701 705 640 661 q 840 749 761 749 q 949 710 906 749 q 992 600 992 671 q 963 492 992 539 q 881 413 935 446 q 752 364 828 381 q 582 347 676 347 l 551 347 q 545 301 547 326 q 543 247 543 275 q 589 89 543 144 q 725 33 635 33 q 814 47 772 33 q 890 78 856 61 l 889 28 q 813 -2 857 10 q 718 -14 768 -14 q 581 28 638 -14 q 508 163 525 71 l 474 0 l 433 0 l 463 156 l 460 156 q 403 72 436 111 q 328 10 369 33 q 232 -14 286 -14 m 243 33 q 328 58 288 33 q 401 126 368 82 q 458 226 433 169 q 497 349 483 283 q 516 444 510 400 q 522 526 522 489 q 490 654 522 608 q 399 700 457 700 q 300 672 344 700 q 221 594 256 643 q 162 485 186 546 q 125 357 138 424 q 113 228 113 290 q 147 83 113 132 q 243 33 182 33 m 596 394 q 780 419 703 394 q 898 489 857 443 q 939 596 939 535 q 913 672 939 642 q 833 701 886 701 q 718 663 774 701 q 621 556 663 625 q 558 394 579 488 l 596 394 z "},"ç":{"ha":540,"x_min":63,"x_max":560,"o":"m 289 -14 q 165 17 217 -14 q 88 106 114 49 q 63 246 63 164 q 77 390 63 318 q 120 527 92 463 q 192 642 149 592 q 291 720 235 692 q 417 749 347 749 q 494 742 457 749 q 560 721 532 735 l 543 674 q 483 694 517 688 q 417 701 449 701 q 291 663 347 701 q 196 559 235 624 q 136 414 157 494 q 115 249 115 333 q 135 135 115 183 q 196 60 156 86 q 294 33 236 33 q 370 43 335 33 q 440 69 406 53 l 440 21 q 375 -3 413 7 q 289 -14 338 -14 m 147 -333 q 103 -331 122 -333 q 69 -325 85 -328 l 69 -283 q 102 -290 83 -287 q 143 -292 121 -292 q 204 -281 175 -292 q 251 -247 233 -269 q 269 -192 269 -225 q 241 -137 269 -156 q 157 -115 213 -118 l 226 0 l 269 0 l 218 -87 q 290 -120 263 -94 q 318 -190 318 -146 q 294 -266 318 -233 q 233 -316 271 -299 q 147 -333 194 -333 z "},"è":{"ha":606,"x_min":65,"x_max":568,"o":"m 289 -14 q 176 13 226 -14 q 95 98 125 40 q 65 244 65 156 q 92 438 65 347 q 165 599 118 529 q 275 709 213 669 q 410 749 338 749 q 525 709 482 749 q 568 599 568 669 q 540 492 568 539 q 458 413 511 446 q 328 364 404 381 q 157 347 251 347 l 126 347 q 122 301 124 326 q 119 247 119 275 q 167 88 119 142 q 300 33 214 33 q 390 47 349 33 q 465 78 431 61 l 465 28 q 388 -1 433 11 q 289 -14 343 -14 m 172 394 q 356 419 279 394 q 474 489 433 443 q 515 596 515 535 q 488 672 515 643 q 404 701 460 701 q 294 663 349 701 q 197 556 239 625 q 135 394 154 488 l 172 394 m 426 842 q 381 905 407 867 q 333 982 356 943 q 299 1050 311 1021 l 299 1063 l 353 1063 q 385 990 367 1028 q 422 918 403 953 q 457 857 440 883 l 457 842 l 426 842 z "},"é":{"ha":606,"x_min":65,"x_max":589,"o":"m 289 -14 q 176 13 226 -14 q 95 98 125 40 q 65 244 65 156 q 92 438 65 347 q 165 599 118 529 q 275 709 213 669 q 410 749 338 749 q 525 709 482 749 q 568 599 568 669 q 540 492 568 539 q 458 413 511 446 q 328 364 404 381 q 157 347 251 347 l 126 347 q 122 301 124 326 q 119 247 119 275 q 167 88 119 142 q 300 33 214 33 q 390 47 349 33 q 465 78 431 61 l 465 28 q 388 -1 433 11 q 289 -14 343 -14 m 172 394 q 356 419 279 394 q 474 489 433 443 q 515 596 515 535 q 488 672 515 643 q 404 701 460 701 q 294 663 349 701 q 197 556 239 625 q 135 394 154 488 l 172 394 m 350 851 q 416 919 382 881 q 480 995 450 957 q 528 1063 510 1033 l 589 1063 l 589 1051 q 549 1001 574 1029 q 497 944 525 974 q 440 888 468 915 q 385 840 411 861 l 351 840 l 350 851 z "},"ê":{"ha":606,"x_min":65,"x_max":569,"o":"m 289 -14 q 176 13 226 -14 q 95 98 125 40 q 65 244 65 156 q 92 438 65 347 q 165 599 118 529 q 275 709 213 669 q 410 749 338 749 q 525 709 482 749 q 568 599 568 669 q 540 492 568 539 q 458 413 511 446 q 328 364 404 381 q 157 347 251 347 l 126 347 q 122 301 124 326 q 119 247 119 275 q 167 88 119 142 q 300 33 214 33 q 390 47 349 33 q 465 78 431 61 l 465 28 q 388 -1 433 11 q 289 -14 343 -14 m 172 394 q 356 419 279 394 q 474 489 433 443 q 515 596 515 535 q 488 672 515 643 q 404 701 460 701 q 294 663 349 701 q 197 556 239 625 q 135 394 154 488 l 172 394 m 242 853 q 306 917 271 881 q 372 992 340 954 q 426 1061 404 1031 l 472 1061 q 497 994 481 1033 q 533 917 514 956 q 569 853 553 879 l 567 842 l 536 842 q 502 892 519 865 q 469 948 485 919 q 440 1004 454 976 q 363 922 406 965 q 276 842 319 878 l 240 842 l 242 853 z "},"ë":{"ha":606,"x_min":65,"x_max":574,"o":"m 289 -14 q 176 13 226 -14 q 95 98 125 40 q 65 244 65 156 q 92 438 65 347 q 165 599 118 529 q 275 709 213 669 q 410 749 338 749 q 525 709 482 749 q 568 599 568 669 q 540 492 568 539 q 458 413 511 446 q 328 364 404 381 q 157 347 251 347 l 126 347 q 122 301 124 326 q 119 247 119 275 q 167 88 119 142 q 300 33 214 33 q 390 47 349 33 q 465 78 431 61 l 465 28 q 388 -1 433 11 q 289 -14 343 -14 m 172 394 q 356 419 279 394 q 474 489 433 443 q 515 596 515 535 q 488 672 515 643 q 404 701 460 701 q 294 663 349 701 q 197 556 239 625 q 135 394 154 488 l 172 394 m 528 894 q 504 903 513 894 q 496 929 496 913 q 507 971 496 950 q 542 992 518 992 q 566 983 558 992 q 574 957 574 974 q 563 915 574 935 q 528 894 551 894 m 306 894 q 283 903 290 894 q 275 929 275 913 q 286 971 275 950 q 321 992 297 992 q 338 988 331 992 q 349 976 346 983 q 351 957 351 968 q 340 915 351 935 q 306 894 329 894 z "},"ì":{"ha":274,"x_min":29,"x_max":279,"o":"m 29 0 l 186 735 l 238 735 l 82 0 l 29 0 m 249 843 q 203 906 229 868 q 156 983 178 944 q 121 1051 133 1022 l 121 1064 l 175 1064 q 207 992 189 1029 q 244 919 225 954 q 279 858 263 885 l 279 843 l 249 843 z "},"í":{"ha":274,"x_min":29,"x_max":410,"o":"m 29 0 l 186 735 l 238 735 l 82 0 l 29 0 m 171 851 q 237 919 203 881 q 301 995 271 957 q 349 1063 331 1033 l 410 1063 l 410 1051 q 370 1001 394 1029 q 317 944 346 974 q 260 888 289 915 q 206 840 232 861 l 172 840 l 171 851 z "},"î":{"ha":274,"x_min":29,"x_max":392,"o":"m 29 0 l 186 735 l 238 735 l 82 0 l 29 0 m 64 853 q 128 917 93 881 q 194 992 163 954 q 249 1061 226 1031 l 294 1061 q 319 994 303 1033 q 356 917 336 956 q 392 853 375 879 l 389 842 l 358 842 q 324 892 342 865 q 292 948 307 919 q 263 1004 276 976 q 185 922 228 965 q 99 842 142 878 l 63 842 l 64 853 z "},"ï":{"ha":274,"x_min":29,"x_max":393,"o":"m 29 0 l 186 735 l 238 735 l 82 0 l 29 0 m 346 894 q 322 903 331 894 q 314 929 314 913 q 325 971 314 950 q 360 992 336 992 q 384 983 376 992 q 392 957 392 974 q 381 915 392 935 q 346 894 369 894 m 124 894 q 101 903 108 894 q 93 929 93 913 q 104 971 93 950 q 139 992 115 992 q 156 988 149 992 q 167 976 164 983 q 169 957 169 968 q 158 915 169 935 q 124 894 147 894 z "},"ð":{"ha":675,"x_min":47,"x_max":649,"o":"m 261 -14 q 147 17 194 -14 q 73 103 99 47 q 47 232 47 158 q 68 381 47 307 q 129 514 89 454 q 228 610 169 574 q 365 647 288 647 q 492 603 444 647 q 554 501 539 560 l 557 501 q 528 717 557 613 q 443 899 500 821 l 265 799 l 246 838 l 415 931 q 369 978 397 954 q 306 1024 340 1003 l 336 1063 q 401 1013 369 1040 q 460 956 432 986 l 628 1049 l 649 1013 l 486 922 q 548 810 521 874 q 590 672 575 747 q 606 511 606 597 q 593 368 606 442 q 556 226 581 294 q 490 103 531 157 q 392 17 449 49 q 261 -14 336 -14 m 264 33 q 353 54 311 33 q 428 112 394 75 q 486 196 463 149 q 522 297 510 243 q 535 408 535 351 q 526 475 535 442 q 497 537 517 508 q 444 582 476 565 q 364 599 411 599 q 251 567 300 599 q 168 483 201 536 q 117 365 135 431 q 100 233 100 300 q 145 87 100 140 q 264 33 190 33 z "},"ñ":{"ha":679,"x_min":29,"x_max":661,"o":"m 29 0 l 185 735 l 229 735 l 201 581 l 204 581 q 260 660 225 622 q 344 724 296 699 q 450 749 392 749 q 538 731 501 749 q 593 678 574 713 q 613 590 613 643 q 607 531 613 565 q 594 467 601 497 l 496 0 l 442 0 l 543 474 q 553 532 549 504 q 558 583 558 560 q 526 672 558 643 q 439 700 494 700 q 321 660 376 700 q 224 547 265 619 q 164 379 183 475 l 83 0 l 29 0 m 222 853 q 251 931 233 900 q 294 978 268 963 q 354 994 319 994 q 408 980 385 994 q 452 947 432 965 q 491 914 472 928 q 531 900 510 900 q 581 919 560 900 q 618 994 603 939 l 661 994 q 633 917 650 949 q 590 869 615 885 q 528 853 564 853 q 476 867 499 853 q 435 899 454 881 q 395 933 415 918 q 351 947 375 947 q 301 926 322 947 q 265 853 281 906 l 222 853 z "},"ò":{"ha":685,"x_min":61,"x_max":624,"o":"m 279 -14 q 160 17 208 -14 q 86 105 111 47 q 61 242 61 163 q 76 385 61 313 q 119 524 90 458 q 191 640 149 589 q 288 719 233 690 q 408 749 343 749 q 526 717 478 749 q 599 629 574 686 q 624 494 624 572 q 609 349 624 421 q 567 211 594 276 q 497 95 539 146 q 401 15 456 44 q 279 -14 346 -14 m 283 35 q 383 60 338 35 q 463 132 428 86 q 521 238 497 178 q 557 363 544 297 q 569 497 569 429 q 551 603 569 557 q 497 674 533 649 q 406 700 461 700 q 308 674 353 700 q 227 603 263 649 q 167 497 192 557 q 128 372 142 438 q 115 240 115 307 q 158 89 115 143 q 283 35 200 35 m 447 842 q 402 905 428 867 q 354 982 376 943 q 319 1050 332 1021 l 319 1063 l 374 1063 q 406 990 388 1028 q 442 918 424 953 q 478 857 461 883 l 478 842 l 447 842 z "},"ó":{"ha":685,"x_min":61,"x_max":624,"o":"m 279 -14 q 160 17 208 -14 q 86 105 111 47 q 61 242 61 163 q 76 385 61 313 q 119 524 90 458 q 191 640 149 589 q 288 719 233 690 q 408 749 343 749 q 526 717 478 749 q 599 629 574 686 q 624 494 624 572 q 609 349 624 421 q 567 211 594 276 q 497 95 539 146 q 401 15 456 44 q 279 -14 346 -14 m 283 35 q 383 60 338 35 q 463 132 428 86 q 521 238 497 178 q 557 363 544 297 q 569 497 569 429 q 551 603 569 557 q 497 674 533 649 q 406 700 461 700 q 308 674 353 700 q 227 603 263 649 q 167 497 192 557 q 128 372 142 438 q 115 240 115 307 q 158 89 115 143 q 283 35 200 35 m 375 851 q 441 919 407 881 q 505 995 475 957 q 553 1063 535 1033 l 614 1063 l 614 1051 q 574 1001 599 1029 q 522 944 550 974 q 465 888 493 915 q 410 840 436 861 l 376 840 l 375 851 z "},"ô":{"ha":685,"x_min":61,"x_max":624,"o":"m 279 -14 q 160 17 208 -14 q 86 105 111 47 q 61 242 61 163 q 76 385 61 313 q 119 524 90 458 q 191 640 149 589 q 288 719 233 690 q 408 749 343 749 q 526 717 478 749 q 599 629 574 686 q 624 494 624 572 q 609 349 624 421 q 567 211 594 276 q 497 95 539 146 q 401 15 456 44 q 279 -14 346 -14 m 283 35 q 383 60 338 35 q 463 132 428 86 q 521 238 497 178 q 557 363 544 297 q 569 497 569 429 q 551 603 569 557 q 497 674 533 649 q 406 700 461 700 q 308 674 353 700 q 227 603 263 649 q 167 497 192 557 q 128 372 142 438 q 115 240 115 307 q 158 89 115 143 q 283 35 200 35 m 257 853 q 321 917 286 881 q 388 992 356 954 q 442 1061 419 1031 l 488 1061 q 513 994 496 1033 q 549 917 529 956 q 585 853 568 879 l 582 842 l 551 842 q 517 892 535 865 q 485 948 500 919 q 456 1004 469 976 q 378 922 421 965 q 292 842 335 878 l 256 842 l 257 853 z "},"õ":{"ha":685,"x_min":61,"x_max":658,"o":"m 279 -14 q 160 17 208 -14 q 86 105 111 47 q 61 242 61 163 q 76 385 61 313 q 119 524 90 458 q 191 640 149 589 q 288 719 233 690 q 408 749 343 749 q 526 717 478 749 q 599 629 574 686 q 624 494 624 572 q 609 349 624 421 q 567 211 594 276 q 497 95 539 146 q 401 15 456 44 q 279 -14 346 -14 m 283 35 q 383 60 338 35 q 463 132 428 86 q 521 238 497 178 q 557 363 544 297 q 569 497 569 429 q 551 603 569 557 q 497 674 533 649 q 406 700 461 700 q 308 674 353 700 q 227 603 263 649 q 167 497 192 557 q 128 372 142 438 q 115 240 115 307 q 158 89 115 143 q 283 35 200 35 m 221 853 q 249 931 232 900 q 292 978 267 963 q 353 994 318 994 q 407 980 383 994 q 451 947 431 965 q 490 914 471 928 q 529 900 508 900 q 580 919 558 900 q 617 994 601 939 l 660 994 q 631 917 649 949 q 588 869 614 885 q 526 853 563 853 q 475 867 497 853 q 433 899 453 881 q 394 933 414 918 q 350 947 374 947 q 300 926 321 947 q 264 853 279 906 l 221 853 z "},"ö":{"ha":685,"x_min":61,"x_max":624,"o":"m 279 -14 q 160 17 208 -14 q 86 105 111 47 q 61 242 61 163 q 76 385 61 313 q 119 524 90 458 q 191 640 149 589 q 288 719 233 690 q 408 749 343 749 q 526 717 478 749 q 599 629 574 686 q 624 494 624 572 q 609 349 624 421 q 567 211 594 276 q 497 95 539 146 q 401 15 456 44 q 279 -14 346 -14 m 283 35 q 383 60 338 35 q 463 132 428 86 q 521 238 497 178 q 557 363 544 297 q 569 497 569 429 q 551 603 569 557 q 497 674 533 649 q 406 700 461 700 q 308 674 353 700 q 227 603 263 649 q 167 497 192 557 q 128 372 142 438 q 115 240 115 307 q 158 89 115 143 q 283 35 200 35 m 550 894 q 526 903 535 894 q 518 929 518 913 q 529 971 518 950 q 564 992 540 992 q 588 983 581 992 q 596 957 596 974 q 585 915 596 935 q 550 894 574 894 m 328 894 q 305 903 313 894 q 297 929 297 913 q 308 971 297 950 q 343 992 319 992 q 360 988 353 992 q 371 976 368 983 q 374 957 374 968 q 363 915 374 935 q 328 894 351 894 z "},"÷":{"ha":708,"x_min":81,"x_max":664,"o":"m 81 467 l 81 514 l 664 514 l 664 467 l 81 467 m 372 190 q 339 206 349 190 q 329 244 329 221 q 339 283 329 268 q 372 297 349 297 q 406 283 397 297 q 415 244 415 268 q 406 206 415 221 q 372 190 397 190 m 372 682 q 339 697 349 682 q 329 736 329 711 q 339 774 329 760 q 372 789 349 789 q 406 774 397 789 q 415 735 415 760 q 406 697 415 711 q 372 682 397 682 z "},"ø":{"ha":686,"x_min":1,"x_max":683,"o":"m 36 -58 l 1 -31 l 96 88 q 70 156 79 118 q 61 242 61 194 q 76 385 61 313 q 119 522 90 457 q 191 639 149 588 q 288 719 233 690 q 408 749 343 749 q 498 731 460 749 q 564 683 536 714 l 649 789 l 683 763 l 590 646 q 615 578 607 617 q 624 496 624 539 q 609 351 624 424 q 567 213 594 279 q 498 97 539 147 q 402 16 457 46 q 279 -14 347 -14 q 189 3 228 -14 q 124 50 150 21 l 36 -58 m 283 33 q 383 60 338 33 q 463 131 428 86 q 522 235 497 176 q 558 359 546 293 q 569 492 569 425 q 566 549 569 522 q 554 596 563 575 l 154 92 q 209 49 176 64 q 283 33 242 33 m 532 642 q 481 685 513 669 q 406 701 449 701 q 308 675 353 701 q 227 603 263 649 q 167 500 192 558 q 128 376 142 442 q 114 244 114 310 q 119 184 114 213 q 132 135 124 156 l 532 642 z "},"ù":{"ha":679,"x_min":61,"x_max":643,"o":"m 224 -14 q 137 4 174 -14 q 81 58 100 22 q 61 144 61 93 q 67 203 61 169 q 78 267 72 236 l 178 735 l 231 735 l 129 260 q 119 203 124 231 q 114 151 114 175 q 146 64 114 93 q 235 35 178 35 q 353 75 299 35 q 449 188 408 115 q 510 356 490 260 l 590 735 l 643 735 l 488 0 l 444 0 l 472 154 l 468 154 q 413 75 449 114 q 329 11 376 36 q 224 -14 282 -14 m 456 842 q 410 905 436 867 q 363 982 385 943 q 328 1050 340 1021 l 328 1063 l 382 1063 q 414 990 396 1028 q 451 918 432 953 q 486 857 469 883 l 486 842 l 456 842 z "},"ú":{"ha":679,"x_min":61,"x_max":643,"o":"m 224 -14 q 137 4 174 -14 q 81 58 100 22 q 61 144 61 93 q 67 203 61 169 q 78 267 72 236 l 178 735 l 231 735 l 129 260 q 119 203 124 231 q 114 151 114 175 q 146 64 114 93 q 235 35 178 35 q 353 75 299 35 q 449 188 408 115 q 510 356 490 260 l 590 735 l 643 735 l 488 0 l 444 0 l 472 154 l 468 154 q 413 75 449 114 q 329 11 376 36 q 224 -14 282 -14 m 375 851 q 441 919 407 881 q 505 995 475 957 q 553 1063 535 1033 l 614 1063 l 614 1051 q 574 1001 599 1029 q 522 944 550 974 q 465 888 493 915 q 410 840 436 861 l 376 840 l 375 851 z "},"û":{"ha":679,"x_min":61,"x_max":643,"o":"m 224 -14 q 137 4 174 -14 q 81 58 100 22 q 61 144 61 93 q 67 203 61 169 q 78 267 72 236 l 178 735 l 231 735 l 129 260 q 119 203 124 231 q 114 151 114 175 q 146 64 114 93 q 235 35 178 35 q 353 75 299 35 q 449 188 408 115 q 510 356 490 260 l 590 735 l 643 735 l 488 0 l 444 0 l 472 154 l 468 154 q 413 75 449 114 q 329 11 376 36 q 224 -14 282 -14 m 261 853 q 325 917 290 881 q 392 992 360 954 q 446 1061 424 1031 l 492 1061 q 517 994 500 1033 q 553 917 533 956 q 589 853 572 879 l 586 842 l 556 842 q 522 892 539 865 q 489 948 504 919 q 460 1004 474 976 q 382 922 425 965 q 296 842 339 878 l 260 842 l 261 853 z "},"ü":{"ha":679,"x_min":61,"x_max":643,"o":"m 224 -14 q 137 4 174 -14 q 81 58 100 22 q 61 144 61 93 q 67 203 61 169 q 78 267 72 236 l 178 735 l 231 735 l 129 260 q 119 203 124 231 q 114 151 114 175 q 146 64 114 93 q 235 35 178 35 q 353 75 299 35 q 449 188 408 115 q 510 356 490 260 l 590 735 l 643 735 l 488 0 l 444 0 l 472 154 l 468 154 q 413 75 449 114 q 329 11 376 36 q 224 -14 282 -14 m 543 894 q 519 903 528 894 q 511 929 511 913 q 522 971 511 950 q 557 992 533 992 q 581 983 574 992 q 589 957 589 974 q 578 915 589 935 q 543 894 567 894 m 321 894 q 298 903 306 894 q 290 929 290 913 q 301 971 290 950 q 336 992 313 992 q 353 988 346 992 q 364 976 361 983 q 367 957 367 968 q 356 915 367 935 q 321 894 344 894 z "},"ý":{"ha":525,"x_min":-153,"x_max":594,"o":"m -78 -336 q -122 -333 -104 -336 q -153 -322 -140 -329 l -150 -275 q -118 -285 -135 -281 q -78 -289 -101 -289 q 8 -253 -29 -289 q 85 -142 44 -218 l 163 8 l 83 735 l 136 735 l 185 251 q 192 185 189 217 q 198 124 196 153 q 200 74 200 96 l 203 74 q 226 123 213 96 q 254 181 239 150 q 286 243 269 213 l 538 735 l 594 735 l 132 -158 q 72 -257 103 -217 q 5 -317 40 -297 q -78 -336 -31 -336 m 288 851 q 353 919 319 881 q 417 995 388 957 q 465 1063 447 1033 l 526 1063 l 526 1051 q 487 1001 511 1029 q 434 944 463 974 q 377 888 406 915 q 322 840 349 861 l 289 840 l 288 851 z "},"þ":{"ha":696,"x_min":-37,"x_max":636,"o":"m -37 -322 l 254 1056 l 306 1056 l 238 733 q 219 654 229 696 q 200 575 210 613 l 204 575 q 265 660 229 621 q 349 724 301 700 q 450 749 396 749 q 587 685 538 749 q 636 508 636 621 q 622 367 636 440 q 581 226 608 294 q 511 104 553 158 q 415 18 469 50 q 290 -14 360 -14 q 199 8 236 -14 q 140 63 161 29 q 111 136 119 97 l 108 136 q 94 56 103 100 q 78 -25 86 13 l 15 -322 l -37 -322 m 289 33 q 394 63 347 33 q 475 141 440 92 q 534 252 510 190 q 570 380 558 314 q 582 508 582 446 q 544 651 582 601 q 438 701 506 701 q 323 660 378 701 q 226 547 268 618 q 164 388 185 476 q 149 319 154 353 q 142 258 144 286 q 139 208 139 229 q 180 78 139 124 q 289 33 221 33 z "},"ÿ":{"ha":525,"x_min":-153,"x_max":594,"o":"m -78 -336 q -122 -333 -104 -336 q -153 -322 -140 -329 l -150 -275 q -118 -285 -135 -281 q -78 -289 -101 -289 q 8 -253 -29 -289 q 85 -142 44 -218 l 163 8 l 83 735 l 136 735 l 185 251 q 192 185 189 217 q 198 124 196 153 q 200 74 200 96 l 203 74 q 226 123 213 96 q 254 181 239 150 q 286 243 269 213 l 538 735 l 594 735 l 132 -158 q 72 -257 103 -217 q 5 -317 40 -297 q -78 -336 -31 -336 m 451 894 q 428 903 436 894 q 419 929 419 913 q 431 971 419 950 q 465 992 442 992 q 490 983 482 992 q 497 957 497 974 q 486 915 497 935 q 451 894 475 894 m 229 894 q 206 903 214 894 q 199 929 199 913 q 210 971 199 950 q 244 992 221 992 q 262 988 254 992 q 272 976 269 983 q 275 957 275 968 q 264 915 275 935 q 229 894 253 894 z "},"Ā":{"ha":658,"x_min":-79,"x_max":644,"o":"m -79 0 l 433 994 l 490 994 l 581 0 l 528 0 l 494 368 l 168 368 l -21 0 l -79 0 m 192 418 l 490 418 l 458 800 q 453 865 456 831 q 450 929 451 900 l 447 929 q 418 867 435 900 q 385 799 401 833 l 192 418 m 306 1106 l 315 1153 l 644 1153 l 635 1106 l 306 1106 z "},"ā":{"ha":682,"x_min":58,"x_max":650,"o":"m 238 -14 q 140 15 179 -14 q 79 98 100 44 q 58 226 58 151 q 73 367 58 294 q 115 508 88 440 q 184 631 143 576 q 279 717 225 685 q 401 749 333 749 q 488 726 454 749 q 542 668 522 703 q 568 594 561 633 l 572 594 l 607 735 l 650 735 l 494 0 l 451 0 l 481 160 l 478 160 q 417 78 453 118 q 337 12 382 38 q 238 -14 292 -14 m 249 33 q 360 76 307 33 q 455 191 414 119 q 515 349 496 263 q 534 444 528 400 q 540 526 540 489 q 503 654 540 608 q 403 700 467 700 q 301 672 347 700 q 220 594 256 643 q 161 483 185 544 q 125 356 138 422 q 113 228 113 289 q 148 83 113 133 q 249 33 183 33 m 272 850 l 282 897 l 611 897 l 601 850 l 272 850 z "},"Ă":{"ha":658,"x_min":-79,"x_max":654,"o":"m -79 0 l 433 994 l 490 994 l 581 0 l 528 0 l 494 368 l 168 368 l -21 0 l -79 0 m 192 418 l 490 418 l 458 800 q 453 865 456 831 q 450 929 451 900 l 447 929 q 418 867 435 900 q 385 799 401 833 l 192 418 m 475 1099 q 398 1114 429 1099 q 351 1159 367 1129 q 335 1228 335 1189 q 335 1244 335 1236 q 336 1256 335 1251 l 376 1256 q 383 1200 375 1225 q 413 1160 390 1175 q 476 1144 436 1144 q 567 1173 536 1144 q 613 1256 599 1201 l 656 1256 q 594 1138 638 1178 q 475 1099 550 1099 z "},"ă":{"ha":682,"x_min":58,"x_max":650,"o":"m 238 -14 q 140 15 179 -14 q 79 98 100 44 q 58 226 58 151 q 73 367 58 294 q 115 508 88 440 q 184 631 143 576 q 279 717 225 685 q 401 749 333 749 q 488 726 454 749 q 542 668 522 703 q 568 594 561 633 l 572 594 l 607 735 l 650 735 l 494 0 l 451 0 l 481 160 l 478 160 q 417 78 453 118 q 337 12 382 38 q 238 -14 292 -14 m 249 33 q 360 76 307 33 q 455 191 414 119 q 515 349 496 263 q 534 444 528 400 q 540 526 540 489 q 503 654 540 608 q 403 700 467 700 q 301 672 347 700 q 220 594 256 643 q 161 483 185 544 q 125 356 138 422 q 113 228 113 289 q 148 83 113 133 q 249 33 183 33 m 443 843 q 366 858 397 843 q 319 903 335 874 q 303 972 303 933 q 303 988 303 981 q 304 1000 303 996 l 344 1000 q 351 944 343 969 q 381 904 358 919 q 444 889 404 889 q 535 917 504 889 q 581 1000 567 946 l 624 1000 q 562 883 606 922 q 443 843 518 843 z "},"Ą":{"ha":658,"x_min":-79,"x_max":581,"o":"m -79 0 l 433 994 l 490 994 l 581 0 l 528 0 l 494 368 l 168 368 l -21 0 l -79 0 m 192 418 l 490 418 l 458 800 q 453 865 456 831 q 450 929 451 900 l 447 929 q 418 867 435 900 q 385 799 401 833 l 192 418 m 474 -301 q 401 -276 429 -301 q 374 -206 374 -250 q 394 -126 374 -161 q 451 -57 415 -90 q 535 8 488 -24 l 572 0 q 499 -60 533 -29 q 444 -126 465 -92 q 424 -199 424 -160 q 439 -242 424 -228 q 483 -257 454 -257 q 515 -254 500 -257 q 540 -249 529 -251 l 538 -290 q 509 -298 525 -294 q 474 -301 493 -301 z "},"ą":{"ha":682,"x_min":58,"x_max":650,"o":"m 238 -14 q 140 15 179 -14 q 79 98 100 44 q 58 226 58 151 q 73 367 58 294 q 115 508 88 440 q 184 631 143 576 q 279 717 225 685 q 401 749 333 749 q 488 726 454 749 q 542 668 522 703 q 568 594 561 633 l 572 594 l 607 735 l 650 735 l 494 0 l 451 0 l 481 160 l 478 160 q 417 78 453 118 q 337 12 382 38 q 238 -14 292 -14 m 249 33 q 360 76 307 33 q 455 191 414 119 q 515 349 496 263 q 534 444 528 400 q 540 526 540 489 q 503 654 540 608 q 403 700 467 700 q 301 672 347 700 q 220 594 256 643 q 161 483 185 544 q 125 356 138 422 q 113 228 113 289 q 148 83 113 133 q 249 33 183 33 m 394 -301 q 322 -276 350 -301 q 294 -206 294 -250 q 315 -126 294 -161 q 372 -57 336 -90 q 456 8 408 -24 l 493 0 q 420 -60 454 -29 q 365 -126 386 -92 q 344 -199 344 -160 q 360 -242 344 -228 q 404 -257 375 -257 q 435 -254 421 -257 q 461 -249 450 -251 l 458 -290 q 430 -298 446 -294 q 394 -301 414 -301 z "},"Ć":{"ha":699,"x_min":90,"x_max":774,"o":"m 382 -14 q 224 28 289 -14 q 124 152 158 71 q 90 349 90 233 q 112 540 90 444 q 176 718 133 635 q 278 867 218 801 q 415 969 338 932 q 583 1006 492 1006 q 687 994 640 1006 q 774 960 733 982 l 747 913 q 671 947 713 936 q 582 957 629 957 q 434 922 501 957 q 313 828 367 888 q 222 692 260 769 q 165 526 185 614 q 146 351 146 439 q 209 117 146 199 q 388 35 272 35 q 486 44 439 35 q 576 69 533 54 l 576 21 q 487 -4 535 6 q 382 -14 439 -14 m 486 1108 q 552 1176 518 1138 q 616 1252 586 1214 q 664 1319 646 1290 l 725 1319 l 725 1308 q 685 1258 710 1286 q 633 1201 661 1231 q 576 1145 604 1172 q 521 1097 547 1118 l 488 1097 l 486 1108 z "},"ć":{"ha":540,"x_min":63,"x_max":568,"o":"m 289 -14 q 165 17 217 -14 q 88 106 114 49 q 63 246 63 164 q 77 390 63 318 q 120 527 92 463 q 192 642 149 592 q 291 720 235 692 q 417 749 347 749 q 494 742 457 749 q 560 721 532 735 l 543 674 q 483 694 517 688 q 417 701 449 701 q 291 663 347 701 q 196 559 235 624 q 136 414 157 494 q 115 249 115 333 q 135 135 115 183 q 196 60 156 86 q 294 33 236 33 q 370 43 335 33 q 440 69 406 53 l 440 21 q 375 -3 413 7 q 289 -14 338 -14 m 329 851 q 395 919 361 881 q 459 995 429 957 q 507 1063 489 1033 l 568 1063 l 568 1051 q 528 1001 553 1029 q 476 944 504 974 q 419 888 447 915 q 364 840 390 861 l 331 840 l 329 851 z "},"Ĉ":{"ha":699,"x_min":90,"x_max":774,"o":"m 382 -14 q 224 28 289 -14 q 124 152 158 71 q 90 349 90 233 q 112 540 90 444 q 176 718 133 635 q 278 867 218 801 q 415 969 338 932 q 583 1006 492 1006 q 687 994 640 1006 q 774 960 733 982 l 747 913 q 671 947 713 936 q 582 957 629 957 q 434 922 501 957 q 313 828 367 888 q 222 692 260 769 q 165 526 185 614 q 146 351 146 439 q 209 117 146 199 q 388 35 272 35 q 486 44 439 35 q 576 69 533 54 l 576 21 q 487 -4 535 6 q 382 -14 439 -14 m 410 1099 q 474 1163 439 1126 q 540 1238 508 1200 q 594 1307 572 1276 l 640 1307 q 665 1240 649 1279 q 701 1163 682 1201 q 738 1099 721 1125 l 735 1088 l 704 1088 q 670 1138 688 1111 q 638 1194 653 1165 q 608 1250 622 1222 q 531 1167 574 1211 q 444 1088 488 1124 l 408 1088 l 410 1099 z "},"ĉ":{"ha":540,"x_min":63,"x_max":561,"o":"m 289 -14 q 165 17 217 -14 q 88 106 114 49 q 63 246 63 164 q 77 390 63 318 q 120 527 92 463 q 192 642 149 592 q 291 720 235 692 q 417 749 347 749 q 494 742 457 749 q 560 721 532 735 l 543 674 q 483 694 517 688 q 417 701 449 701 q 291 663 347 701 q 196 559 235 624 q 136 414 157 494 q 115 249 115 333 q 135 135 115 183 q 196 60 156 86 q 294 33 236 33 q 370 43 335 33 q 440 69 406 53 l 440 21 q 375 -3 413 7 q 289 -14 338 -14 m 233 853 q 297 917 263 881 q 364 992 332 954 q 418 1061 396 1031 l 464 1061 q 489 994 472 1033 q 525 917 506 956 q 561 853 544 879 l 558 842 l 528 842 q 494 892 511 865 q 461 948 476 919 q 432 1004 446 976 q 354 922 397 965 q 268 842 311 878 l 232 842 l 233 853 z "},"Ċ":{"ha":699,"x_min":90,"x_max":774,"o":"m 382 -14 q 224 28 289 -14 q 124 152 158 71 q 90 349 90 233 q 112 540 90 444 q 176 718 133 635 q 278 867 218 801 q 415 969 338 932 q 583 1006 492 1006 q 687 994 640 1006 q 774 960 733 982 l 747 913 q 671 947 713 936 q 582 957 629 957 q 434 922 501 957 q 313 828 367 888 q 222 692 260 769 q 165 526 185 614 q 146 351 146 439 q 209 117 146 199 q 388 35 272 35 q 486 44 439 35 q 576 69 533 54 l 576 21 q 487 -4 535 6 q 382 -14 439 -14 m 613 1147 q 586 1158 596 1147 q 576 1186 576 1168 q 588 1229 576 1208 q 625 1250 600 1250 q 645 1246 638 1250 q 656 1233 653 1242 q 660 1213 660 1225 q 647 1169 660 1190 q 613 1147 635 1147 z "},"ċ":{"ha":540,"x_min":63,"x_max":560,"o":"m 289 -14 q 165 17 217 -14 q 88 106 114 49 q 63 246 63 164 q 77 390 63 318 q 120 527 92 463 q 192 642 149 592 q 291 720 235 692 q 417 749 347 749 q 494 742 457 749 q 560 721 532 735 l 543 674 q 483 694 517 688 q 417 701 449 701 q 291 663 347 701 q 196 559 235 624 q 136 414 157 494 q 115 249 115 333 q 135 135 115 183 q 196 60 156 86 q 294 33 236 33 q 370 43 335 33 q 440 69 406 53 l 440 21 q 375 -3 413 7 q 289 -14 338 -14 m 435 899 q 408 909 418 899 q 399 938 399 919 q 410 981 399 960 q 447 1001 422 1001 q 467 997 460 1001 q 478 985 475 993 q 482 964 482 976 q 469 920 482 942 q 435 899 457 899 z "},"Č":{"ha":699,"x_min":90,"x_max":789,"o":"m 382 -14 q 224 28 289 -14 q 124 152 158 71 q 90 349 90 233 q 112 540 90 444 q 176 718 133 635 q 278 867 218 801 q 415 969 338 932 q 583 1006 492 1006 q 687 994 640 1006 q 774 960 733 982 l 747 913 q 671 947 713 936 q 582 957 629 957 q 434 922 501 957 q 313 828 367 888 q 222 692 260 769 q 165 526 185 614 q 146 351 146 439 q 209 117 146 199 q 388 35 272 35 q 486 44 439 35 q 576 69 533 54 l 576 21 q 487 -4 535 6 q 382 -14 439 -14 m 557 1088 q 532 1156 549 1117 q 496 1233 515 1194 q 460 1297 476 1272 l 463 1307 l 493 1307 q 527 1258 510 1286 q 560 1201 544 1231 q 589 1144 576 1172 q 667 1228 624 1185 q 754 1307 711 1272 l 789 1307 l 788 1297 q 726 1233 761 1271 q 658 1158 690 1196 q 604 1088 625 1119 l 557 1088 z "},"č":{"ha":540,"x_min":63,"x_max":625,"o":"m 289 -14 q 165 17 217 -14 q 88 106 114 49 q 63 246 63 164 q 77 390 63 318 q 120 527 92 463 q 192 642 149 592 q 291 720 235 692 q 417 749 347 749 q 494 742 457 749 q 560 721 532 735 l 543 674 q 483 694 517 688 q 417 701 449 701 q 291 663 347 701 q 196 559 235 624 q 136 414 157 494 q 115 249 115 333 q 135 135 115 183 q 196 60 156 86 q 294 33 236 33 q 370 43 335 33 q 440 69 406 53 l 440 21 q 375 -3 413 7 q 289 -14 338 -14 m 393 842 q 368 910 385 871 q 332 988 351 949 q 296 1051 313 1026 l 299 1061 l 329 1061 q 363 1013 346 1040 q 397 956 381 985 q 425 899 413 926 q 503 983 460 939 q 590 1061 547 1026 l 625 1061 l 624 1051 q 562 988 597 1025 q 494 912 526 950 q 440 842 461 874 l 393 842 z "},"Ď":{"ha":808,"x_min":43,"x_max":765,"o":"m 43 0 l 253 992 l 428 992 q 676 904 588 992 q 765 633 765 817 q 745 454 765 544 q 683 282 725 364 q 577 137 642 200 q 424 37 513 74 q 222 0 336 0 l 43 0 m 225 49 q 401 83 324 49 q 538 174 479 117 q 634 307 596 232 q 691 465 672 382 q 710 633 710 549 q 633 870 710 797 q 415 943 557 943 l 297 943 l 107 49 l 225 49 m 501 1088 q 476 1156 493 1117 q 440 1233 460 1194 q 404 1297 421 1272 l 407 1307 l 438 1307 q 472 1258 454 1286 q 505 1201 489 1231 q 533 1144 521 1172 q 612 1228 568 1185 q 699 1307 656 1272 l 733 1307 l 732 1297 q 670 1233 706 1271 q 602 1158 635 1196 q 549 1088 569 1119 l 501 1088 z "},"ď":{"ha":713,"x_min":56,"x_max":907,"o":"m 747 843 q 786 908 765 871 q 826 986 807 946 q 853 1056 844 1026 l 907 1056 l 907 1044 q 875 977 896 1015 q 829 901 854 939 q 779 833 804 863 l 747 833 l 747 843 m 236 -14 q 136 15 176 -14 q 76 98 96 44 q 56 226 56 151 q 69 367 56 294 q 110 508 82 440 q 179 631 138 576 q 276 717 221 685 q 400 749 332 749 q 492 727 456 749 q 551 671 529 706 q 579 599 572 636 l 582 599 q 592 656 588 626 q 603 714 597 685 q 615 771 610 743 l 675 1056 l 728 1056 l 504 0 l 461 0 l 490 163 l 488 163 q 423 76 460 117 q 340 11 386 36 q 236 -14 293 -14 m 247 33 q 328 56 289 33 q 401 118 368 79 q 463 206 435 157 q 510 311 490 256 q 542 422 531 367 q 553 526 553 478 q 512 656 553 611 q 401 700 471 700 q 298 672 344 700 q 216 594 251 643 q 157 483 181 544 q 122 355 133 421 q 110 226 110 289 q 144 83 110 132 q 247 33 179 33 z "},"Đ":{"ha":811,"x_min":43,"x_max":765,"o":"m 49 476 l 60 525 l 422 525 l 413 476 l 49 476 m 43 0 l 253 992 l 428 992 q 676 904 588 992 q 765 633 765 817 q 745 454 765 544 q 683 282 725 364 q 577 137 642 200 q 424 37 513 74 q 222 0 336 0 l 43 0 m 225 49 q 401 83 324 49 q 538 174 479 117 q 634 307 596 232 q 691 465 672 382 q 710 633 710 549 q 633 870 710 797 q 415 943 557 943 l 297 943 l 107 49 l 225 49 z "},"đ":{"ha":699,"x_min":58,"x_max":797,"o":"m 243 -14 q 144 15 186 -14 q 81 98 103 44 q 58 226 58 151 q 72 367 58 294 q 114 508 86 440 q 183 631 142 576 q 280 717 225 685 q 404 749 335 749 q 495 728 458 749 q 553 672 532 707 q 582 599 575 638 l 586 599 q 595 653 590 625 q 606 708 600 681 q 617 763 611 736 l 639 871 l 399 871 l 407 917 l 650 917 l 679 1056 l 731 1056 l 701 917 l 797 917 l 786 871 l 692 871 l 508 0 l 465 0 l 493 161 l 490 161 q 429 75 465 115 q 347 10 393 35 q 243 -14 301 -14 m 254 33 q 338 56 299 33 q 412 119 378 79 q 472 209 446 158 q 517 315 499 260 q 545 426 535 371 q 556 529 556 481 q 515 657 556 613 q 406 701 475 701 q 301 672 349 701 q 219 594 254 643 q 160 483 185 544 q 124 355 136 421 q 113 226 113 289 q 150 83 113 133 q 254 33 188 33 z "},"Ē":{"ha":642,"x_min":43,"x_max":688,"o":"m 43 0 l 253 992 l 688 992 l 676 943 l 297 943 l 213 546 l 569 546 l 560 497 l 203 497 l 107 49 l 488 49 l 476 0 l 43 0 m 322 1096 l 332 1143 l 661 1143 l 651 1096 l 322 1096 z "},"ē":{"ha":606,"x_min":65,"x_max":583,"o":"m 289 -14 q 176 13 226 -14 q 95 98 125 40 q 65 244 65 156 q 92 438 65 347 q 165 599 118 529 q 275 709 213 669 q 410 749 338 749 q 525 709 482 749 q 568 599 568 669 q 540 492 568 539 q 458 413 511 446 q 328 364 404 381 q 157 347 251 347 l 126 347 q 122 301 124 326 q 119 247 119 275 q 167 88 119 142 q 300 33 214 33 q 390 47 349 33 q 465 78 431 61 l 465 28 q 388 -1 433 11 q 289 -14 343 -14 m 172 394 q 356 419 279 394 q 474 489 433 443 q 515 596 515 535 q 488 672 515 643 q 404 701 460 701 q 294 663 349 701 q 197 556 239 625 q 135 394 154 488 l 172 394 m 243 850 l 253 897 l 582 897 l 572 850 l 243 850 z "},"Ĕ":{"ha":642,"x_min":43,"x_max":688,"o":"m 43 0 l 253 992 l 688 992 l 676 943 l 297 943 l 213 546 l 569 546 l 560 497 l 203 497 l 107 49 l 488 49 l 476 0 l 43 0 m 486 1089 q 409 1104 440 1089 q 362 1149 378 1119 q 346 1218 346 1179 q 346 1234 346 1226 q 347 1246 346 1242 l 388 1246 q 394 1190 386 1215 q 424 1150 401 1165 q 488 1135 447 1135 q 578 1163 547 1135 q 624 1246 610 1192 l 667 1246 q 605 1128 649 1168 q 486 1089 561 1089 z "},"ĕ":{"ha":606,"x_min":65,"x_max":604,"o":"m 289 -14 q 176 13 226 -14 q 95 98 125 40 q 65 244 65 156 q 92 438 65 347 q 165 599 118 529 q 275 709 213 669 q 410 749 338 749 q 525 709 482 749 q 568 599 568 669 q 540 492 568 539 q 458 413 511 446 q 328 364 404 381 q 157 347 251 347 l 126 347 q 122 301 124 326 q 119 247 119 275 q 167 88 119 142 q 300 33 214 33 q 390 47 349 33 q 465 78 431 61 l 465 28 q 388 -1 433 11 q 289 -14 343 -14 m 172 394 q 356 419 279 394 q 474 489 433 443 q 515 596 515 535 q 488 672 515 643 q 404 701 460 701 q 294 663 349 701 q 197 556 239 625 q 135 394 154 488 l 172 394 m 424 843 q 347 858 378 843 q 299 903 315 874 q 283 972 283 933 q 283 988 283 981 q 285 1000 283 996 l 325 1000 q 331 944 324 969 q 362 904 339 919 q 425 889 385 889 q 516 917 485 889 q 561 1000 547 946 l 604 1000 q 542 883 586 922 q 424 843 499 843 z "},"Ė":{"ha":642,"x_min":43,"x_max":688,"o":"m 43 0 l 253 992 l 688 992 l 676 943 l 297 943 l 213 546 l 569 546 l 560 497 l 203 497 l 107 49 l 488 49 l 476 0 l 43 0 m 517 1138 q 490 1148 500 1138 q 481 1176 481 1158 q 492 1219 481 1199 q 529 1240 504 1240 q 549 1236 542 1240 q 560 1224 557 1232 q 564 1203 564 1215 q 551 1159 564 1181 q 517 1138 539 1138 z "},"ė":{"ha":606,"x_min":65,"x_max":568,"o":"m 289 -14 q 176 13 226 -14 q 95 98 125 40 q 65 244 65 156 q 92 438 65 347 q 165 599 118 529 q 275 709 213 669 q 410 749 338 749 q 525 709 482 749 q 568 599 568 669 q 540 492 568 539 q 458 413 511 446 q 328 364 404 381 q 157 347 251 347 l 126 347 q 122 301 124 326 q 119 247 119 275 q 167 88 119 142 q 300 33 214 33 q 390 47 349 33 q 465 78 431 61 l 465 28 q 388 -1 433 11 q 289 -14 343 -14 m 172 394 q 356 419 279 394 q 474 489 433 443 q 515 596 515 535 q 488 672 515 643 q 404 701 460 701 q 294 663 349 701 q 197 556 239 625 q 135 394 154 488 l 172 394 m 443 899 q 417 909 426 899 q 407 938 407 919 q 419 981 407 960 q 456 1001 431 1001 q 476 997 468 1001 q 487 985 483 993 q 490 964 490 976 q 478 920 490 942 q 443 899 465 899 z "},"Ę":{"ha":642,"x_min":43,"x_max":688,"o":"m 43 0 l 253 992 l 688 992 l 676 943 l 297 943 l 213 546 l 569 546 l 560 497 l 203 497 l 107 49 l 488 49 l 476 0 l 43 0 m 333 -301 q 261 -276 289 -301 q 233 -206 233 -250 q 254 -126 233 -161 q 311 -57 275 -90 q 394 8 347 -24 l 432 0 q 359 -60 393 -29 q 304 -126 325 -92 q 283 -199 283 -160 q 299 -242 283 -228 q 343 -257 314 -257 q 374 -254 360 -257 q 400 -249 389 -251 l 397 -290 q 369 -298 385 -294 q 333 -301 353 -301 z "},"ę":{"ha":606,"x_min":61,"x_max":563,"o":"m 335 -285 q 266 -259 292 -285 q 240 -187 240 -233 q 260 -108 240 -144 q 316 -40 281 -72 q 397 24 351 -7 l 443 28 q 370 -37 406 -4 q 313 -107 335 -71 q 290 -182 292 -143 q 306 -226 290 -211 q 349 -240 321 -240 q 377 -238 364 -240 q 403 -233 390 -236 l 400 -274 q 370 -282 386 -279 q 335 -285 354 -285 m 285 -14 q 170 13 221 -14 q 90 98 119 40 q 61 244 61 156 q 87 438 61 347 q 160 599 113 529 q 269 709 207 669 q 406 749 332 749 q 520 709 478 749 q 563 599 563 669 q 534 492 563 539 q 452 413 506 446 q 323 364 399 381 q 151 347 247 347 l 122 347 q 117 301 119 326 q 114 247 114 275 q 161 88 114 142 q 294 33 208 33 q 385 47 344 33 q 460 78 425 61 l 460 28 q 383 -1 429 11 q 285 -14 338 -14 m 167 394 q 351 419 274 394 q 469 489 428 443 q 510 596 510 535 q 482 672 510 643 q 400 701 454 701 q 289 663 343 701 q 192 556 235 625 q 129 394 150 488 l 167 394 z "},"Ě":{"ha":642,"x_min":43,"x_max":688,"o":"m 43 0 l 253 992 l 688 992 l 676 943 l 297 943 l 213 546 l 569 546 l 560 497 l 203 497 l 107 49 l 488 49 l 476 0 l 43 0 m 456 1088 q 431 1156 447 1117 q 394 1233 414 1194 q 358 1297 375 1272 l 361 1307 l 392 1307 q 426 1258 408 1286 q 459 1201 443 1231 q 488 1144 475 1172 q 566 1228 522 1185 q 653 1307 610 1272 l 688 1307 l 686 1297 q 624 1233 660 1271 q 556 1158 589 1196 q 503 1088 524 1119 l 456 1088 z "},"ě":{"ha":606,"x_min":65,"x_max":622,"o":"m 289 -14 q 176 13 226 -14 q 95 98 125 40 q 65 244 65 156 q 92 438 65 347 q 165 599 118 529 q 275 709 213 669 q 410 749 338 749 q 525 709 482 749 q 568 599 568 669 q 540 492 568 539 q 458 413 511 446 q 328 364 404 381 q 157 347 251 347 l 126 347 q 122 301 124 326 q 119 247 119 275 q 167 88 119 142 q 300 33 214 33 q 390 47 349 33 q 465 78 431 61 l 465 28 q 388 -1 433 11 q 289 -14 343 -14 m 172 394 q 356 419 279 394 q 474 489 433 443 q 515 596 515 535 q 488 672 515 643 q 404 701 460 701 q 294 663 349 701 q 197 556 239 625 q 135 394 154 488 l 172 394 m 390 842 q 365 910 382 871 q 329 988 349 949 q 293 1051 310 1026 l 296 1061 l 326 1061 q 360 1013 343 1040 q 394 956 378 985 q 422 899 410 926 q 501 983 457 939 q 588 1061 544 1026 l 622 1061 l 621 1051 q 559 988 594 1025 q 491 912 524 950 q 438 842 458 874 l 390 842 z "},"Ĝ":{"ha":839,"x_min":90,"x_max":829,"o":"m 404 -14 q 172 80 253 -14 q 90 343 90 174 q 115 556 90 456 q 183 738 139 656 q 289 881 228 821 q 425 973 350 940 q 586 1006 500 1006 q 719 990 660 1006 q 829 947 779 974 l 806 900 q 702 942 757 926 q 585 957 647 957 q 410 910 490 957 q 271 778 331 863 q 178 584 211 694 q 144 346 144 474 q 177 173 144 242 q 269 69 210 104 q 410 35 328 35 q 521 46 467 35 q 617 74 575 57 l 696 446 l 481 446 l 492 494 l 760 494 l 663 38 q 539 -1 604 13 q 404 -14 474 -14 m 433 1099 q 497 1163 463 1126 q 564 1238 532 1200 q 618 1307 596 1276 l 664 1307 q 689 1240 672 1279 q 725 1163 706 1201 q 761 1099 744 1125 l 758 1088 l 728 1088 q 694 1138 711 1111 q 661 1194 676 1165 q 632 1250 646 1222 q 554 1167 597 1211 q 468 1088 511 1124 l 432 1088 l 433 1099 z "},"ĝ":{"ha":699,"x_min":13,"x_max":664,"o":"m 193 -333 q 92 -320 139 -333 q 13 -292 46 -307 l 13 -237 q 65 -260 35 -249 q 128 -279 94 -272 q 194 -286 161 -286 q 363 -223 306 -286 q 447 -44 421 -160 l 461 22 q 476 90 467 50 q 494 163 486 129 l 492 163 q 426 76 464 117 q 342 11 389 36 q 240 -14 296 -14 q 140 15 181 -14 q 79 97 100 43 q 58 226 58 151 q 72 367 58 294 q 114 508 86 440 q 183 631 142 576 q 281 717 225 685 q 406 749 336 749 q 498 726 461 749 q 555 669 535 704 q 583 594 575 635 l 586 594 l 621 735 l 664 735 l 497 -49 q 442 -202 479 -139 q 344 -299 404 -265 q 193 -333 283 -333 m 251 33 q 331 56 293 33 q 403 117 369 78 q 465 206 438 157 q 513 311 493 256 q 544 422 533 367 q 556 526 556 478 q 515 656 556 611 q 407 700 475 700 q 302 672 349 700 q 220 594 256 643 q 160 483 185 544 q 124 355 136 421 q 113 226 113 289 q 147 83 113 133 q 251 33 181 33 m 254 853 q 318 917 283 881 q 385 992 353 954 q 439 1061 417 1031 l 485 1061 q 510 994 493 1033 q 546 917 526 956 q 582 853 565 879 l 579 842 l 549 842 q 515 892 532 865 q 482 948 497 919 q 453 1004 467 976 q 375 922 418 965 q 289 842 332 878 l 253 842 l 254 853 z "},"Ğ":{"ha":839,"x_min":90,"x_max":829,"o":"m 404 -14 q 172 80 253 -14 q 90 343 90 174 q 115 556 90 456 q 183 738 139 656 q 289 881 228 821 q 425 973 350 940 q 586 1006 500 1006 q 719 990 660 1006 q 829 947 779 974 l 806 900 q 702 942 757 926 q 585 957 647 957 q 410 910 490 957 q 271 778 331 863 q 178 584 211 694 q 144 346 144 474 q 177 173 144 242 q 269 69 210 104 q 410 35 328 35 q 521 46 467 35 q 617 74 575 57 l 696 446 l 481 446 l 492 494 l 760 494 l 663 38 q 539 -1 604 13 q 404 -14 474 -14 m 599 1089 q 522 1104 553 1089 q 474 1149 490 1119 q 458 1218 458 1179 q 458 1234 458 1226 q 460 1246 458 1242 l 500 1246 q 506 1190 499 1215 q 537 1150 514 1165 q 600 1135 560 1135 q 691 1163 660 1135 q 736 1246 722 1192 l 779 1246 q 717 1128 761 1168 q 599 1089 674 1089 z "},"ğ":{"ha":699,"x_min":13,"x_max":664,"o":"m 193 -333 q 92 -320 139 -333 q 13 -292 46 -307 l 13 -237 q 65 -260 35 -249 q 128 -279 94 -272 q 194 -286 161 -286 q 363 -223 306 -286 q 447 -44 421 -160 l 461 22 q 476 90 467 50 q 494 163 486 129 l 492 163 q 426 76 464 117 q 342 11 389 36 q 240 -14 296 -14 q 140 15 181 -14 q 79 97 100 43 q 58 226 58 151 q 72 367 58 294 q 114 508 86 440 q 183 631 142 576 q 281 717 225 685 q 406 749 336 749 q 498 726 461 749 q 555 669 535 704 q 583 594 575 635 l 586 594 l 621 735 l 664 735 l 497 -49 q 442 -202 479 -139 q 344 -299 404 -265 q 193 -333 283 -333 m 251 33 q 331 56 293 33 q 403 117 369 78 q 465 206 438 157 q 513 311 493 256 q 544 422 533 367 q 556 526 556 478 q 515 656 556 611 q 407 700 475 700 q 302 672 349 700 q 220 594 256 643 q 160 483 185 544 q 124 355 136 421 q 113 226 113 289 q 147 83 113 133 q 251 33 181 33 m 435 843 q 358 858 389 843 q 310 903 326 874 q 294 972 294 933 q 294 988 294 981 q 296 1000 294 996 l 336 1000 q 342 944 335 969 q 373 904 350 919 q 436 889 396 889 q 527 917 496 889 q 572 1000 558 946 l 615 1000 q 553 883 597 922 q 435 843 510 843 z "},"Ġ":{"ha":839,"x_min":90,"x_max":829,"o":"m 404 -14 q 172 80 253 -14 q 90 343 90 174 q 115 556 90 456 q 183 738 139 656 q 289 881 228 821 q 425 973 350 940 q 586 1006 500 1006 q 719 990 660 1006 q 829 947 779 974 l 806 900 q 702 942 757 926 q 585 957 647 957 q 410 910 490 957 q 271 778 331 863 q 178 584 211 694 q 144 346 144 474 q 177 173 144 242 q 269 69 210 104 q 410 35 328 35 q 521 46 467 35 q 617 74 575 57 l 696 446 l 481 446 l 492 494 l 760 494 l 663 38 q 539 -1 604 13 q 404 -14 474 -14 m 633 1144 q 607 1155 617 1144 q 597 1183 597 1165 q 609 1226 597 1206 q 646 1247 621 1247 q 666 1243 658 1247 q 677 1231 674 1239 q 681 1210 681 1222 q 668 1166 681 1188 q 633 1144 656 1144 z "},"ġ":{"ha":699,"x_min":13,"x_max":664,"o":"m 193 -333 q 92 -320 139 -333 q 13 -292 46 -307 l 13 -237 q 65 -260 35 -249 q 128 -279 94 -272 q 194 -286 161 -286 q 363 -223 306 -286 q 447 -44 421 -160 l 461 22 q 476 90 467 50 q 494 163 486 129 l 492 163 q 426 76 464 117 q 342 11 389 36 q 240 -14 296 -14 q 140 15 181 -14 q 79 97 100 43 q 58 226 58 151 q 72 367 58 294 q 114 508 86 440 q 183 631 142 576 q 281 717 225 685 q 406 749 336 749 q 498 726 461 749 q 555 669 535 704 q 583 594 575 635 l 586 594 l 621 735 l 664 735 l 497 -49 q 442 -202 479 -139 q 344 -299 404 -265 q 193 -333 283 -333 m 251 33 q 331 56 293 33 q 403 117 369 78 q 465 206 438 157 q 513 311 493 256 q 544 422 533 367 q 556 526 556 478 q 515 656 556 611 q 407 700 475 700 q 302 672 349 700 q 220 594 256 643 q 160 483 185 544 q 124 355 136 421 q 113 226 113 289 q 147 83 113 133 q 251 33 181 33 m 450 899 q 424 909 433 899 q 414 938 414 919 q 426 981 414 960 q 463 1001 438 1001 q 483 997 475 1001 q 494 985 490 993 q 497 964 497 976 q 485 920 497 942 q 450 899 472 899 z "},"Ģ":{"ha":839,"x_min":90,"x_max":829,"o":"m 404 -14 q 172 80 253 -14 q 90 343 90 174 q 115 556 90 456 q 183 738 139 656 q 289 881 228 821 q 425 973 350 940 q 586 1006 500 1006 q 719 990 660 1006 q 829 947 779 974 l 806 900 q 702 942 757 926 q 585 957 647 957 q 410 910 490 957 q 271 778 331 863 q 178 584 211 694 q 144 346 144 474 q 177 173 144 242 q 269 69 210 104 q 410 35 328 35 q 521 46 467 35 q 617 74 575 57 l 696 446 l 481 446 l 492 494 l 760 494 l 663 38 q 539 -1 604 13 q 404 -14 474 -14 m 247 -292 q 292 -233 268 -268 q 335 -158 315 -197 q 367 -85 356 -118 l 417 -85 l 417 -99 q 382 -167 404 -129 q 332 -242 360 -206 q 276 -307 304 -279 l 247 -307 l 247 -292 z "},"ģ":{"ha":699,"x_min":13,"x_max":664,"o":"m 399 856 q 435 924 411 886 q 486 1000 458 963 q 539 1064 514 1038 l 564 1064 l 564 1046 q 526 990 547 1026 q 483 915 504 954 q 451 842 463 875 l 399 842 l 399 856 m 193 -333 q 92 -320 139 -333 q 13 -292 46 -307 l 13 -237 q 65 -260 35 -249 q 128 -279 94 -272 q 194 -286 161 -286 q 363 -223 306 -286 q 447 -44 421 -160 l 461 22 q 476 90 467 50 q 494 163 486 129 l 492 163 q 426 76 464 117 q 342 11 389 36 q 240 -14 296 -14 q 140 15 181 -14 q 79 97 100 43 q 58 226 58 151 q 72 367 58 294 q 114 508 86 440 q 183 631 142 576 q 281 717 225 685 q 406 749 336 749 q 498 726 461 749 q 555 669 535 704 q 583 594 575 635 l 586 594 l 621 735 l 664 735 l 497 -49 q 442 -202 479 -139 q 344 -299 404 -265 q 193 -333 283 -333 m 251 33 q 331 56 293 33 q 403 117 369 78 q 465 206 438 157 q 513 311 493 256 q 544 422 533 367 q 556 526 556 478 q 515 656 556 611 q 407 700 475 700 q 302 672 349 700 q 220 594 256 643 q 160 483 185 544 q 124 355 136 421 q 113 226 113 289 q 147 83 113 133 q 251 33 181 33 z "},"Ĥ":{"ha":828,"x_min":43,"x_max":832,"o":"m 43 0 l 254 992 l 307 992 l 213 546 l 685 546 l 779 992 l 832 992 l 622 0 l 569 0 l 674 496 l 203 496 l 97 0 l 43 0 m 388 1099 q 451 1163 417 1126 q 518 1238 486 1200 q 572 1307 550 1276 l 618 1307 q 643 1240 626 1279 q 679 1163 660 1201 q 715 1099 699 1125 l 713 1088 l 682 1088 q 648 1138 665 1111 q 615 1194 631 1165 q 586 1250 600 1222 q 508 1167 551 1211 q 422 1088 465 1124 l 386 1088 l 388 1099 z "},"ĥ":{"ha":679,"x_min":31,"x_max":611,"o":"m 31 0 l 254 1056 l 307 1056 l 243 761 q 230 700 238 731 q 215 640 222 669 q 200 581 208 610 l 204 581 q 262 660 226 622 q 344 724 297 699 q 450 749 392 749 q 538 731 501 749 q 592 677 574 713 q 611 589 611 642 q 606 531 611 565 q 594 467 601 497 l 496 0 l 443 0 l 543 474 q 554 532 550 504 q 558 583 558 560 q 527 672 558 643 q 439 700 496 700 q 321 660 376 700 q 224 549 265 621 q 164 381 183 476 l 83 0 l 31 0 m 144 1169 q 208 1234 174 1197 q 275 1309 243 1271 q 329 1378 307 1347 l 375 1378 q 400 1311 383 1350 q 436 1234 417 1272 q 472 1169 456 1196 l 469 1158 l 439 1158 q 405 1209 422 1182 q 372 1265 388 1236 q 343 1321 357 1293 q 265 1238 308 1282 q 179 1158 222 1194 l 143 1158 l 144 1169 z "},"Ħ":{"ha":824,"x_min":43,"x_max":907,"o":"m 43 0 l 203 754 l 82 754 l 92 800 l 213 800 l 253 992 l 307 992 l 267 800 l 739 800 l 779 992 l 833 992 l 792 800 l 907 800 l 897 754 l 782 754 l 622 0 l 568 0 l 674 496 l 201 496 l 97 0 l 43 0 m 213 546 l 685 546 l 728 753 l 257 753 l 213 546 z "},"ħ":{"ha":681,"x_min":31,"x_max":611,"o":"m 31 0 l 215 871 l 119 871 l 131 917 l 225 917 l 254 1056 l 307 1056 l 276 917 l 519 917 l 510 871 l 267 871 q 238 740 250 794 q 217 647 225 685 q 200 579 208 608 l 203 579 q 261 658 226 619 q 344 721 296 696 q 450 746 392 746 q 538 728 501 746 q 592 675 574 710 q 611 588 611 640 q 606 529 611 563 q 594 464 601 496 l 496 0 l 443 0 l 543 471 q 554 529 550 501 q 558 581 558 557 q 526 669 558 640 q 438 699 494 699 q 320 658 375 699 q 224 546 265 618 q 163 378 183 474 l 83 0 l 31 0 z "},"Ĩ":{"ha":347,"x_min":-26,"x_max":565,"o":"m -26 0 l -19 35 l 75 43 l 267 947 l 176 957 l 183 992 l 421 992 l 413 957 l 318 947 l 126 43 l 217 35 l 210 0 l -26 0 m 126 1111 q 155 1190 138 1158 q 198 1237 172 1221 q 258 1253 224 1253 q 313 1238 289 1253 q 356 1205 336 1224 q 395 1172 376 1186 q 435 1158 414 1158 q 485 1178 464 1158 q 522 1253 507 1197 l 565 1253 q 537 1175 554 1207 q 494 1127 519 1143 q 432 1111 468 1111 q 381 1125 403 1111 q 339 1158 358 1139 q 299 1191 319 1176 q 256 1206 279 1206 q 206 1185 226 1206 q 169 1111 185 1164 l 126 1111 z "},"ĩ":{"ha":274,"x_min":29,"x_max":469,"o":"m 29 0 l 186 735 l 238 735 l 82 0 l 29 0 m 31 853 q 59 931 42 900 q 102 978 76 963 q 163 994 128 994 q 217 980 193 994 q 260 947 240 965 q 299 914 281 928 q 339 900 318 900 q 390 919 368 900 q 426 994 411 939 l 469 994 q 441 917 458 949 q 398 869 424 885 q 336 853 372 853 q 285 867 307 853 q 243 899 263 881 q 203 933 224 918 q 160 947 183 947 q 110 926 131 947 q 74 853 89 906 l 31 853 z "},"Ī":{"ha":347,"x_min":-26,"x_max":496,"o":"m -26 0 l -19 35 l 75 43 l 267 947 l 176 957 l 183 992 l 421 992 l 413 957 l 318 947 l 126 43 l 217 35 l 210 0 l -26 0 m 157 1108 l 167 1156 l 496 1156 l 486 1108 l 157 1108 z "},"ī":{"ha":274,"x_min":29,"x_max":408,"o":"m 29 0 l 186 735 l 238 735 l 82 0 l 29 0 m 69 850 l 79 897 l 408 897 l 399 850 l 69 850 z "},"Ĭ":{"ha":347,"x_min":-26,"x_max":507,"o":"m -26 0 l -19 35 l 75 43 l 267 947 l 176 957 l 183 992 l 421 992 l 413 957 l 318 947 l 126 43 l 217 35 l 210 0 l -26 0 m 326 1101 q 249 1117 281 1101 q 202 1162 218 1132 q 186 1231 186 1192 q 186 1247 186 1239 q 188 1258 186 1254 l 228 1258 q 234 1203 226 1228 q 265 1163 242 1178 q 328 1147 288 1147 q 419 1176 388 1147 q 464 1258 450 1204 l 507 1258 q 445 1141 489 1181 q 326 1101 401 1101 z "},"ĭ":{"ha":274,"x_min":29,"x_max":421,"o":"m 29 0 l 186 735 l 238 735 l 82 0 l 29 0 m 240 843 q 163 858 194 843 q 116 903 132 874 q 100 972 100 933 q 100 988 100 981 q 101 1000 100 996 l 142 1000 q 148 944 140 969 q 178 904 156 919 q 242 889 201 889 q 333 917 301 889 q 378 1000 364 946 l 421 1000 q 359 883 403 922 q 240 843 315 843 z "},"Į":{"ha":347,"x_min":-26,"x_max":421,"o":"m -26 0 l -19 35 l 75 43 l 267 947 l 176 957 l 183 992 l 421 992 l 413 957 l 318 947 l 126 43 l 217 35 l 210 0 l -26 0 m 83 -301 q 11 -276 39 -301 q -17 -206 -17 -250 q 4 -126 -17 -161 q 61 -57 25 -90 q 144 8 97 -24 l 182 0 q 109 -60 143 -29 q 54 -126 75 -92 q 33 -199 33 -160 q 49 -242 33 -228 q 93 -257 64 -257 q 124 -254 110 -257 q 150 -249 139 -251 l 147 -290 q 119 -298 135 -294 q 83 -301 103 -301 z "},"į":{"ha":274,"x_min":-115,"x_max":301,"o":"m 29 0 l 186 735 l 239 735 l 82 0 l 29 0 m 253 899 q 226 909 236 899 q 217 938 217 919 q 222 967 217 953 q 239 992 228 982 q 267 1001 250 1001 q 292 991 283 1001 q 301 964 301 981 q 288 920 301 942 q 253 899 275 899 m -15 -301 q -87 -276 -60 -301 q -115 -206 -115 -250 q -94 -126 -115 -161 q -37 -57 -74 -90 q 46 8 -1 -24 l 83 0 q 10 -60 44 -29 q -44 -126 -24 -92 q -65 -199 -65 -160 q -50 -242 -65 -228 q -6 -257 -35 -257 q 26 -254 11 -257 q 51 -249 40 -251 l 49 -290 q 20 -298 36 -294 q -15 -301 4 -301 z "},"İ":{"ha":347,"x_min":-26,"x_max":421,"o":"m -26 0 l -19 35 l 75 43 l 267 947 l 176 957 l 183 992 l 421 992 l 413 957 l 318 947 l 126 43 l 217 35 l 210 0 l -26 0 m 346 1157 q 319 1167 329 1157 q 310 1196 310 1178 q 322 1239 310 1218 q 358 1260 333 1260 q 378 1256 371 1260 q 390 1243 386 1251 q 393 1222 393 1235 q 381 1178 393 1200 q 346 1157 368 1157 z "},"Ĳ":{"ha":644,"x_min":-26,"x_max":665,"o":"m -26 0 l -19 35 l 75 43 l 267 947 l 176 957 l 183 992 l 421 992 l 413 957 l 318 947 l 126 43 l 217 35 l 210 0 l -26 0 m 233 -246 q 179 -240 206 -246 q 136 -228 153 -235 l 142 -181 q 188 -192 163 -187 q 235 -196 213 -196 q 313 -176 282 -196 q 365 -115 344 -156 q 397 -17 385 -75 l 611 992 l 665 992 l 450 -26 q 406 -149 435 -100 q 335 -222 378 -199 q 233 -246 293 -246 z "},"ĳ":{"ha":533,"x_min":29,"x_max":569,"o":"m 29 0 l 186 735 l 239 735 l 82 0 l 29 0 m 253 899 q 226 909 236 899 q 217 938 217 919 q 222 967 217 953 q 239 992 228 982 q 267 1001 250 1001 q 292 991 283 1001 q 301 964 301 981 q 288 920 301 942 q 253 899 275 899 m 147 -333 q 108 -330 128 -333 q 78 -322 89 -326 l 78 -272 q 110 -282 92 -279 q 144 -285 128 -285 q 206 -267 181 -285 q 247 -213 231 -250 q 274 -118 263 -176 l 456 735 l 507 735 l 325 -124 q 290 -241 311 -194 q 233 -310 268 -287 q 147 -333 199 -333 m 522 899 q 496 909 506 899 q 486 938 486 919 q 492 967 486 953 q 508 992 497 982 q 535 1001 518 1001 q 561 991 553 1001 q 569 965 569 981 q 557 920 569 942 q 522 899 544 899 z "},"Ĵ":{"ha":294,"x_min":-219,"x_max":457,"o":"m -122 -246 q -176 -240 -150 -246 q -219 -228 -203 -235 l -214 -181 q -168 -192 -193 -187 q -121 -196 -143 -196 q -42 -176 -74 -196 q 9 -115 -11 -156 q 42 -17 29 -75 l 256 992 l 310 992 l 94 -26 q 51 -149 79 -100 q -20 -222 22 -199 q -122 -246 -62 -246 m 129 1099 q 193 1163 158 1126 q 260 1238 228 1200 q 314 1307 292 1276 l 360 1307 q 385 1240 368 1279 q 421 1163 401 1201 q 457 1099 440 1125 l 454 1088 l 424 1088 q 390 1138 407 1111 q 357 1194 372 1165 q 328 1250 342 1222 q 250 1167 293 1211 q 164 1088 207 1124 l 128 1088 l 129 1099 z "},"ĵ":{"ha":274,"x_min":-189,"x_max":393,"o":"m -119 -333 q -158 -330 -139 -333 q -189 -322 -178 -326 l -189 -272 q -157 -282 -175 -279 q -122 -285 -139 -285 q -61 -267 -86 -285 q -20 -213 -36 -250 q 7 -118 -4 -176 l 189 735 l 240 735 l 58 -124 q 23 -241 44 -194 q -33 -310 1 -287 q -119 -333 -68 -333 m 65 853 q 129 917 94 881 q 196 992 164 954 q 250 1061 228 1031 l 296 1061 q 321 994 304 1033 q 357 917 338 956 q 393 853 376 879 l 390 842 l 360 842 q 326 892 343 865 q 293 948 308 919 q 264 1004 278 976 q 186 922 229 965 q 100 842 143 878 l 64 842 l 65 853 z "},"Ķ":{"ha":664,"x_min":43,"x_max":778,"o":"m 43 0 l 253 992 l 307 992 l 193 458 l 278 554 l 710 992 l 778 992 l 361 564 l 579 0 l 519 0 l 319 526 l 181 397 l 97 0 l 43 0 m 138 -292 q 182 -233 158 -268 q 226 -158 206 -197 q 257 -85 246 -118 l 307 -85 l 307 -99 q 272 -167 294 -129 q 222 -242 250 -206 q 167 -307 194 -279 l 138 -307 l 138 -292 z "},"ķ":{"ha":554,"x_min":29,"x_max":604,"o":"m 29 0 l 253 1056 l 306 1056 l 196 538 q 170 422 182 474 q 144 317 158 369 l 146 317 l 543 735 l 604 735 l 314 428 l 472 0 l 415 0 l 272 389 l 135 251 l 82 0 l 29 0 m 88 -292 q 132 -233 108 -268 q 176 -158 156 -197 q 207 -85 196 -118 l 257 -85 l 257 -99 q 222 -167 244 -129 q 172 -242 200 -206 q 117 -307 144 -279 l 88 -307 l 88 -292 z "},"ĸ":{"ha":550,"x_min":29,"x_max":604,"o":"m 29 0 l 186 735 l 239 735 l 194 528 q 169 419 182 472 q 144 317 157 365 l 146 317 l 543 735 l 604 735 l 314 428 l 472 0 l 415 0 l 272 389 l 135 251 l 82 0 l 29 0 z "},"Ĺ":{"ha":588,"x_min":43,"x_max":532,"o":"m 43 0 l 253 992 l 307 992 l 107 50 l 481 50 l 471 0 l 43 0 m 293 1108 q 359 1176 325 1138 q 423 1252 393 1214 q 471 1319 453 1290 l 532 1319 l 532 1308 q 492 1258 517 1286 q 440 1201 468 1231 q 383 1145 411 1172 q 328 1097 354 1118 l 294 1097 l 293 1108 z "},"ĺ":{"ha":271,"x_min":29,"x_max":492,"o":"m 29 0 l 254 1056 l 306 1056 l 82 0 l 29 0 m 253 1172 q 319 1240 285 1201 q 383 1316 353 1278 q 431 1383 413 1354 l 492 1383 l 492 1372 q 452 1322 476 1350 q 399 1265 428 1294 q 342 1209 371 1236 q 288 1161 314 1182 l 254 1161 l 253 1172 z "},"Ļ":{"ha":588,"x_min":43,"x_max":481,"o":"m 43 0 l 253 992 l 307 992 l 107 50 l 481 50 l 471 0 l 43 0 m 114 -292 q 158 -233 135 -268 q 202 -158 182 -197 q 233 -85 222 -118 l 283 -85 l 283 -99 q 249 -167 271 -129 q 199 -242 226 -206 q 143 -307 171 -279 l 114 -307 l 114 -292 z "},"ļ":{"ha":271,"x_min":-79,"x_max":306,"o":"m 29 0 l 254 1056 l 306 1056 l 82 0 l 29 0 m -79 -292 q -35 -233 -58 -268 q 9 -158 -11 -197 q 40 -85 29 -118 l 90 -85 l 90 -99 q 56 -167 78 -129 q 6 -242 33 -206 q -50 -307 -22 -279 l -79 -307 l -79 -292 z "},"Ľ":{"ha":588,"x_min":43,"x_max":597,"o":"m 439 775 q 478 840 457 803 q 517 918 499 878 q 544 988 535 958 l 597 988 l 597 976 q 565 908 586 947 q 519 832 544 869 q 469 765 494 794 l 439 765 l 439 775 m 43 0 l 253 992 l 307 992 l 107 50 l 481 50 l 471 0 l 43 0 z "},"ľ":{"ha":285,"x_min":29,"x_max":478,"o":"m 319 842 q 358 906 338 868 q 397 984 379 944 q 425 1053 415 1024 l 478 1053 l 478 1043 q 446 975 467 1014 q 400 898 425 936 q 350 831 375 860 l 319 831 l 319 842 m 29 0 l 254 1056 l 306 1056 l 82 0 l 29 0 z "},"Ŀ":{"ha":588,"x_min":43,"x_max":503,"o":"m 43 0 l 253 992 l 307 992 l 107 50 l 481 50 l 471 0 l 43 0 m 456 463 q 429 473 439 463 q 419 501 419 483 q 431 544 419 524 q 468 565 443 565 q 488 561 481 565 q 499 549 496 557 q 503 528 503 540 q 490 484 503 506 q 456 463 478 463 z "},"ŀ":{"ha":329,"x_min":29,"x_max":369,"o":"m 29 0 l 254 1056 l 306 1056 l 82 0 l 29 0 m 321 438 q 294 448 304 438 q 285 476 285 458 q 297 519 285 499 q 333 540 308 540 q 353 536 346 540 q 365 524 361 532 q 368 503 368 515 q 356 459 368 481 q 321 438 343 438 z "},"Ł":{"ha":583,"x_min":-1,"x_max":489,"o":"m 43 0 l 129 406 l 19 342 l -1 382 l 142 464 l 254 992 l 308 992 l 203 500 l 400 614 l 421 575 l 190 442 l 108 50 l 489 50 l 479 0 l 43 0 z "},"ł":{"ha":274,"x_min":10,"x_max":331,"o":"m 31 0 l 129 464 l 29 406 l 10 444 l 142 521 l 254 1056 l 307 1056 l 200 556 l 313 622 l 331 583 l 189 499 l 82 0 l 31 0 z "},"Ń":{"ha":839,"x_min":43,"x_max":844,"o":"m 43 0 l 253 992 l 307 992 l 603 99 l 606 99 q 620 173 613 135 q 635 247 628 211 q 647 314 642 283 l 792 992 l 844 992 l 635 0 l 581 0 l 285 897 l 282 897 q 273 845 278 871 q 263 792 268 819 q 251 738 257 765 q 240 681 246 710 l 96 0 l 43 0 m 521 1108 q 587 1176 553 1138 q 651 1252 621 1214 q 699 1319 681 1290 l 760 1319 l 760 1308 q 720 1258 744 1286 q 667 1201 696 1231 q 610 1145 639 1172 q 556 1097 582 1118 l 522 1097 l 521 1108 z "},"ń":{"ha":679,"x_min":29,"x_max":615,"o":"m 29 0 l 185 735 l 229 735 l 201 581 l 204 581 q 260 660 225 622 q 344 724 296 699 q 450 749 392 749 q 538 731 501 749 q 593 678 574 713 q 613 590 613 643 q 607 531 613 565 q 594 467 601 497 l 496 0 l 442 0 l 543 474 q 553 532 549 504 q 558 583 558 560 q 526 672 558 643 q 439 700 494 700 q 321 660 376 700 q 224 547 265 619 q 164 379 183 475 l 83 0 l 29 0 m 376 851 q 442 919 408 881 q 506 995 476 957 q 554 1063 536 1033 l 615 1063 l 615 1051 q 576 1001 600 1029 q 523 944 551 974 q 466 888 494 915 q 411 840 438 861 l 378 840 l 376 851 z "},"Ņ":{"ha":839,"x_min":43,"x_max":844,"o":"m 43 0 l 253 992 l 307 992 l 603 99 l 606 99 q 620 173 613 135 q 635 247 628 211 q 647 314 642 283 l 792 992 l 844 992 l 635 0 l 581 0 l 285 897 l 282 897 q 273 845 278 871 q 263 792 268 819 q 251 738 257 765 q 240 681 246 710 l 96 0 l 43 0 m 199 -292 q 243 -233 219 -268 q 287 -158 267 -197 q 318 -85 307 -118 l 368 -85 l 368 -99 q 333 -167 356 -129 q 283 -242 311 -206 q 228 -307 256 -279 l 199 -307 l 199 -292 z "},"ņ":{"ha":679,"x_min":29,"x_max":613,"o":"m 29 0 l 185 735 l 229 735 l 201 581 l 204 581 q 260 660 225 622 q 344 724 296 699 q 450 749 392 749 q 538 731 501 749 q 593 678 574 713 q 613 590 613 643 q 607 531 613 565 q 594 467 601 497 l 496 0 l 442 0 l 543 474 q 553 532 549 504 q 558 583 558 560 q 526 672 558 643 q 439 700 494 700 q 321 660 376 700 q 224 547 265 619 q 164 379 183 475 l 83 0 l 29 0 m 124 -292 q 168 -233 144 -268 q 212 -158 192 -197 q 243 -85 232 -118 l 293 -85 l 293 -99 q 258 -167 281 -129 q 208 -242 236 -206 q 153 -307 181 -279 l 124 -307 l 124 -292 z "},"Ň":{"ha":839,"x_min":43,"x_max":844,"o":"m 43 0 l 253 992 l 307 992 l 603 99 l 606 99 q 620 173 613 135 q 635 247 628 211 q 647 314 642 283 l 792 992 l 844 992 l 635 0 l 581 0 l 285 897 l 282 897 q 273 845 278 871 q 263 792 268 819 q 251 738 257 765 q 240 681 246 710 l 96 0 l 43 0 m 528 1088 q 503 1156 519 1117 q 467 1233 486 1194 q 431 1297 447 1272 l 433 1307 l 464 1307 q 498 1258 481 1286 q 531 1201 515 1231 q 560 1144 547 1172 q 638 1228 594 1185 q 725 1307 682 1272 l 760 1307 l 758 1297 q 697 1233 732 1271 q 628 1158 661 1196 q 575 1088 596 1119 l 528 1088 z "},"ň":{"ha":679,"x_min":29,"x_max":639,"o":"m 29 0 l 185 735 l 229 735 l 201 581 l 204 581 q 260 660 225 622 q 344 724 296 699 q 450 749 392 749 q 538 731 501 749 q 593 678 574 713 q 613 590 613 643 q 607 531 613 565 q 594 467 601 497 l 496 0 l 442 0 l 543 474 q 553 532 549 504 q 558 583 558 560 q 526 672 558 643 q 439 700 494 700 q 321 660 376 700 q 224 547 265 619 q 164 379 183 475 l 83 0 l 29 0 m 407 842 q 382 910 399 871 q 346 988 365 949 q 310 1051 326 1026 l 313 1061 l 343 1061 q 377 1013 360 1040 q 410 956 394 985 q 439 899 426 926 q 517 983 474 939 q 604 1061 561 1026 l 639 1061 l 638 1051 q 576 988 611 1025 q 508 912 540 950 q 454 842 475 874 l 407 842 z "},"ŉ":{"ha":736,"x_min":76,"x_max":669,"o":"m 86 0 l 242 735 l 286 735 l 258 581 l 261 581 q 317 660 282 622 q 401 724 353 699 q 507 749 449 749 q 594 731 558 749 q 650 678 631 713 q 669 590 669 643 q 664 531 669 565 q 651 467 658 497 l 553 0 l 499 0 l 600 474 q 610 532 606 504 q 615 583 615 560 q 583 672 615 643 q 496 700 551 700 q 378 660 433 700 q 281 547 322 619 q 221 379 240 475 l 140 0 l 86 0 m 76 663 q 133 769 106 711 q 183 885 161 826 q 221 992 206 943 l 269 992 l 275 978 q 232 872 257 926 q 177 763 207 817 q 117 663 147 710 l 76 663 z "},"Ŋ":{"ha":838,"x_min":43,"x_max":844,"o":"m 408 -246 q 358 -241 382 -246 q 319 -228 335 -236 l 328 -181 q 366 -192 346 -187 q 408 -196 386 -196 q 492 -172 458 -196 q 547 -104 525 -149 q 581 1 568 -60 l 285 897 l 282 897 q 273 849 278 874 q 263 799 268 825 q 253 747 258 774 q 242 690 249 719 l 96 0 l 43 0 l 253 992 l 307 992 l 603 101 l 606 101 q 619 171 613 135 q 633 242 626 207 q 647 311 640 278 l 792 992 l 844 992 l 633 -6 q 589 -137 618 -83 q 516 -218 560 -190 q 408 -246 472 -246 z "},"ŋ":{"ha":678,"x_min":29,"x_max":611,"o":"m 289 -333 q 250 -330 267 -333 q 219 -322 233 -326 l 219 -272 q 252 -282 235 -279 q 288 -285 269 -285 q 347 -268 322 -285 q 388 -215 371 -251 q 417 -119 406 -178 l 543 474 q 554 532 550 504 q 558 583 558 560 q 527 672 558 643 q 439 700 496 700 q 320 660 375 700 q 224 548 265 619 q 163 381 183 476 l 82 0 l 29 0 l 186 735 l 229 735 l 200 581 l 204 581 q 260 660 225 622 q 344 724 296 699 q 450 749 392 749 q 536 731 500 749 q 592 678 572 713 q 611 590 611 643 q 606 532 611 565 q 594 467 601 499 l 468 -125 q 431 -242 454 -196 q 372 -311 407 -289 q 289 -333 338 -333 z "},"Ō":{"ha":863,"x_min":89,"x_max":819,"o":"m 379 -14 q 213 31 278 -14 q 119 154 149 75 q 89 338 89 233 q 101 489 89 411 q 138 642 113 567 q 199 782 163 717 q 285 898 236 847 q 397 978 335 949 q 535 1007 460 1007 q 743 923 667 1007 q 819 665 819 839 q 810 531 819 604 q 778 381 800 457 q 723 234 757 304 q 640 108 689 164 q 526 19 590 51 q 379 -14 463 -14 m 382 36 q 506 66 451 36 q 603 147 561 96 q 675 263 644 199 q 725 399 706 328 q 754 538 744 469 q 764 665 764 607 q 706 881 764 806 q 531 957 649 957 q 407 928 463 957 q 308 849 351 899 q 235 737 265 800 q 184 604 204 674 q 154 467 164 535 q 144 339 144 399 q 170 176 144 244 q 249 72 196 108 q 382 36 301 36 m 392 1096 l 401 1143 l 731 1143 l 721 1096 l 392 1096 z "},"ō":{"ha":685,"x_min":61,"x_max":624,"o":"m 279 -14 q 160 17 208 -14 q 86 105 111 47 q 61 242 61 163 q 76 385 61 313 q 119 524 90 458 q 191 640 149 589 q 288 719 233 690 q 408 749 343 749 q 526 717 478 749 q 599 629 574 686 q 624 494 624 572 q 609 349 624 421 q 567 211 594 276 q 497 95 539 146 q 401 15 456 44 q 279 -14 346 -14 m 283 35 q 383 60 338 35 q 463 132 428 86 q 521 238 497 178 q 557 363 544 297 q 569 497 569 429 q 551 603 569 557 q 497 674 533 649 q 406 700 461 700 q 308 674 353 700 q 227 603 263 649 q 167 497 192 557 q 128 372 142 438 q 115 240 115 307 q 158 89 115 143 q 283 35 200 35 m 263 850 l 272 897 l 601 897 l 592 850 l 263 850 z "},"Ŏ":{"ha":863,"x_min":89,"x_max":819,"o":"m 379 -14 q 213 31 278 -14 q 119 154 149 75 q 89 338 89 233 q 101 489 89 411 q 138 642 113 567 q 199 782 163 717 q 285 898 236 847 q 397 978 335 949 q 535 1007 460 1007 q 743 923 667 1007 q 819 665 819 839 q 810 531 819 604 q 778 381 800 457 q 723 234 757 304 q 640 108 689 164 q 526 19 590 51 q 379 -14 463 -14 m 382 36 q 506 66 451 36 q 603 147 561 96 q 675 263 644 199 q 725 399 706 328 q 754 538 744 469 q 764 665 764 607 q 706 881 764 806 q 531 957 649 957 q 407 928 463 957 q 308 849 351 899 q 235 737 265 800 q 184 604 204 674 q 154 467 164 535 q 144 339 144 399 q 170 176 144 244 q 249 72 196 108 q 382 36 301 36 m 560 1089 q 483 1104 514 1089 q 435 1149 451 1119 q 419 1218 419 1179 q 419 1234 419 1226 q 421 1246 419 1242 l 461 1246 q 467 1190 460 1215 q 498 1150 475 1165 q 561 1135 521 1135 q 652 1163 621 1135 q 697 1246 683 1192 l 740 1246 q 678 1128 722 1168 q 560 1089 635 1089 z "},"ŏ":{"ha":685,"x_min":61,"x_max":624,"o":"m 279 -14 q 160 17 208 -14 q 86 105 111 47 q 61 242 61 163 q 76 385 61 313 q 119 524 90 458 q 191 640 149 589 q 288 719 233 690 q 408 749 343 749 q 526 717 478 749 q 599 629 574 686 q 624 494 624 572 q 609 349 624 421 q 567 211 594 276 q 497 95 539 146 q 401 15 456 44 q 279 -14 346 -14 m 283 35 q 383 60 338 35 q 463 132 428 86 q 521 238 497 178 q 557 363 544 297 q 569 497 569 429 q 551 603 569 557 q 497 674 533 649 q 406 700 461 700 q 308 674 353 700 q 227 603 263 649 q 167 497 192 557 q 128 372 142 438 q 115 240 115 307 q 158 89 115 143 q 283 35 200 35 m 436 843 q 359 858 390 843 q 312 903 328 874 q 296 972 296 933 q 296 988 296 981 q 297 1000 296 996 l 338 1000 q 344 944 336 969 q 374 904 351 919 q 438 889 397 889 q 528 917 497 889 q 574 1000 560 946 l 617 1000 q 555 883 599 922 q 436 843 511 843 z "},"Ő":{"ha":863,"x_min":89,"x_max":860,"o":"m 379 -14 q 213 31 278 -14 q 119 154 149 75 q 89 338 89 233 q 101 489 89 411 q 138 642 113 567 q 199 782 163 717 q 285 898 236 847 q 397 978 335 949 q 535 1007 460 1007 q 743 923 667 1007 q 819 665 819 839 q 810 531 819 604 q 778 381 800 457 q 723 234 757 304 q 640 108 689 164 q 526 19 590 51 q 379 -14 463 -14 m 382 36 q 506 66 451 36 q 603 147 561 96 q 675 263 644 199 q 725 399 706 328 q 754 538 744 469 q 764 665 764 607 q 706 881 764 806 q 531 957 649 957 q 407 928 463 957 q 308 849 351 899 q 235 737 265 800 q 184 604 204 674 q 154 467 164 535 q 144 339 144 399 q 170 176 144 244 q 249 72 196 108 q 382 36 301 36 m 624 1099 q 690 1167 656 1129 q 753 1243 724 1206 q 801 1310 783 1281 l 860 1310 l 860 1299 q 820 1249 844 1276 q 768 1192 796 1221 q 711 1135 740 1163 q 656 1088 682 1108 l 624 1088 l 624 1099 m 411 1099 q 478 1167 443 1129 q 542 1243 513 1206 q 590 1310 572 1281 l 649 1310 l 649 1299 q 608 1249 632 1276 q 556 1192 585 1221 q 499 1135 528 1163 q 443 1088 471 1108 l 413 1088 l 411 1099 z "},"ő":{"ha":685,"x_min":61,"x_max":733,"o":"m 279 -14 q 160 17 208 -14 q 86 105 111 47 q 61 242 61 163 q 76 385 61 313 q 119 524 90 458 q 191 640 149 589 q 288 719 233 690 q 408 749 343 749 q 526 717 478 749 q 599 629 574 686 q 624 494 624 572 q 609 349 624 421 q 567 211 594 276 q 497 95 539 146 q 401 15 456 44 q 279 -14 346 -14 m 283 35 q 383 60 338 35 q 463 132 428 86 q 521 238 497 178 q 557 363 544 297 q 569 497 569 429 q 551 603 569 557 q 497 674 533 649 q 406 700 461 700 q 308 674 353 700 q 227 603 263 649 q 167 497 192 557 q 128 372 142 438 q 115 240 115 307 q 158 89 115 143 q 283 35 200 35 m 497 853 q 563 922 529 883 q 627 997 597 960 q 675 1064 657 1035 l 733 1064 l 733 1053 q 694 1003 718 1031 q 642 946 669 975 q 585 890 614 917 q 529 842 556 863 l 497 842 l 497 853 m 285 853 q 351 922 317 883 q 416 997 386 960 q 464 1064 446 1035 l 522 1064 l 522 1053 q 482 1003 506 1031 q 430 946 458 975 q 373 890 401 917 q 317 842 344 863 l 286 842 l 285 853 z "},"Œ":{"ha":1038,"x_min":89,"x_max":1094,"o":"m 383 -6 q 215 38 279 -6 q 119 158 150 81 q 89 338 89 236 q 106 519 89 426 q 158 699 124 613 q 244 853 192 785 q 370 961 297 921 q 536 1001 443 1001 q 606 999 574 1001 q 663 992 638 996 l 1094 992 l 1085 943 l 697 943 l 614 546 l 978 546 l 967 497 l 603 497 l 508 49 l 894 49 l 885 0 l 463 0 q 428 -3 447 -1 q 383 -6 408 -6 m 388 44 q 424 46 406 44 q 454 49 442 47 l 644 943 q 594 949 622 947 q 532 951 565 951 q 385 913 449 951 q 276 810 322 875 q 201 664 231 744 q 158 499 172 583 q 144 339 144 415 q 170 181 144 247 q 250 79 196 114 q 388 44 304 44 z "},"œ":{"ha":1078,"x_min":61,"x_max":1036,"o":"m 272 -14 q 115 55 169 -14 q 61 246 61 124 q 76 387 61 315 q 118 523 90 458 q 187 639 146 588 q 281 719 228 690 q 401 749 335 749 q 544 689 496 749 q 599 531 592 629 q 717 688 644 629 q 883 747 789 747 q 993 710 950 747 q 1036 603 1036 672 q 1008 493 1036 540 q 926 413 979 446 q 797 364 872 381 q 625 347 721 347 l 594 347 q 590 301 592 326 q 588 247 588 275 q 637 89 588 144 q 775 33 686 33 q 861 48 824 33 q 933 81 899 63 l 936 31 q 860 -1 903 11 q 764 -14 817 -14 q 660 8 707 -14 q 582 77 613 31 q 543 196 551 124 q 436 44 504 103 q 272 -14 368 -14 m 278 35 q 375 61 331 35 q 453 133 419 88 q 509 239 486 179 q 544 365 532 299 q 556 497 556 431 q 517 645 556 590 q 397 700 478 700 q 301 674 344 700 q 222 603 257 649 q 163 500 188 558 q 127 376 139 442 q 115 246 115 311 q 156 89 115 143 q 278 35 197 35 m 640 394 q 824 419 747 394 q 942 490 900 444 q 983 600 983 536 q 957 671 983 643 q 878 699 931 699 q 761 661 817 699 q 664 555 706 624 q 601 394 622 486 l 640 394 z "},"Ŕ":{"ha":685,"x_min":43,"x_max":685,"o":"m 43 0 l 253 992 l 426 992 q 618 936 551 992 q 685 769 685 881 q 656 619 685 685 q 572 509 628 553 q 433 449 517 465 l 567 0 l 508 0 l 382 439 l 190 439 l 97 0 l 43 0 m 354 486 q 469 506 418 486 q 556 563 519 526 q 610 651 592 600 q 629 765 629 703 q 576 900 629 857 q 415 943 524 943 l 297 943 l 200 486 l 354 486 m 439 1108 q 505 1176 471 1138 q 569 1252 539 1214 q 617 1319 599 1290 l 678 1319 l 678 1308 q 638 1258 663 1286 q 585 1201 614 1231 q 528 1145 557 1172 q 474 1097 500 1118 l 440 1097 l 439 1108 z "},"ŕ":{"ha":454,"x_min":31,"x_max":517,"o":"m 31 0 l 186 735 l 229 735 l 199 575 l 203 575 q 256 656 224 615 q 333 722 289 696 q 429 747 378 747 q 468 744 450 747 q 499 738 486 742 l 488 688 q 460 694 475 692 q 425 697 444 697 q 335 670 378 697 q 258 597 293 643 q 199 492 224 550 q 161 374 175 435 l 82 0 l 31 0 m 278 851 q 344 919 310 881 q 408 995 378 957 q 456 1063 438 1033 l 517 1063 l 517 1051 q 477 1001 501 1029 q 424 944 453 974 q 367 888 396 915 q 313 840 339 861 l 279 840 l 278 851 z "},"Ŗ":{"ha":685,"x_min":43,"x_max":685,"o":"m 43 0 l 253 992 l 426 992 q 618 936 551 992 q 685 769 685 881 q 656 619 685 685 q 572 509 628 553 q 433 449 517 465 l 567 0 l 508 0 l 382 439 l 190 439 l 97 0 l 43 0 m 354 486 q 469 506 418 486 q 556 563 519 526 q 610 651 592 600 q 629 765 629 703 q 576 900 629 857 q 415 943 524 943 l 297 943 l 200 486 l 354 486 m 140 -292 q 185 -233 161 -268 q 228 -158 208 -197 q 260 -85 249 -118 l 310 -85 l 310 -99 q 275 -167 297 -129 q 225 -242 253 -206 q 169 -307 197 -279 l 140 -307 l 140 -292 z "},"ŗ":{"ha":454,"x_min":-56,"x_max":499,"o":"m 31 0 l 186 735 l 229 735 l 199 575 l 203 575 q 256 656 224 615 q 333 722 289 696 q 429 747 378 747 q 468 744 450 747 q 499 738 486 742 l 488 688 q 460 694 475 692 q 425 697 444 697 q 335 670 378 697 q 258 597 293 643 q 199 492 224 550 q 161 374 175 435 l 82 0 l 31 0 m -56 -292 q -11 -233 -35 -268 q 33 -158 13 -197 q 64 -85 53 -118 l 114 -85 l 114 -99 q 79 -167 101 -129 q 29 -242 57 -206 q -26 -307 1 -279 l -56 -307 l -56 -292 z "},"Ř":{"ha":685,"x_min":43,"x_max":686,"o":"m 43 0 l 253 992 l 426 992 q 618 936 551 992 q 685 769 685 881 q 656 619 685 685 q 572 509 628 553 q 433 449 517 465 l 567 0 l 508 0 l 382 439 l 190 439 l 97 0 l 43 0 m 354 486 q 469 506 418 486 q 556 563 519 526 q 610 651 592 600 q 629 765 629 703 q 576 900 629 857 q 415 943 524 943 l 297 943 l 200 486 l 354 486 m 454 1088 q 429 1156 446 1117 q 393 1233 413 1194 q 357 1297 374 1272 l 360 1307 l 390 1307 q 424 1258 407 1286 q 458 1201 442 1231 q 486 1144 474 1172 q 565 1228 521 1185 q 651 1307 608 1272 l 686 1307 l 685 1297 q 623 1233 658 1271 q 555 1158 588 1196 q 501 1088 522 1119 l 454 1088 z "},"ř":{"ha":454,"x_min":31,"x_max":553,"o":"m 31 0 l 186 735 l 229 735 l 199 575 l 203 575 q 256 656 224 615 q 333 722 289 696 q 429 747 378 747 q 468 744 450 747 q 499 738 486 742 l 488 688 q 460 694 475 692 q 425 697 444 697 q 335 670 378 697 q 258 597 293 643 q 199 492 224 550 q 161 374 175 435 l 82 0 l 31 0 m 321 842 q 296 910 313 871 q 260 988 279 949 q 224 1051 240 1026 l 226 1061 l 257 1061 q 291 1013 274 1040 q 324 956 308 985 q 353 899 340 926 q 431 983 388 939 q 518 1061 475 1026 l 553 1061 l 551 1051 q 490 988 525 1025 q 422 912 454 950 q 368 842 389 874 l 321 842 z "},"Ś":{"ha":617,"x_min":3,"x_max":642,"o":"m 221 -14 q 94 -1 146 -14 q 3 29 42 13 l 4 86 q 99 50 46 64 q 221 36 153 36 q 313 49 268 36 q 394 89 358 61 q 452 159 431 117 q 474 258 474 201 q 453 349 474 311 q 395 421 433 388 q 301 490 357 454 q 222 555 258 521 q 163 633 185 589 q 140 738 140 676 q 165 858 140 807 q 231 941 189 908 q 324 990 272 974 q 433 1006 376 1006 q 550 992 500 1006 q 642 956 600 978 l 618 907 q 532 943 576 931 q 431 956 488 956 q 347 944 389 956 q 271 906 306 932 q 216 840 236 881 q 196 742 196 799 q 215 652 196 689 q 269 585 235 615 q 346 524 303 556 q 440 453 399 489 q 505 371 481 417 q 529 261 529 325 q 503 139 529 190 q 435 53 478 88 q 336 3 392 19 q 221 -14 281 -14 m 389 1108 q 455 1176 421 1138 q 519 1252 489 1214 q 567 1319 549 1290 l 628 1319 l 628 1308 q 588 1258 613 1286 q 535 1201 564 1231 q 478 1145 507 1172 q 424 1097 450 1118 l 390 1097 l 389 1108 z "},"ś":{"ha":518,"x_min":1,"x_max":522,"o":"m 183 -14 q 76 1 122 -14 q 1 29 29 15 l 1 86 q 83 49 35 65 q 183 33 131 33 q 287 53 247 33 q 345 108 326 72 q 364 192 364 143 q 348 258 364 231 q 303 310 332 286 q 236 360 274 333 q 167 414 199 388 q 116 474 135 440 q 97 556 97 508 q 126 660 97 618 q 205 726 154 703 q 319 749 256 749 q 424 735 379 749 q 503 706 469 722 l 481 660 q 410 689 451 676 q 318 701 368 701 q 198 665 244 701 q 151 560 151 629 q 166 499 151 525 q 208 449 181 472 q 271 401 236 426 q 344 344 311 372 q 398 282 378 317 q 418 194 418 247 q 392 85 418 132 q 314 13 365 39 q 183 -14 263 -14 m 283 851 q 349 919 315 881 q 413 995 383 957 q 461 1063 443 1033 l 522 1063 l 522 1051 q 483 1001 507 1029 q 430 944 458 974 q 373 888 401 915 q 318 840 344 861 l 285 840 l 283 851 z "},"Ŝ":{"ha":617,"x_min":3,"x_max":642,"o":"m 221 -14 q 94 -1 146 -14 q 3 29 42 13 l 4 86 q 99 50 46 64 q 221 36 153 36 q 313 49 268 36 q 394 89 358 61 q 452 159 431 117 q 474 258 474 201 q 453 349 474 311 q 395 421 433 388 q 301 490 357 454 q 222 555 258 521 q 163 633 185 589 q 140 738 140 676 q 165 858 140 807 q 231 941 189 908 q 324 990 272 974 q 433 1006 376 1006 q 550 992 500 1006 q 642 956 600 978 l 618 907 q 532 943 576 931 q 431 956 488 956 q 347 944 389 956 q 271 906 306 932 q 216 840 236 881 q 196 742 196 799 q 215 652 196 689 q 269 585 235 615 q 346 524 303 556 q 440 453 399 489 q 505 371 481 417 q 529 261 529 325 q 503 139 529 190 q 435 53 478 88 q 336 3 392 19 q 221 -14 281 -14 m 276 1099 q 340 1163 306 1126 q 407 1238 375 1200 q 461 1307 439 1276 l 507 1307 q 532 1240 515 1279 q 568 1163 549 1201 q 604 1099 588 1125 l 601 1088 l 571 1088 q 537 1138 554 1111 q 504 1194 519 1165 q 475 1250 489 1222 q 397 1167 440 1211 q 311 1088 354 1124 l 275 1088 l 276 1099 z "},"ŝ":{"ha":518,"x_min":1,"x_max":506,"o":"m 183 -14 q 76 1 122 -14 q 1 29 29 15 l 1 86 q 83 49 35 65 q 183 33 131 33 q 287 53 247 33 q 345 108 326 72 q 364 192 364 143 q 348 258 364 231 q 303 310 332 286 q 236 360 274 333 q 167 414 199 388 q 116 474 135 440 q 97 556 97 508 q 126 660 97 618 q 205 726 154 703 q 319 749 256 749 q 424 735 379 749 q 503 706 469 722 l 481 660 q 410 689 451 676 q 318 701 368 701 q 198 665 244 701 q 151 560 151 629 q 166 499 151 525 q 208 449 181 472 q 271 401 236 426 q 344 344 311 372 q 398 282 378 317 q 418 194 418 247 q 392 85 418 132 q 314 13 365 39 q 183 -14 263 -14 m 178 853 q 242 917 207 881 q 308 992 276 954 q 363 1061 340 1031 l 408 1061 q 433 994 417 1033 q 469 917 450 956 q 506 853 489 879 l 503 842 l 472 842 q 438 892 456 865 q 406 948 421 919 q 376 1004 390 976 q 299 922 342 965 q 213 842 256 878 l 176 842 l 178 853 z "},"Ş":{"ha":617,"x_min":3,"x_max":642,"o":"m 221 -14 q 94 -1 146 -14 q 3 29 42 13 l 4 86 q 99 50 46 64 q 221 36 153 36 q 313 49 268 36 q 394 89 358 61 q 452 159 431 117 q 474 258 474 201 q 453 349 474 311 q 395 421 433 388 q 301 490 357 454 q 222 555 258 521 q 163 633 185 589 q 140 738 140 676 q 165 858 140 807 q 231 941 189 908 q 324 990 272 974 q 433 1006 376 1006 q 550 992 500 1006 q 642 956 600 978 l 618 907 q 532 943 576 931 q 431 956 488 956 q 347 944 389 956 q 271 906 306 932 q 216 840 236 881 q 196 742 196 799 q 215 652 196 689 q 269 585 235 615 q 346 524 303 556 q 440 453 399 489 q 505 371 481 417 q 529 261 529 325 q 503 139 529 190 q 435 53 478 88 q 336 3 392 19 q 221 -14 281 -14 m 114 -333 q 70 -331 89 -333 q 36 -325 51 -328 l 36 -283 q 69 -290 50 -287 q 110 -292 88 -292 q 171 -281 142 -292 q 218 -247 200 -269 q 236 -192 236 -225 q 208 -137 236 -156 q 124 -115 179 -118 l 193 0 l 236 0 l 185 -87 q 257 -120 229 -94 q 285 -190 285 -146 q 261 -266 285 -233 q 199 -316 238 -299 q 114 -333 161 -333 z "},"ş":{"ha":518,"x_min":-8,"x_max":503,"o":"m 183 -14 q 76 1 122 -14 q 1 29 29 15 l 1 86 q 83 49 35 65 q 183 33 131 33 q 287 53 247 33 q 345 108 326 72 q 364 192 364 143 q 348 258 364 231 q 303 310 332 286 q 236 360 274 333 q 167 414 199 388 q 116 474 135 440 q 97 556 97 508 q 126 660 97 618 q 205 726 154 703 q 319 749 256 749 q 424 735 379 749 q 503 706 469 722 l 481 660 q 410 689 451 676 q 318 701 368 701 q 198 665 244 701 q 151 560 151 629 q 166 499 151 525 q 208 449 181 472 q 271 401 236 426 q 344 344 311 372 q 398 282 378 317 q 418 194 418 247 q 392 85 418 132 q 314 13 365 39 q 183 -14 263 -14 m 68 -333 q 24 -331 43 -333 q -10 -325 6 -328 l -10 -283 q 23 -290 4 -287 q 64 -292 42 -292 q 125 -281 96 -292 q 172 -247 154 -269 q 190 -192 190 -225 q 162 -137 190 -156 q 78 -115 133 -118 l 147 0 l 190 0 l 139 -87 q 211 -120 183 -94 q 239 -190 239 -146 q 215 -266 239 -233 q 153 -316 192 -299 q 68 -333 115 -333 z "},"Š":{"ha":617,"x_min":3,"x_max":651,"o":"m 221 -14 q 94 -1 146 -14 q 3 29 42 13 l 4 86 q 99 50 46 64 q 221 36 153 36 q 313 49 268 36 q 394 89 358 61 q 452 159 431 117 q 474 258 474 201 q 453 349 474 311 q 395 421 433 388 q 301 490 357 454 q 222 555 258 521 q 163 633 185 589 q 140 738 140 676 q 165 858 140 807 q 231 941 189 908 q 324 990 272 974 q 433 1006 376 1006 q 550 992 500 1006 q 642 956 600 978 l 618 907 q 532 943 576 931 q 431 956 488 956 q 347 944 389 956 q 271 906 306 932 q 216 840 236 881 q 196 742 196 799 q 215 652 196 689 q 269 585 235 615 q 346 524 303 556 q 440 453 399 489 q 505 371 481 417 q 529 261 529 325 q 503 139 529 190 q 435 53 478 88 q 336 3 392 19 q 221 -14 281 -14 m 419 1088 q 394 1156 411 1117 q 358 1233 378 1194 q 322 1297 339 1272 l 325 1307 l 356 1307 q 390 1258 372 1286 q 423 1201 407 1231 q 451 1144 439 1172 q 530 1228 486 1185 q 617 1307 574 1272 l 651 1307 l 650 1297 q 588 1233 624 1271 q 520 1158 553 1196 q 467 1088 488 1119 l 419 1088 z "},"š":{"ha":518,"x_min":1,"x_max":550,"o":"m 183 -14 q 76 1 122 -14 q 1 29 29 15 l 1 86 q 83 49 35 65 q 183 33 131 33 q 287 53 247 33 q 345 108 326 72 q 364 192 364 143 q 348 258 364 231 q 303 310 332 286 q 236 360 274 333 q 167 414 199 388 q 116 474 135 440 q 97 556 97 508 q 126 660 97 618 q 205 726 154 703 q 319 749 256 749 q 424 735 379 749 q 503 706 469 722 l 481 660 q 410 689 451 676 q 318 701 368 701 q 198 665 244 701 q 151 560 151 629 q 166 499 151 525 q 208 449 181 472 q 271 401 236 426 q 344 344 311 372 q 398 282 378 317 q 418 194 418 247 q 392 85 418 132 q 314 13 365 39 q 183 -14 263 -14 m 318 842 q 293 910 310 871 q 257 988 276 949 q 221 1051 238 1026 l 224 1061 l 254 1061 q 288 1013 271 1040 q 322 956 306 985 q 350 899 338 926 q 428 983 385 939 q 515 1061 472 1026 l 550 1061 l 549 1051 q 487 988 522 1025 q 419 912 451 950 q 365 842 386 874 l 318 842 z "},"Ț":{"ha":585,"x_min":76,"x_max":703,"o":"m 181 0 l 381 942 l 124 942 l 135 992 l 703 992 l 693 942 l 435 942 l 235 0 l 181 0 m 76 -292 q 121 -233 97 -268 q 165 -158 144 -197 q 196 -85 185 -118 l 246 -85 l 246 -99 q 211 -167 233 -129 q 161 -242 189 -206 q 106 -307 133 -279 l 76 -307 l 76 -292 z "},"ț":{"ha":374,"x_min":-14,"x_max":406,"o":"m 175 -14 q 85 17 117 -14 q 54 107 54 47 q 58 151 54 126 q 67 201 61 175 l 171 689 l 78 689 l 86 725 l 181 738 l 233 914 l 271 914 l 233 735 l 406 735 l 394 689 l 224 689 l 119 203 q 111 153 114 176 q 108 113 108 131 q 126 54 108 75 q 183 33 143 33 q 230 38 210 33 q 269 49 250 42 l 269 3 q 228 -9 251 -4 q 175 -14 204 -14 m -14 -292 q 31 -233 7 -268 q 74 -158 54 -197 q 106 -85 94 -118 l 156 -85 l 156 -99 q 121 -167 143 -129 q 71 -242 99 -206 q 15 -307 43 -279 l -14 -307 l -14 -292 z "},"Ť":{"ha":585,"x_min":124,"x_max":703,"o":"m 181 0 l 381 942 l 124 942 l 135 992 l 703 992 l 693 942 l 435 942 l 235 0 l 181 0 m 411 1088 q 386 1156 403 1117 q 350 1233 369 1194 q 314 1297 331 1272 l 317 1307 l 347 1307 q 381 1258 364 1286 q 415 1201 399 1231 q 443 1144 431 1172 q 522 1228 478 1185 q 608 1307 565 1272 l 643 1307 l 642 1297 q 580 1233 615 1271 q 512 1158 544 1196 q 458 1088 479 1119 l 411 1088 z "},"ť":{"ha":367,"x_min":54,"x_max":501,"o":"m 342 838 q 381 902 360 864 q 419 980 401 940 q 447 1050 438 1019 l 501 1050 l 501 1039 q 469 971 490 1010 q 424 894 449 932 q 374 828 399 857 l 342 828 l 342 838 m 175 -14 q 85 17 117 -14 q 54 107 54 47 q 58 151 54 126 q 67 201 61 175 l 171 689 l 78 689 l 86 725 l 181 738 l 233 914 l 271 914 l 233 735 l 406 735 l 394 689 l 224 689 l 119 203 q 111 153 114 176 q 108 113 108 131 q 126 54 108 75 q 183 33 143 33 q 230 38 210 33 q 269 49 250 42 l 269 3 q 228 -9 251 -4 q 175 -14 204 -14 z "},"Ŧ":{"ha":583,"x_min":96,"x_max":703,"o":"m 181 0 l 285 489 l 96 489 l 106 536 l 294 536 l 381 942 l 124 942 l 135 992 l 703 992 l 693 942 l 435 942 l 349 536 l 543 536 l 533 489 l 339 489 l 235 0 l 181 0 z "},"ŧ":{"ha":369,"x_min":19,"x_max":406,"o":"m 175 -14 q 85 17 115 -14 q 54 107 54 47 q 58 151 54 126 q 67 201 61 175 l 108 394 l 19 394 l 28 440 l 118 440 l 171 689 l 78 689 l 86 725 l 181 738 l 233 914 l 271 914 l 233 735 l 406 735 l 394 689 l 224 689 l 169 440 l 322 440 l 313 394 l 161 394 l 119 203 q 111 153 114 176 q 108 113 108 131 q 126 54 108 75 q 183 33 143 33 q 230 38 210 33 q 269 49 250 42 l 269 3 q 228 -9 251 -4 q 175 -14 204 -14 z "},"Ũ":{"ha":826,"x_min":92,"x_max":840,"o":"m 344 -14 q 211 13 268 -14 q 123 94 154 40 q 92 224 92 147 q 95 277 92 249 q 106 336 99 306 l 244 992 l 299 992 l 160 336 q 150 278 153 307 q 147 228 147 250 q 201 85 147 133 q 347 36 254 36 q 488 70 429 36 q 585 172 546 104 q 646 340 625 240 l 786 992 l 840 992 l 699 335 q 628 143 675 221 q 512 26 582 65 q 344 -14 442 -14 m 353 1099 q 381 1177 364 1146 q 424 1224 399 1208 q 485 1240 450 1240 q 539 1226 515 1240 q 583 1192 563 1211 q 622 1160 603 1174 q 661 1146 640 1146 q 712 1165 690 1146 q 749 1240 733 1185 l 792 1240 q 763 1163 781 1194 q 720 1115 746 1131 q 658 1099 694 1099 q 607 1113 629 1099 q 565 1145 585 1126 q 526 1178 546 1164 q 482 1193 506 1193 q 432 1172 453 1193 q 396 1099 411 1151 l 353 1099 z "},"ũ":{"ha":679,"x_min":61,"x_max":663,"o":"m 224 -14 q 137 4 174 -14 q 81 58 100 22 q 61 144 61 93 q 67 203 61 169 q 78 267 72 236 l 178 735 l 231 735 l 129 260 q 119 203 124 231 q 114 151 114 175 q 146 64 114 93 q 235 35 178 35 q 353 75 299 35 q 449 188 408 115 q 510 356 490 260 l 590 735 l 643 735 l 488 0 l 444 0 l 472 154 l 468 154 q 413 75 449 114 q 329 11 376 36 q 224 -14 282 -14 m 224 853 q 252 931 235 900 q 295 978 269 963 q 356 994 321 994 q 410 980 386 994 q 453 947 433 965 q 492 914 474 928 q 532 900 511 900 q 583 919 561 900 q 619 994 604 939 l 663 994 q 634 917 651 949 q 591 869 617 885 q 529 853 565 853 q 478 867 500 853 q 436 899 456 881 q 397 933 417 918 q 353 947 376 947 q 303 926 324 947 q 267 853 282 906 l 224 853 z "},"Ū":{"ha":826,"x_min":92,"x_max":840,"o":"m 344 -14 q 211 13 268 -14 q 123 94 154 40 q 92 224 92 147 q 95 277 92 249 q 106 336 99 306 l 244 992 l 299 992 l 160 336 q 150 278 153 307 q 147 228 147 250 q 201 85 147 133 q 347 36 254 36 q 488 70 429 36 q 585 172 546 104 q 646 340 625 240 l 786 992 l 840 992 l 699 335 q 628 143 675 221 q 512 26 582 65 q 344 -14 442 -14 m 396 1096 l 406 1143 l 735 1143 l 725 1096 l 396 1096 z "},"ū":{"ha":679,"x_min":61,"x_max":643,"o":"m 224 -14 q 137 4 174 -14 q 81 58 100 22 q 61 144 61 93 q 67 203 61 169 q 78 267 72 236 l 178 735 l 231 735 l 129 260 q 119 203 124 231 q 114 151 114 175 q 146 64 114 93 q 235 35 178 35 q 353 75 299 35 q 449 188 408 115 q 510 356 490 260 l 590 735 l 643 735 l 488 0 l 444 0 l 472 154 l 468 154 q 413 75 449 114 q 329 11 376 36 q 224 -14 282 -14 m 267 850 l 276 897 l 606 897 l 596 850 l 267 850 z "},"Ŭ":{"ha":826,"x_min":92,"x_max":840,"o":"m 344 -14 q 211 13 268 -14 q 123 94 154 40 q 92 224 92 147 q 95 277 92 249 q 106 336 99 306 l 244 992 l 299 992 l 160 336 q 150 278 153 307 q 147 228 147 250 q 201 85 147 133 q 347 36 254 36 q 488 70 429 36 q 585 172 546 104 q 646 340 625 240 l 786 992 l 840 992 l 699 335 q 628 143 675 221 q 512 26 582 65 q 344 -14 442 -14 m 557 1089 q 480 1104 511 1089 q 433 1149 449 1119 q 417 1218 417 1179 q 417 1234 417 1226 q 418 1246 417 1242 l 458 1246 q 465 1190 457 1215 q 495 1150 472 1165 q 558 1135 518 1135 q 649 1163 618 1135 q 694 1246 681 1192 l 738 1246 q 676 1128 719 1168 q 557 1089 632 1089 z "},"ŭ":{"ha":679,"x_min":61,"x_max":643,"o":"m 224 -14 q 137 4 174 -14 q 81 58 100 22 q 61 144 61 93 q 67 203 61 169 q 78 267 72 236 l 178 735 l 231 735 l 129 260 q 119 203 124 231 q 114 151 114 175 q 146 64 114 93 q 235 35 178 35 q 353 75 299 35 q 449 188 408 115 q 510 356 490 260 l 590 735 l 643 735 l 488 0 l 444 0 l 472 154 l 468 154 q 413 75 449 114 q 329 11 376 36 q 224 -14 282 -14 m 432 843 q 355 858 386 843 q 308 903 324 874 q 292 972 292 933 q 292 988 292 981 q 293 1000 292 996 l 333 1000 q 340 944 332 969 q 370 904 347 919 q 433 889 393 889 q 524 917 493 889 q 569 1000 556 946 l 613 1000 q 551 883 594 922 q 432 843 507 843 z "},"Ů":{"ha":826,"x_min":92,"x_max":840,"o":"m 344 -14 q 211 13 268 -14 q 123 94 154 40 q 92 224 92 147 q 95 277 92 249 q 106 336 99 306 l 244 992 l 299 992 l 160 336 q 150 278 153 307 q 147 228 147 250 q 201 85 147 133 q 347 36 254 36 q 488 70 429 36 q 585 172 546 104 q 646 340 625 240 l 786 992 l 840 992 l 699 335 q 628 143 675 221 q 512 26 582 65 q 344 -14 442 -14 m 565 1093 q 468 1130 507 1093 q 429 1228 429 1167 q 468 1324 429 1286 q 565 1361 507 1361 q 663 1323 625 1361 q 700 1228 700 1285 q 662 1131 700 1169 q 565 1093 624 1093 m 565 1133 q 633 1160 608 1133 q 658 1228 658 1188 q 633 1295 658 1268 q 565 1322 607 1322 q 497 1295 524 1322 q 471 1228 471 1268 q 497 1160 471 1188 q 565 1133 522 1133 z "},"ů":{"ha":679,"x_min":61,"x_max":643,"o":"m 224 -14 q 137 4 174 -14 q 81 58 100 22 q 61 144 61 93 q 67 203 61 169 q 78 267 72 236 l 178 735 l 231 735 l 129 260 q 119 203 124 231 q 114 151 114 175 q 146 64 114 93 q 235 35 178 35 q 353 75 299 35 q 449 188 408 115 q 510 356 490 260 l 590 735 l 643 735 l 488 0 l 444 0 l 472 154 l 468 154 q 413 75 449 114 q 329 11 376 36 q 224 -14 282 -14 m 443 847 q 346 884 385 847 q 307 982 307 921 q 346 1078 307 1040 q 443 1115 385 1115 q 540 1077 503 1115 q 578 982 578 1039 q 540 885 578 924 q 443 847 501 847 m 443 888 q 511 915 486 888 q 536 982 536 942 q 510 1049 536 1022 q 443 1076 485 1076 q 375 1049 401 1076 q 349 982 349 1022 q 374 915 349 942 q 443 888 400 888 z "},"Ű":{"ha":826,"x_min":92,"x_max":863,"o":"m 344 -14 q 211 13 268 -14 q 123 94 154 40 q 92 224 92 147 q 95 277 92 249 q 106 336 99 306 l 244 992 l 299 992 l 160 336 q 150 278 153 307 q 147 228 147 250 q 201 85 147 133 q 347 36 254 36 q 488 70 429 36 q 585 172 546 104 q 646 340 625 240 l 786 992 l 840 992 l 699 335 q 628 143 675 221 q 512 26 582 65 q 344 -14 442 -14 m 625 1099 q 691 1167 657 1129 q 755 1243 725 1206 q 803 1310 785 1281 l 861 1310 l 861 1299 q 822 1249 846 1276 q 769 1192 797 1221 q 713 1135 742 1163 q 657 1088 683 1108 l 625 1088 l 625 1099 m 413 1099 q 479 1167 444 1129 q 544 1243 514 1206 q 592 1310 574 1281 l 650 1310 l 650 1299 q 610 1249 633 1276 q 558 1192 586 1221 q 501 1135 529 1163 q 444 1088 472 1108 l 414 1088 l 413 1099 z "},"ű":{"ha":679,"x_min":61,"x_max":739,"o":"m 224 -14 q 137 4 174 -14 q 81 58 100 22 q 61 144 61 93 q 67 203 61 169 q 78 267 72 236 l 178 735 l 231 735 l 129 260 q 119 203 124 231 q 114 151 114 175 q 146 64 114 93 q 235 35 178 35 q 353 75 299 35 q 449 188 408 115 q 510 356 490 260 l 590 735 l 643 735 l 488 0 l 444 0 l 472 154 l 468 154 q 413 75 449 114 q 329 11 376 36 q 224 -14 282 -14 m 501 853 q 567 922 533 883 q 631 997 601 960 q 679 1064 661 1035 l 738 1064 l 738 1053 q 698 1003 722 1031 q 646 946 674 975 q 589 890 618 917 q 533 842 560 863 l 501 842 l 501 853 m 289 853 q 356 922 321 883 q 420 997 390 960 q 468 1064 450 1035 l 526 1064 l 526 1053 q 486 1003 510 1031 q 434 946 463 975 q 377 890 406 917 q 321 842 349 863 l 290 842 l 289 853 z "},"Ų":{"ha":826,"x_min":92,"x_max":840,"o":"m 344 -14 q 211 13 268 -14 q 123 94 154 40 q 92 224 92 147 q 95 277 92 249 q 106 336 99 306 l 244 992 l 299 992 l 160 336 q 150 278 153 307 q 147 228 147 250 q 201 85 147 133 q 347 36 254 36 q 488 70 429 36 q 585 172 546 104 q 646 340 625 240 l 786 992 l 840 992 l 699 335 q 628 143 675 221 q 512 26 582 65 q 344 -14 442 -14 m 333 -301 q 261 -276 289 -301 q 233 -206 233 -250 q 254 -126 233 -161 q 311 -57 275 -90 q 394 8 347 -24 l 432 0 q 359 -60 393 -29 q 304 -126 325 -92 q 283 -199 283 -160 q 299 -242 283 -228 q 343 -257 314 -257 q 374 -254 360 -257 q 400 -249 389 -251 l 397 -290 q 369 -298 385 -294 q 333 -301 353 -301 z "},"ų":{"ha":679,"x_min":61,"x_max":643,"o":"m 224 -14 q 137 4 174 -14 q 81 58 100 22 q 61 144 61 93 q 67 203 61 169 q 78 267 72 236 l 178 735 l 231 735 l 129 260 q 119 203 124 231 q 114 151 114 175 q 146 64 114 93 q 235 35 178 35 q 353 75 299 35 q 449 188 408 115 q 510 356 490 260 l 590 735 l 643 735 l 488 0 l 444 0 l 472 154 l 468 154 q 413 75 449 114 q 329 11 376 36 q 224 -14 282 -14 m 389 -301 q 317 -276 344 -301 q 289 -206 289 -250 q 310 -126 289 -161 q 367 -57 331 -90 q 450 8 403 -24 l 488 0 q 415 -60 449 -29 q 360 -126 381 -92 q 339 -199 339 -160 q 354 -242 339 -228 q 399 -257 369 -257 q 430 -254 415 -257 q 456 -249 444 -251 l 453 -290 q 424 -298 440 -294 q 389 -301 408 -301 z "},"Ŵ":{"ha":1042,"x_min":150,"x_max":1140,"o":"m 174 0 l 150 992 l 201 992 l 218 254 q 218 164 218 207 q 217 83 218 121 l 221 83 q 255 169 238 126 q 293 258 272 213 l 621 992 l 674 992 l 693 268 q 693 204 693 236 q 693 140 693 172 q 693 78 693 108 l 696 78 q 718 137 707 107 q 743 199 729 167 q 772 268 757 231 l 1083 992 l 1140 992 l 708 0 l 651 0 l 631 764 q 631 811 631 788 q 630 857 631 835 q 631 901 629 879 l 628 901 q 604 841 615 869 q 579 782 593 813 l 231 0 l 174 0 m 489 1099 q 553 1163 518 1126 q 619 1238 588 1200 q 674 1307 651 1276 l 719 1307 q 744 1240 728 1279 q 781 1163 761 1201 q 817 1099 800 1125 l 814 1088 l 783 1088 q 749 1138 767 1111 q 717 1194 732 1165 q 688 1250 701 1222 q 610 1167 653 1211 q 524 1088 567 1124 l 488 1088 l 489 1099 z "},"ŵ":{"ha":828,"x_min":81,"x_max":879,"o":"m 104 0 l 81 735 l 131 735 l 146 242 q 147 150 147 190 q 146 75 147 110 l 150 75 q 169 122 158 97 q 192 176 179 147 q 222 239 206 206 l 456 735 l 507 735 l 533 242 q 537 154 536 197 q 538 74 538 111 l 540 74 q 560 124 550 99 q 582 179 569 150 q 610 244 594 208 l 825 735 l 879 735 l 553 0 l 499 0 l 471 517 q 469 563 469 540 q 468 610 468 586 q 468 658 468 633 l 465 658 q 447 613 456 635 q 427 568 438 590 q 406 521 417 546 l 160 0 l 104 0 m 325 853 q 389 917 354 881 q 456 992 424 954 q 510 1061 488 1031 l 556 1061 q 581 994 564 1033 q 617 917 597 956 q 653 853 636 879 l 650 842 l 619 842 q 585 892 603 865 q 553 948 568 919 q 524 1004 538 976 q 446 922 489 965 q 360 842 403 878 l 324 842 l 325 853 z "},"Ŷ":{"ha":585,"x_min":126,"x_max":710,"o":"m 182 0 l 263 379 l 126 992 l 179 992 l 300 443 l 649 992 l 710 992 l 317 382 l 236 0 l 182 0 m 263 1099 q 326 1163 292 1126 q 393 1238 361 1200 q 447 1307 425 1276 l 493 1307 q 518 1240 501 1279 q 554 1163 535 1201 q 590 1099 574 1125 l 588 1088 l 557 1088 q 523 1138 540 1111 q 490 1194 506 1165 q 461 1250 475 1222 q 383 1167 426 1211 q 297 1088 340 1124 l 261 1088 l 263 1099 z "},"ŷ":{"ha":525,"x_min":-153,"x_max":594,"o":"m -78 -336 q -122 -333 -104 -336 q -153 -322 -140 -329 l -150 -275 q -118 -285 -135 -281 q -78 -289 -101 -289 q 8 -253 -29 -289 q 85 -142 44 -218 l 163 8 l 83 735 l 136 735 l 185 251 q 192 185 189 217 q 198 124 196 153 q 200 74 200 96 l 203 74 q 226 123 213 96 q 254 181 239 150 q 286 243 269 213 l 538 735 l 594 735 l 132 -158 q 72 -257 103 -217 q 5 -317 40 -297 q -78 -336 -31 -336 m 183 853 q 247 917 213 881 q 314 992 282 954 q 368 1061 346 1031 l 414 1061 q 439 994 422 1033 q 475 917 456 956 q 511 853 494 879 l 508 842 l 478 842 q 444 892 461 865 q 411 948 426 919 q 382 1004 396 976 q 304 922 347 965 q 218 842 261 878 l 182 842 l 183 853 z "},"Ÿ":{"ha":585,"x_min":126,"x_max":710,"o":"m 182 0 l 263 379 l 126 992 l 179 992 l 300 443 l 649 992 l 710 992 l 317 382 l 236 0 l 182 0 m 539 1140 q 515 1149 524 1140 q 507 1175 507 1158 q 518 1217 507 1196 q 553 1238 529 1238 q 577 1228 569 1238 q 585 1203 585 1219 q 574 1160 585 1181 q 539 1140 563 1140 m 317 1140 q 294 1149 301 1140 q 286 1175 286 1158 q 297 1217 286 1196 q 332 1238 308 1238 q 349 1233 342 1238 q 360 1222 357 1229 q 363 1203 363 1214 q 351 1160 363 1181 q 317 1140 340 1140 z "},"Ź":{"ha":631,"x_min":-29,"x_max":692,"o":"m -29 0 l -21 42 l 615 942 l 190 942 l 200 992 l 692 992 l 683 950 l 49 50 l 504 50 l 494 0 l -29 0 m 403 1108 q 469 1176 435 1138 q 533 1252 503 1214 q 581 1319 563 1290 l 642 1319 l 642 1308 q 602 1258 626 1286 q 549 1201 578 1231 q 492 1145 521 1172 q 438 1097 464 1118 l 404 1097 l 403 1108 z "},"ź":{"ha":508,"x_min":-29,"x_max":528,"o":"m -29 0 l -22 38 l 449 689 l 138 689 l 147 735 l 522 735 l 515 696 l 43 46 l 389 46 l 379 0 l -29 0 m 288 851 q 353 919 319 881 q 417 995 388 957 q 465 1063 447 1033 l 526 1063 l 526 1051 q 487 1001 511 1029 q 434 944 463 974 q 377 888 406 915 q 322 840 349 861 l 289 840 l 288 851 z "},"Ż":{"ha":631,"x_min":-29,"x_max":692,"o":"m -29 0 l -21 42 l 615 942 l 190 942 l 200 992 l 692 992 l 683 950 l 49 50 l 504 50 l 494 0 l -29 0 m 468 1144 q 442 1155 451 1144 q 432 1183 432 1165 q 444 1226 432 1206 q 481 1247 456 1247 q 501 1243 493 1247 q 512 1231 508 1239 q 515 1210 515 1222 q 503 1166 515 1188 q 468 1144 490 1144 z "},"ż":{"ha":508,"x_min":-29,"x_max":522,"o":"m -29 0 l -22 38 l 449 689 l 138 689 l 147 735 l 522 735 l 515 696 l 43 46 l 389 46 l 379 0 l -29 0 m 371 899 q 344 909 354 899 q 335 938 335 919 q 347 981 335 960 q 383 1001 358 1001 q 403 997 396 1001 q 415 985 411 993 q 418 964 418 976 q 406 920 418 942 q 371 899 393 899 z "},"Ž":{"ha":631,"x_min":-29,"x_max":692,"o":"m -29 0 l -21 42 l 615 942 l 190 942 l 200 992 l 692 992 l 683 950 l 49 50 l 504 50 l 494 0 l -29 0 m 433 1088 q 408 1156 425 1117 q 372 1233 392 1194 q 336 1297 353 1272 l 339 1307 l 369 1307 q 403 1258 386 1286 q 437 1201 421 1231 q 465 1144 453 1172 q 544 1228 500 1185 q 631 1307 588 1272 l 665 1307 l 664 1297 q 602 1233 638 1271 q 534 1158 567 1196 q 481 1088 501 1119 l 433 1088 z "},"ž":{"ha":508,"x_min":-29,"x_max":557,"o":"m -29 0 l -22 38 l 449 689 l 138 689 l 147 735 l 522 735 l 515 696 l 43 46 l 389 46 l 379 0 l -29 0 m 325 842 q 300 910 317 871 q 264 988 283 949 q 228 1051 244 1026 l 231 1061 l 261 1061 q 295 1013 278 1040 q 328 956 313 985 q 357 899 344 926 q 435 983 392 939 q 522 1061 479 1026 l 557 1061 l 556 1051 q 494 988 529 1025 q 426 912 458 950 q 372 842 393 874 l 325 842 z "},"ſ":{"ha":314,"x_min":-192,"x_max":514,"o":"m -124 -333 q -162 -330 -143 -333 q -192 -321 -181 -326 l -192 -272 q -162 -281 -179 -278 q -126 -285 -144 -285 q -43 -247 -72 -285 q 3 -129 -14 -208 l 214 860 q 254 974 228 929 q 321 1040 281 1018 q 415 1063 361 1063 q 475 1056 449 1063 q 514 1044 501 1050 l 497 999 q 460 1011 482 1007 q 415 1015 438 1015 q 339 994 368 1015 q 292 938 310 974 q 264 853 275 901 l 54 -135 q 18 -242 40 -197 q -38 -310 -4 -286 q -124 -333 -72 -333 z "},"ƒ":{"ha":500,"x_min":-122,"x_max":688,"o":"m 40 -335 q -53 -311 -17 -335 q -106 -251 -89 -287 q -122 -172 -122 -214 q -117 -128 -122 -147 q -107 -93 -112 -108 l -60 -108 q -67 -138 -64 -122 q -71 -172 -71 -154 q -60 -228 -71 -201 q -24 -271 -49 -254 q 39 -287 0 -287 q 130 -245 99 -287 q 175 -132 161 -203 l 349 689 l 238 689 l 243 722 l 360 736 l 385 851 q 413 944 396 904 q 453 1010 429 983 q 512 1049 478 1036 q 590 1063 546 1063 q 644 1057 618 1063 q 688 1044 669 1051 l 671 999 q 632 1011 653 1007 q 590 1015 611 1015 q 488 974 522 1015 q 435 844 454 932 l 411 735 l 551 735 l 543 689 l 403 689 l 228 -135 q 166 -280 210 -225 q 40 -335 122 -335 z "},"Ǻ":{"ha":657,"x_min":-79,"x_max":676,"o":"m 381 861 q 331 905 350 875 q 313 975 313 935 q 351 1072 313 1035 q 449 1108 390 1108 q 547 1070 508 1108 q 585 976 585 1032 q 556 891 585 925 q 485 847 528 857 l 581 0 l 528 0 l 486 353 l 168 353 l -22 0 l -79 0 l 381 861 m 192 403 l 482 403 l 446 738 q 441 790 443 763 q 438 839 439 817 l 421 840 q 399 794 411 821 q 369 736 386 767 l 192 403 m 449 882 q 516 908 490 882 q 542 975 542 935 q 515 1042 542 1015 q 449 1069 489 1069 q 381 1042 407 1069 q 356 975 356 1015 q 380 908 356 935 q 449 882 404 882 m 438 1156 q 501 1220 468 1183 q 565 1294 535 1257 q 614 1358 594 1331 l 676 1358 l 676 1349 q 619 1282 654 1319 q 547 1208 585 1244 q 474 1144 508 1172 l 438 1144 l 438 1156 z "},"ǻ":{"ha":685,"x_min":60,"x_max":674,"o":"m 240 -14 q 140 14 181 -14 q 80 94 100 42 q 60 219 60 147 q 74 361 60 288 q 115 504 88 435 q 184 628 143 574 q 281 716 225 683 q 404 749 336 749 q 488 728 454 749 q 541 674 521 707 q 569 603 561 640 l 574 603 l 608 735 l 650 735 l 494 0 l 451 0 l 479 154 l 476 154 q 414 75 450 114 q 333 11 378 36 q 240 -14 289 -14 m 246 35 q 359 77 304 35 q 456 191 414 119 q 517 349 497 263 q 535 443 529 400 q 542 526 542 486 q 504 654 542 608 q 403 700 467 700 q 302 671 347 700 q 222 592 257 642 q 163 480 186 543 q 126 349 139 417 q 114 215 114 281 q 146 82 114 129 q 246 35 178 35 m 449 807 q 351 843 390 807 q 313 940 313 879 q 351 1037 313 1000 q 449 1074 390 1074 q 544 1036 506 1074 q 583 942 583 999 q 545 844 583 881 q 449 807 507 807 m 449 847 q 516 874 490 847 q 542 940 542 900 q 515 1008 542 981 q 449 1035 489 1035 q 381 1008 407 1035 q 354 940 354 981 q 379 873 354 899 q 449 847 404 847 m 435 1136 q 493 1199 463 1164 q 553 1269 524 1233 q 603 1338 583 1306 l 674 1338 l 674 1326 q 618 1264 651 1300 q 546 1192 585 1228 q 468 1126 507 1157 l 435 1126 l 435 1136 z "},"Ǽ":{"ha":944,"x_min":-82,"x_max":1000,"o":"m -82 0 l 479 992 l 1000 992 l 990 943 l 603 943 l 518 546 l 882 546 l 872 497 l 508 497 l 413 49 l 800 49 l 789 0 l 349 0 l 426 368 l 185 368 l -21 0 l -82 0 m 213 418 l 438 418 l 549 942 l 507 942 l 213 418 m 585 1108 q 651 1176 617 1138 q 715 1252 685 1214 q 763 1319 744 1290 l 824 1319 l 824 1308 q 784 1258 808 1286 q 731 1201 760 1231 q 674 1145 703 1172 q 619 1097 646 1118 l 586 1097 l 585 1108 z "},"ǽ":{"ha":1028,"x_min":58,"x_max":992,"o":"m 232 -14 q 139 15 178 -14 q 79 97 100 43 q 58 226 58 150 q 73 369 58 296 q 115 511 88 443 q 184 633 143 579 q 278 717 225 686 q 396 749 331 749 q 478 725 447 749 q 526 667 510 701 q 549 596 543 632 l 553 596 l 588 735 l 628 735 l 597 592 q 701 705 640 661 q 840 749 761 749 q 949 710 906 749 q 992 600 992 671 q 963 492 992 539 q 881 413 935 446 q 752 364 828 381 q 582 347 676 347 l 551 347 q 545 301 547 326 q 543 247 543 275 q 589 89 543 144 q 725 33 635 33 q 814 47 772 33 q 890 78 856 61 l 889 28 q 813 -2 857 10 q 718 -14 768 -14 q 581 28 638 -14 q 508 163 525 71 l 474 0 l 433 0 l 463 156 l 460 156 q 403 72 436 111 q 328 10 369 33 q 232 -14 286 -14 m 243 33 q 328 58 288 33 q 401 126 368 82 q 458 226 433 169 q 497 349 483 283 q 516 444 510 400 q 522 526 522 489 q 490 654 522 608 q 399 700 457 700 q 300 672 344 700 q 221 594 256 643 q 162 485 186 546 q 125 357 138 424 q 113 228 113 290 q 147 83 113 132 q 243 33 182 33 m 596 394 q 780 419 703 394 q 898 489 857 443 q 939 596 939 535 q 913 672 939 642 q 833 701 886 701 q 718 663 774 701 q 621 556 663 625 q 558 394 579 488 l 596 394 m 558 851 q 624 919 590 881 q 688 995 658 957 q 736 1063 718 1033 l 797 1063 l 797 1051 q 758 1001 782 1029 q 705 944 733 974 q 648 888 676 915 q 593 840 619 861 l 560 840 l 558 851 z "},"Ǿ":{"ha":864,"x_min":18,"x_max":889,"o":"m 54 -47 l 18 -18 l 133 128 q 100 224 111 171 q 89 338 89 276 q 101 489 89 411 q 138 642 113 567 q 199 782 163 717 q 285 898 236 847 q 397 978 335 949 q 535 1007 460 1007 q 659 983 604 1007 q 749 910 714 958 l 851 1038 l 889 1010 l 776 867 q 808 779 797 831 q 819 665 819 728 q 810 531 819 604 q 778 381 800 457 q 723 234 757 304 q 640 108 689 164 q 526 19 590 51 q 379 -14 463 -14 q 249 13 304 -14 q 160 86 194 39 l 54 -47 m 382 36 q 506 65 450 36 q 603 146 561 94 q 675 262 644 197 q 725 397 706 326 q 754 535 744 467 q 764 663 764 604 q 757 747 764 708 q 736 814 750 785 l 194 132 q 269 60 222 85 q 382 36 317 36 m 715 865 q 641 934 686 911 q 531 957 596 957 q 407 928 463 957 q 308 851 351 900 q 235 738 265 801 q 184 606 204 675 q 154 469 164 538 q 144 342 144 401 q 151 254 144 294 q 172 179 158 214 l 715 865 m 531 1111 q 597 1178 563 1140 q 660 1255 631 1217 q 708 1322 690 1293 l 769 1322 l 769 1311 q 730 1261 754 1289 q 677 1204 706 1233 q 620 1148 649 1175 q 565 1100 592 1121 l 532 1100 l 531 1111 z "},"ǿ":{"ha":686,"x_min":1,"x_max":683,"o":"m 36 -58 l 1 -31 l 96 88 q 70 156 79 118 q 61 242 61 194 q 76 385 61 313 q 119 522 90 457 q 191 639 149 588 q 288 719 233 690 q 408 749 343 749 q 498 731 460 749 q 564 683 536 714 l 649 789 l 683 763 l 590 646 q 615 578 607 617 q 624 496 624 539 q 609 351 624 424 q 567 213 594 279 q 498 97 539 147 q 402 16 457 46 q 279 -14 347 -14 q 189 3 228 -14 q 124 50 150 21 l 36 -58 m 283 33 q 383 60 338 33 q 463 131 428 86 q 522 235 497 176 q 558 359 546 293 q 569 492 569 425 q 566 549 569 522 q 554 596 563 575 l 154 92 q 209 49 176 64 q 283 33 242 33 m 532 642 q 481 685 513 669 q 406 701 449 701 q 308 675 353 701 q 227 603 263 649 q 167 500 192 558 q 128 376 142 442 q 114 244 114 310 q 119 184 114 213 q 132 135 124 156 l 532 642 m 390 851 q 456 919 422 881 q 520 995 490 957 q 568 1063 550 1033 l 629 1063 l 629 1051 q 590 1001 614 1029 q 537 944 565 974 q 480 888 508 915 q 425 840 451 861 l 392 840 l 390 851 z "},"Ș":{"ha":617,"x_min":3,"x_max":642,"o":"m 221 -14 q 94 -1 146 -14 q 3 29 42 13 l 4 86 q 99 50 46 64 q 221 36 153 36 q 313 49 268 36 q 394 89 358 61 q 452 159 431 117 q 474 258 474 201 q 453 349 474 311 q 395 421 433 388 q 301 490 357 454 q 222 555 258 521 q 163 633 185 589 q 140 738 140 676 q 165 858 140 807 q 231 941 189 908 q 324 990 272 974 q 433 1006 376 1006 q 550 992 500 1006 q 642 956 600 978 l 618 907 q 532 943 576 931 q 431 956 488 956 q 347 944 389 956 q 271 906 306 932 q 216 840 236 881 q 196 742 196 799 q 215 652 196 689 q 269 585 235 615 q 346 524 303 556 q 440 453 399 489 q 505 371 481 417 q 529 261 529 325 q 503 139 529 190 q 435 53 478 88 q 336 3 392 19 q 221 -14 281 -14 m 96 -292 q 140 -233 117 -268 q 184 -158 164 -197 q 215 -85 204 -118 l 265 -85 l 265 -99 q 231 -167 253 -129 q 181 -242 208 -206 q 125 -307 153 -279 l 96 -307 l 96 -292 z "},"ș":{"ha":518,"x_min":1,"x_max":503,"o":"m 183 -14 q 76 1 122 -14 q 1 29 29 15 l 1 86 q 83 49 35 65 q 183 33 131 33 q 287 53 247 33 q 345 108 326 72 q 364 192 364 143 q 348 258 364 231 q 303 310 332 286 q 236 360 274 333 q 167 414 199 388 q 116 474 135 440 q 97 556 97 508 q 126 660 97 618 q 205 726 154 703 q 319 749 256 749 q 424 735 379 749 q 503 706 469 722 l 481 660 q 410 689 451 676 q 318 701 368 701 q 198 665 244 701 q 151 560 151 629 q 166 499 151 525 q 208 449 181 472 q 271 401 236 426 q 344 344 311 372 q 398 282 378 317 q 418 194 418 247 q 392 85 418 132 q 314 13 365 39 q 183 -14 263 -14 m 47 -292 q 92 -233 68 -268 q 135 -158 115 -197 q 167 -85 156 -118 l 217 -85 l 217 -99 q 182 -167 204 -129 q 132 -242 160 -206 q 76 -307 104 -279 l 47 -307 l 47 -292 z "},"ˆ":{"ha":439,"x_min":157,"x_max":486,"o":"m 158 853 q 222 917 188 881 q 289 992 257 954 q 343 1061 321 1031 l 389 1061 q 414 994 397 1033 q 450 917 431 956 q 486 853 469 879 l 483 842 l 453 842 q 419 892 436 865 q 386 948 401 919 q 357 1004 371 976 q 279 922 322 965 q 193 842 236 878 l 157 842 l 158 853 z "},"ˇ":{"ha":439,"x_min":201,"x_max":531,"o":"m 299 842 q 274 910 290 871 q 238 988 257 949 q 201 1051 218 1026 l 204 1061 l 235 1061 q 269 1013 251 1040 q 302 956 286 985 q 331 899 318 926 q 409 983 365 939 q 496 1061 453 1026 l 531 1061 l 529 1051 q 467 988 503 1025 q 399 912 432 950 q 346 842 367 874 l 299 842 z "},"ˉ":{"ha":442,"x_min":158,"x_max":497,"o":"m 158 850 l 168 897 l 497 897 l 488 850 l 158 850 z "},"˘":{"ha":431,"x_min":189,"x_max":510,"o":"m 329 843 q 252 858 283 843 q 205 903 221 874 q 189 972 189 933 q 189 988 189 981 q 190 1000 189 996 l 231 1000 q 237 944 229 969 q 267 904 244 919 q 331 889 290 889 q 422 917 390 889 q 467 1000 453 946 l 510 1000 q 448 883 492 922 q 329 843 404 843 z "},"˙":{"ha":193,"x_min":179,"x_max":263,"o":"m 215 899 q 189 909 199 899 q 179 938 179 919 q 191 981 179 960 q 228 1001 203 1001 q 248 997 240 1001 q 259 985 256 993 q 263 964 263 976 q 250 920 263 942 q 215 899 238 899 z "},"˚":{"ha":388,"x_min":189,"x_max":460,"o":"m 325 847 q 228 884 267 847 q 189 982 189 921 q 228 1078 189 1040 q 325 1115 267 1115 q 422 1077 385 1115 q 460 982 460 1039 q 422 885 460 924 q 325 847 383 847 m 325 888 q 393 915 368 888 q 418 982 418 942 q 392 1049 418 1022 q 325 1076 367 1076 q 257 1049 283 1076 q 231 982 231 1022 q 256 915 231 942 q 325 888 282 888 z "},"˛":{"ha":297,"x_min":-62,"x_max":136,"o":"m 38 -301 q -35 -276 -7 -301 q -62 -206 -62 -250 q -42 -126 -62 -161 q 15 -57 -21 -90 q 99 8 51 -24 l 136 0 q 63 -60 97 -29 q 8 -126 29 -92 q -12 -199 -12 -160 q 3 -242 -12 -228 q 47 -257 18 -257 q 78 -254 64 -257 q 104 -249 93 -251 l 101 -290 q 73 -298 89 -294 q 38 -301 57 -301 z "},"˜":{"ha":519,"x_min":158,"x_max":597,"o":"m 158 853 q 187 931 169 900 q 230 978 204 963 q 290 994 256 994 q 344 980 321 994 q 388 947 368 965 q 427 914 408 928 q 467 900 446 900 q 517 919 496 900 q 554 994 539 939 l 597 994 q 569 917 586 949 q 526 869 551 885 q 464 853 500 853 q 413 867 435 853 q 371 899 390 881 q 331 933 351 918 q 288 947 311 947 q 238 926 258 947 q 201 853 217 906 l 158 853 z "},"˝":{"ha":518,"x_min":158,"x_max":607,"o":"m 371 853 q 437 922 403 883 q 501 997 471 960 q 549 1064 531 1035 l 607 1064 l 607 1053 q 567 1003 592 1031 q 515 946 543 975 q 458 890 488 917 q 403 842 429 863 l 371 842 l 371 853 m 158 853 q 225 922 190 883 q 290 997 260 960 q 338 1064 319 1035 l 396 1064 l 396 1053 q 356 1003 379 1031 q 303 946 332 975 q 247 890 275 917 q 190 842 218 863 l 160 842 l 158 853 z "},"΄":{"ha":243,"x_min":157,"x_max":338,"o":"m 157 842 l 160 854 l 275 1076 l 338 1076 l 335 1067 l 193 842 l 157 842 z "},"΅":{"ha":774,"x_min":317,"x_max":653,"o":"m 415 842 l 417 854 l 522 1076 l 583 1076 l 582 1067 l 451 842 l 415 842 m 350 886 q 324 898 332 886 q 319 928 317 910 q 334 967 321 950 q 368 985 347 985 q 393 973 385 985 q 399 942 401 961 q 383 903 396 921 q 350 886 371 886 m 601 886 q 576 898 583 886 q 571 928 568 910 q 585 967 572 950 q 619 985 599 985 q 644 973 636 985 q 651 943 653 961 q 635 903 649 921 q 601 886 622 886 z "},"Ά":{"ha":688,"x_min":-50,"x_max":610,"o":"m -50 0 l 463 994 l 519 994 l 610 0 l 557 0 l 524 368 l 197 368 l 8 0 l -50 0 m 221 418 l 519 418 l 488 800 q 483 865 485 831 q 479 929 481 900 l 476 929 q 447 867 464 900 q 414 799 431 833 l 221 418 m 136 757 l 139 769 l 254 992 l 317 992 l 314 982 l 172 757 l 136 757 z "},"·":{"ha":283,"x_min":168,"x_max":257,"o":"m 206 633 q 178 644 189 633 q 168 672 168 654 q 181 719 168 697 q 222 742 194 742 q 248 731 239 742 q 257 703 257 719 q 244 656 257 679 q 206 633 231 633 z "},"Έ":{"ha":788,"x_min":97,"x_max":832,"o":"m 189 0 l 399 992 l 833 992 l 822 943 l 443 943 l 358 546 l 715 546 l 706 497 l 349 497 l 253 49 l 633 49 l 622 0 l 189 0 m 97 757 l 100 769 l 215 992 l 278 992 l 275 982 l 133 757 l 97 757 z "},"Ή":{"ha":972,"x_min":97,"x_max":978,"o":"m 189 0 l 400 992 l 453 992 l 358 546 l 831 546 l 925 992 l 978 992 l 768 0 l 715 0 l 819 496 l 349 496 l 243 0 l 189 0 m 97 757 l 100 769 l 215 992 l 278 992 l 275 982 l 133 757 l 97 757 z "},"Ί":{"ha":521,"x_min":97,"x_max":593,"o":"m 147 0 l 154 35 l 249 43 l 440 947 l 350 957 l 357 992 l 594 992 l 586 957 l 492 947 l 300 43 l 390 35 l 383 0 l 147 0 m 97 757 l 100 769 l 215 992 l 278 992 l 275 982 l 133 757 l 97 757 z "},"Ό":{"ha":951,"x_min":97,"x_max":908,"o":"m 468 -14 q 302 31 367 -14 q 208 154 238 75 q 178 338 178 233 q 190 489 178 411 q 226 642 201 567 q 288 782 251 717 q 374 898 325 847 q 486 978 424 949 q 624 1007 549 1007 q 832 923 756 1007 q 908 665 908 839 q 899 531 908 604 q 867 381 889 457 q 812 234 846 304 q 728 108 778 164 q 615 19 679 51 q 468 -14 551 -14 m 471 36 q 595 66 540 36 q 692 147 650 96 q 764 263 733 199 q 814 399 794 328 q 843 538 833 469 q 853 665 853 607 q 795 881 853 806 q 619 957 738 957 q 496 928 551 957 q 397 849 440 899 q 324 737 354 800 q 273 604 293 674 q 243 467 253 535 q 233 339 233 399 q 259 176 233 244 q 338 72 285 108 q 471 36 390 36 m 97 757 l 100 769 l 215 992 l 278 992 l 275 982 l 133 757 l 97 757 z "},"Ύ":{"ha":790,"x_min":97,"x_max":915,"o":"m 388 0 l 468 379 l 332 992 l 385 992 l 506 443 l 854 992 l 915 992 l 522 382 l 442 0 l 388 0 m 97 757 l 100 769 l 215 992 l 278 992 l 275 982 l 133 757 l 97 757 z "},"Ώ":{"ha":976,"x_min":97,"x_max":967,"o":"m 142 0 l 151 50 l 381 50 q 283 165 321 97 q 232 326 246 233 q 233 539 218 419 q 305 793 251 689 q 445 952 358 897 q 649 1007 532 1007 q 840 951 767 1007 q 940 790 914 896 q 944 531 967 683 q 885 319 928 410 q 781 161 843 228 q 643 50 719 94 l 871 50 l 860 0 l 561 0 l 571 44 q 725 164 660 96 q 832 322 790 232 q 889 529 874 413 q 888 765 910 669 q 805 908 867 860 q 642 957 743 957 q 468 908 542 957 q 349 765 394 858 q 288 538 304 671 q 287 323 274 417 q 340 160 300 229 q 446 44 379 92 l 438 0 l 142 0 m 97 757 l 100 769 l 215 992 l 278 992 l 275 982 l 133 757 l 97 757 z "},"ΐ":{"ha":368,"x_min":49,"x_max":453,"o":"m 160 -14 q 101 -1 126 -14 q 63 36 76 11 q 49 100 49 61 q 51 129 49 114 q 56 163 53 144 l 178 735 l 231 735 l 110 168 q 104 138 106 151 q 103 111 103 124 q 121 53 103 72 q 174 35 139 35 q 210 38 192 35 q 246 49 229 40 l 236 -1 q 203 -10 221 -7 q 160 -14 185 -14 m 215 842 l 217 854 l 322 1076 l 383 1076 l 382 1067 l 251 842 l 215 842 m 150 886 q 124 898 132 886 q 119 928 117 910 q 134 967 121 950 q 168 985 147 985 q 193 973 185 985 q 199 942 201 961 q 183 903 196 921 q 150 886 171 886 m 401 886 q 376 898 383 886 q 371 928 368 910 q 385 967 372 950 q 419 985 399 985 q 444 973 436 985 q 451 943 453 961 q 435 903 449 921 q 401 886 422 886 z "},"Α":{"ha":658,"x_min":-79,"x_max":581,"o":"m -79 0 l 433 994 l 490 994 l 581 0 l 528 0 l 494 368 l 168 368 l -21 0 l -79 0 m 192 418 l 490 418 l 458 800 q 453 865 456 831 q 450 929 451 900 l 447 929 q 418 867 435 900 q 385 799 401 833 l 192 418 z "},"Β":{"ha":722,"x_min":44,"x_max":710,"o":"m 44 0 l 253 992 l 465 992 q 603 968 549 992 q 683 901 657 944 q 710 794 710 857 q 685 669 710 726 q 610 573 660 611 q 490 521 561 535 l 490 517 q 598 451 560 501 q 636 319 636 400 q 592 147 636 218 q 467 38 547 75 q 278 0 386 0 l 44 0 m 286 49 q 442 81 376 49 q 545 174 508 114 q 582 318 582 235 q 524 455 582 413 q 367 497 467 497 l 203 497 l 107 49 l 286 49 m 382 544 q 529 575 468 544 q 623 660 590 606 q 656 792 656 715 q 606 905 656 867 q 454 943 557 943 l 297 943 l 213 544 l 382 544 z "},"Γ":{"ha":564,"x_min":43,"x_max":663,"o":"m 43 0 l 253 992 l 663 992 l 653 942 l 297 942 l 97 0 l 43 0 z "},"Ε":{"ha":642,"x_min":43,"x_max":688,"o":"m 43 0 l 253 992 l 688 992 l 676 943 l 297 943 l 213 546 l 569 546 l 560 497 l 203 497 l 107 49 l 488 49 l 476 0 l 43 0 z "},"Ζ":{"ha":631,"x_min":-29,"x_max":692,"o":"m -29 0 l -21 42 l 615 942 l 190 942 l 200 992 l 692 992 l 683 950 l 49 50 l 504 50 l 494 0 l -29 0 z "},"Η":{"ha":828,"x_min":43,"x_max":832,"o":"m 43 0 l 254 992 l 307 992 l 213 546 l 685 546 l 779 992 l 832 992 l 622 0 l 569 0 l 674 496 l 203 496 l 97 0 l 43 0 z "},"Θ":{"ha":863,"x_min":89,"x_max":819,"o":"m 264 476 l 275 526 l 646 526 l 635 476 l 264 476 m 379 -14 q 213 31 278 -14 q 119 154 149 75 q 89 338 89 233 q 101 489 89 411 q 138 642 113 567 q 199 782 163 717 q 285 898 236 847 q 397 978 335 949 q 535 1007 460 1007 q 743 923 667 1007 q 819 665 819 839 q 810 531 819 604 q 778 381 800 457 q 723 234 757 304 q 640 108 689 164 q 526 19 590 51 q 379 -14 463 -14 m 382 36 q 506 66 451 36 q 603 147 561 96 q 675 263 644 199 q 725 399 706 328 q 754 538 744 469 q 764 665 764 607 q 706 881 764 806 q 531 957 649 957 q 407 928 463 957 q 308 849 351 899 q 235 737 265 800 q 184 604 204 674 q 154 467 164 535 q 144 339 144 399 q 170 176 144 244 q 249 72 196 108 q 382 36 301 36 z "},"Ι":{"ha":347,"x_min":-26,"x_max":421,"o":"m -26 0 l -19 35 l 75 43 l 267 947 l 176 957 l 183 992 l 421 992 l 413 957 l 318 947 l 126 43 l 217 35 l 210 0 l -26 0 z "},"Κ":{"ha":664,"x_min":43,"x_max":778,"o":"m 43 0 l 253 992 l 307 992 l 193 458 l 278 554 l 710 992 l 778 992 l 361 564 l 579 0 l 519 0 l 319 526 l 181 397 l 97 0 l 43 0 z "},"Λ":{"ha":650,"x_min":-79,"x_max":572,"o":"m -79 0 l 431 993 l 489 993 l 572 0 l 519 0 l 457 776 q 451 855 454 814 q 447 931 449 896 l 444 931 q 411 856 429 896 q 368 767 393 815 l -22 0 l -79 0 z "},"Μ":{"ha":1021,"x_min":43,"x_max":1025,"o":"m 43 0 l 253 992 l 329 992 l 442 83 l 446 83 l 942 992 l 1025 992 l 815 0 l 763 0 l 928 781 q 938 825 933 803 q 949 870 943 847 q 960 917 954 893 l 957 917 l 454 0 l 403 0 l 289 918 l 285 918 q 277 870 281 893 q 269 825 274 847 q 260 778 265 803 l 96 0 l 43 0 z "},"Ν":{"ha":839,"x_min":43,"x_max":844,"o":"m 43 0 l 253 992 l 307 992 l 603 99 l 606 99 q 620 173 613 135 q 635 247 628 211 q 647 314 642 283 l 792 992 l 844 992 l 635 0 l 581 0 l 285 897 l 282 897 q 273 845 278 871 q 263 792 268 819 q 251 738 257 765 q 240 681 246 710 l 96 0 l 43 0 z "},"Ξ":{"ha":696,"x_min":8,"x_max":724,"o":"m 8 0 l 19 50 l 542 50 l 531 0 l 8 0 m 175 496 l 186 546 l 586 546 l 575 496 l 175 496 m 228 942 l 239 992 l 724 992 l 713 942 l 228 942 z "},"Ο":{"ha":863,"x_min":89,"x_max":819,"o":"m 379 -14 q 213 31 278 -14 q 119 154 149 75 q 89 338 89 233 q 101 489 89 411 q 138 642 113 567 q 199 782 163 717 q 285 898 236 847 q 397 978 335 949 q 535 1007 460 1007 q 743 923 667 1007 q 819 665 819 839 q 810 531 819 604 q 778 381 800 457 q 723 234 757 304 q 640 108 689 164 q 526 19 590 51 q 379 -14 463 -14 m 382 36 q 506 66 451 36 q 603 147 561 96 q 675 263 644 199 q 725 399 706 328 q 754 538 744 469 q 764 665 764 607 q 706 881 764 806 q 531 957 649 957 q 407 928 463 957 q 308 849 351 899 q 235 737 265 800 q 184 604 204 674 q 154 467 164 535 q 144 339 144 399 q 170 176 144 244 q 249 72 196 108 q 382 36 301 36 z "},"Π":{"ha":821,"x_min":43,"x_max":825,"o":"m 43 0 l 254 992 l 825 992 l 615 0 l 561 0 l 761 942 l 297 942 l 97 0 l 43 0 z "},"Ρ":{"ha":678,"x_min":43,"x_max":685,"o":"m 43 0 l 253 992 l 428 992 q 571 965 514 992 q 656 886 628 938 q 685 760 685 835 q 662 621 685 683 q 593 513 639 558 q 479 442 547 467 q 319 417 411 417 l 185 417 l 97 0 l 43 0 m 324 465 q 497 502 429 465 q 597 605 565 539 q 629 757 629 671 q 577 897 629 851 q 419 943 525 943 l 297 943 l 196 465 l 324 465 z "},"Σ":{"ha":629,"x_min":-29,"x_max":678,"o":"m -29 0 l -21 43 l 335 519 l 201 951 l 210 992 l 678 992 l 667 942 l 378 942 q 338 942 357 942 q 301 943 319 943 q 258 943 282 943 l 386 522 l 383 511 l 42 49 q 110 49 74 49 q 188 50 146 50 l 503 50 l 493 0 l -29 0 z "},"Τ":{"ha":585,"x_min":124,"x_max":703,"o":"m 181 0 l 381 942 l 124 942 l 135 992 l 703 992 l 693 942 l 435 942 l 235 0 l 181 0 z "},"Υ":{"ha":585,"x_min":126,"x_max":710,"o":"m 182 0 l 263 379 l 126 992 l 179 992 l 300 443 l 649 992 l 710 992 l 317 382 l 236 0 l 182 0 z "},"Φ":{"ha":974,"x_min":79,"x_max":944,"o":"m 376 0 l 403 125 q 244 159 310 129 q 141 241 179 189 q 91 365 103 293 q 93 526 79 438 q 144 681 107 613 q 239 799 181 750 q 379 872 297 847 q 567 896 461 897 l 588 992 l 639 992 l 619 896 q 778 863 713 892 q 883 781 844 833 q 933 656 921 728 q 931 496 944 585 q 880 340 917 408 q 783 222 843 271 q 642 149 724 174 q 454 125 560 124 l 429 0 l 376 0 m 413 172 l 557 850 q 352 813 438 851 q 216 702 267 775 q 149 525 165 629 q 144 380 136 444 q 185 270 153 315 q 274 200 217 225 q 413 172 331 175 m 464 172 q 669 209 583 171 q 806 320 754 247 q 875 496 858 393 q 879 641 888 576 q 838 751 871 706 q 749 822 806 797 q 608 849 692 847 l 464 172 z "},"Χ":{"ha":599,"x_min":-81,"x_max":701,"o":"m -81 0 l 299 521 l 160 992 l 214 992 l 336 563 l 642 992 l 701 992 l 360 514 l 507 0 l 451 0 l 319 471 l -21 0 l -81 0 z "},"Ψ":{"ha":946,"x_min":147,"x_max":960,"o":"m 364 0 l 421 267 q 290 290 347 271 q 197 352 232 310 q 155 464 163 394 q 168 635 147 533 l 244 992 l 299 992 l 222 636 q 213 458 200 528 q 278 353 225 388 q 431 315 332 318 l 575 992 l 629 992 l 485 315 q 642 351 574 318 q 757 453 710 383 q 829 635 804 522 l 906 992 l 960 992 l 882 632 q 824 465 861 535 q 736 353 788 396 q 619 289 685 310 q 475 267 554 268 l 418 0 l 364 0 z "},"Ϊ":{"ha":347,"x_min":-26,"x_max":486,"o":"m -26 0 l -19 35 l 75 43 l 267 947 l 176 957 l 183 992 l 421 992 l 413 957 l 318 947 l 126 43 l 217 35 l 210 0 l -26 0 m 439 1153 q 415 1162 424 1153 q 407 1188 407 1171 q 418 1229 407 1208 q 453 1250 429 1250 q 477 1241 469 1250 q 485 1215 485 1232 q 474 1173 485 1193 q 439 1153 463 1153 m 217 1153 q 194 1162 201 1153 q 186 1188 186 1171 q 197 1229 186 1208 q 232 1250 208 1250 q 249 1246 242 1250 q 260 1234 257 1242 q 263 1215 263 1226 q 251 1173 263 1193 q 217 1153 240 1153 z "},"Ϋ":{"ha":585,"x_min":126,"x_max":710,"o":"m 182 0 l 263 379 l 126 992 l 179 992 l 300 443 l 649 992 l 710 992 l 317 382 l 236 0 l 182 0 m 539 1140 q 515 1149 524 1140 q 507 1175 507 1158 q 518 1217 507 1196 q 553 1238 529 1238 q 577 1228 569 1238 q 585 1203 585 1219 q 574 1160 585 1181 q 539 1140 563 1140 m 317 1140 q 294 1149 301 1140 q 286 1175 286 1158 q 297 1217 286 1196 q 332 1238 308 1238 q 349 1233 342 1238 q 360 1222 357 1229 q 363 1203 363 1214 q 351 1160 363 1181 q 317 1140 340 1140 z "},"ά":{"ha":725,"x_min":57,"x_max":663,"o":"m 236 -14 q 105 49 153 -14 q 57 228 57 111 q 71 365 57 293 q 112 506 85 438 q 181 628 139 574 q 277 716 222 683 q 403 749 332 749 q 491 728 454 749 q 551 674 528 708 q 581 593 574 639 l 585 593 l 628 735 l 663 735 l 546 189 q 535 135 540 161 q 531 89 531 110 q 540 49 531 64 q 578 33 550 33 q 601 35 588 33 q 628 42 614 38 l 618 -3 q 599 -8 610 -6 q 579 -12 589 -11 q 561 -14 569 -14 q 503 9 521 -14 q 485 72 486 32 q 493 164 485 111 l 490 164 q 428 78 467 119 q 342 12 390 38 q 236 -14 293 -14 m 249 33 q 366 75 313 33 q 460 185 419 117 q 526 333 501 254 q 549 441 543 392 q 554 519 554 490 q 513 655 554 610 q 404 700 471 700 q 293 668 342 700 q 210 584 244 636 q 153 469 175 532 q 122 343 132 406 q 111 229 111 281 q 145 83 111 132 q 249 33 179 33 m 406 842 l 408 854 l 524 1076 l 586 1076 l 583 1067 l 442 842 l 406 842 z "},"έ":{"ha":504,"x_min":38,"x_max":546,"o":"m 239 -14 q 122 13 168 -14 q 57 84 76 39 q 40 185 38 129 q 93 321 44 271 q 217 383 142 371 l 218 386 q 149 444 174 403 q 128 549 124 486 q 165 665 131 621 q 253 729 200 710 q 365 749 307 749 q 456 738 414 749 q 529 707 499 728 l 511 661 q 447 690 488 679 q 367 701 406 701 q 272 684 313 701 q 207 633 231 667 q 181 547 183 600 q 211 445 178 485 q 329 406 244 406 l 394 406 l 385 360 l 318 360 q 199 341 249 360 q 124 285 150 322 q 94 189 97 247 q 126 76 89 118 q 246 33 163 33 q 340 42 301 33 q 419 69 379 51 l 419 22 q 345 -4 390 6 q 239 -14 300 -14 m 365 842 l 368 854 l 483 1076 l 546 1076 l 543 1067 l 401 842 l 365 842 z "},"ή":{"ha":679,"x_min":29,"x_max":613,"o":"m 543 474 q 553 532 549 504 q 558 583 558 560 q 526 672 558 643 q 439 700 494 700 q 346 676 389 700 q 267 608 303 651 q 204 507 231 565 q 164 379 178 449 l 83 0 l 29 0 l 185 735 l 229 735 l 201 581 l 204 581 q 243 640 219 610 q 298 694 267 669 q 367 734 329 719 q 449 749 406 749 q 538 731 501 749 q 593 678 574 713 q 613 590 613 643 q 607 531 613 565 q 594 467 601 497 l 425 -333 l 371 -333 l 543 474 m 339 842 l 342 854 l 457 1076 l 519 1076 l 517 1067 l 375 842 l 339 842 z "},"ί":{"ha":328,"x_min":49,"x_max":389,"o":"m 160 -14 q 101 -1 126 -14 q 63 36 76 11 q 49 100 49 61 q 51 129 49 114 q 56 163 53 144 l 178 735 l 231 735 l 110 168 q 104 138 106 151 q 103 111 103 124 q 121 53 103 72 q 174 35 139 35 q 210 38 192 35 q 246 49 229 40 l 236 -1 q 203 -10 221 -7 q 160 -14 185 -14 m 208 842 l 211 854 l 326 1076 l 389 1076 l 386 1067 l 244 842 l 208 842 z "},"ΰ":{"ha":651,"x_min":56,"x_max":624,"o":"m 229 -14 q 118 13 160 -14 q 66 99 76 40 q 74 249 56 157 l 178 735 l 231 735 l 128 251 q 126 85 103 136 q 236 35 150 35 q 421 122 343 35 q 528 374 499 210 q 543 475 538 425 q 551 571 549 525 q 551 658 553 617 q 546 735 549 700 l 597 735 q 604 631 604 689 q 599 507 604 572 q 581 371 594 442 q 509 160 558 246 q 390 30 460 74 q 229 -14 319 -14 m 385 842 l 386 854 l 492 1076 l 553 1076 l 551 1067 l 421 842 l 385 842 m 319 886 q 294 898 301 886 q 289 928 286 910 q 303 967 290 950 q 338 985 317 985 q 363 973 354 985 q 368 942 371 961 q 353 903 365 921 q 319 886 340 886 m 571 886 q 545 898 553 886 q 540 928 538 910 q 555 967 542 950 q 589 985 568 985 q 614 973 606 985 q 621 943 622 961 q 605 903 618 921 q 571 886 592 886 z "},"α":{"ha":725,"x_min":57,"x_max":663,"o":"m 236 -14 q 105 49 153 -14 q 57 228 57 111 q 71 365 57 293 q 112 506 85 438 q 181 628 139 574 q 277 716 222 683 q 403 749 332 749 q 491 728 454 749 q 551 674 528 708 q 581 593 574 639 l 585 593 l 628 735 l 663 735 l 546 189 q 535 135 540 161 q 531 89 531 110 q 540 49 531 64 q 578 33 550 33 q 601 35 588 33 q 628 42 614 38 l 618 -3 q 599 -8 610 -6 q 579 -12 589 -11 q 561 -14 569 -14 q 503 9 521 -14 q 485 72 486 32 q 493 164 485 111 l 490 164 q 428 78 467 119 q 342 12 390 38 q 236 -14 293 -14 m 249 33 q 366 75 313 33 q 460 185 419 117 q 526 333 501 254 q 549 441 543 392 q 554 519 554 490 q 513 655 554 610 q 404 700 471 700 q 293 668 342 700 q 210 584 244 636 q 153 469 175 532 q 122 343 132 406 q 111 229 111 281 q 145 83 111 132 q 249 33 179 33 z "},"β":{"ha":693,"x_min":-35,"x_max":686,"o":"m -35 -322 l 194 771 q 249 925 214 860 q 340 1026 283 990 q 479 1063 396 1063 q 594 1037 546 1063 q 664 960 642 1011 q 678 833 686 908 q 646 708 672 767 q 574 610 619 650 q 461 557 528 569 q 588 477 544 540 q 619 310 631 414 q 586 180 611 239 q 519 77 561 121 q 421 10 478 33 q 293 -14 364 -14 q 185 8 232 -14 q 97 60 138 29 l 17 -322 l -35 -322 m 293 33 q 408 56 360 33 q 489 117 456 79 q 541 205 522 156 q 565 307 560 254 q 557 426 574 375 q 495 505 540 476 q 374 533 450 533 l 307 533 l 317 581 l 383 581 q 483 601 440 581 q 555 656 525 621 q 601 735 585 690 q 624 831 618 781 q 594 967 635 919 q 474 1015 553 1015 q 363 986 408 1015 q 290 901 318 957 q 246 767 263 846 l 108 108 q 191 54 146 75 q 293 33 236 33 z "},"γ":{"ha":558,"x_min":71,"x_max":560,"o":"m 71 -283 l 133 10 l 72 735 l 125 735 l 169 178 q 172 140 171 161 q 173 99 172 119 q 174 64 174 79 l 178 64 q 332 247 264 146 q 446 469 400 347 q 506 735 492 592 l 560 735 q 495 453 544 582 q 367 213 446 324 q 185 6 289 103 l 122 -283 l 71 -283 z "},"δ":{"ha":672,"x_min":50,"x_max":688,"o":"m 289 -14 q 156 22 211 -14 q 76 124 101 58 q 58 279 50 190 q 103 444 65 367 q 210 577 142 521 q 376 660 279 633 q 290 758 319 710 q 267 876 260 806 q 300 972 271 931 q 380 1035 329 1013 q 497 1058 431 1058 q 615 1038 567 1058 q 688 994 663 1017 l 661 953 q 590 995 632 979 q 493 1011 547 1011 q 370 975 417 1011 q 318 876 324 939 q 328 797 314 831 q 369 735 342 764 q 432 674 396 707 q 540 567 501 621 q 593 453 579 513 q 600 321 607 393 q 572 197 594 257 q 513 90 550 138 q 419 15 475 43 q 289 -14 364 -14 m 292 33 q 397 58 351 33 q 473 124 442 83 q 522 217 504 165 q 546 321 540 268 q 540 448 554 393 q 492 547 525 503 q 414 629 460 592 q 261 558 326 607 q 158 438 196 508 q 113 282 119 367 q 124 151 106 207 q 185 64 142 94 q 292 33 228 33 z "},"ε":{"ha":504,"x_min":38,"x_max":529,"o":"m 239 -14 q 122 13 168 -14 q 57 84 76 39 q 40 185 38 129 q 93 321 44 271 q 217 383 142 371 l 218 386 q 149 444 174 403 q 128 549 124 486 q 165 665 131 621 q 253 729 200 710 q 365 749 307 749 q 456 738 414 749 q 529 707 499 728 l 511 661 q 447 690 488 679 q 367 701 406 701 q 272 684 313 701 q 207 633 231 667 q 181 547 183 600 q 211 445 178 485 q 329 406 244 406 l 394 406 l 385 360 l 318 360 q 199 341 249 360 q 124 285 150 322 q 94 189 97 247 q 126 76 89 118 q 246 33 163 33 q 340 42 301 33 q 419 69 379 51 l 419 22 q 345 -4 390 6 q 239 -14 300 -14 z "},"ζ":{"ha":469,"x_min":31,"x_max":604,"o":"m 282 -281 q 333 -201 311 -240 q 357 -115 354 -161 q 351 -62 360 -85 q 316 -21 342 -39 q 240 11 290 -3 q 124 65 172 32 q 53 149 76 99 q 35 269 31 199 q 53 367 39 321 q 97 461 68 413 q 166 565 125 510 q 263 690 207 621 l 538 1013 q 495 1011 518 1013 q 449 1010 472 1010 q 400 1010 425 1010 l 188 1010 l 197 1056 l 604 1056 l 597 1017 l 292 661 q 175 502 218 569 q 113 381 132 435 q 89 272 93 326 q 100 184 86 225 q 152 111 114 143 q 261 57 190 79 q 353 16 321 39 q 399 -37 386 -7 q 410 -110 413 -68 q 397 -169 407 -140 q 372 -226 388 -199 q 333 -281 356 -254 l 282 -281 z "},"η":{"ha":679,"x_min":29,"x_max":613,"o":"m 543 474 q 553 532 549 504 q 558 583 558 560 q 526 672 558 643 q 439 700 494 700 q 346 676 389 700 q 267 608 303 651 q 204 507 231 565 q 164 379 178 449 l 83 0 l 29 0 l 185 735 l 229 735 l 201 581 l 204 581 q 243 640 219 610 q 298 694 267 669 q 367 734 329 719 q 449 749 406 749 q 538 731 501 749 q 593 678 574 713 q 613 590 613 643 q 607 531 613 565 q 594 467 601 497 l 425 -333 l 371 -333 l 543 474 z "},"θ":{"ha":674,"x_min":65,"x_max":665,"o":"m 65 272 q 69 355 65 310 q 79 450 72 400 q 97 554 86 500 q 155 769 121 674 q 235 930 189 864 q 338 1031 281 996 q 465 1065 396 1065 q 576 1036 532 1065 q 643 947 621 1007 q 665 790 665 886 q 662 706 665 751 q 651 611 658 661 q 633 508 643 561 q 574 288 608 385 q 493 123 539 190 q 390 20 447 56 q 265 -15 333 -15 q 156 15 201 -15 q 88 108 111 44 q 65 272 65 171 m 118 276 q 157 90 118 147 q 269 33 196 33 q 375 67 328 33 q 461 164 422 100 q 531 318 500 228 q 583 522 561 408 l 144 522 q 125 388 132 451 q 118 276 118 325 m 154 569 l 590 569 q 607 690 601 633 q 613 792 613 747 q 575 964 613 910 q 461 1018 538 1018 q 358 988 406 1018 q 273 899 311 957 q 205 759 235 842 q 154 569 175 676 z "},"ι":{"ha":328,"x_min":49,"x_max":246,"o":"m 160 -14 q 101 -1 126 -14 q 63 36 76 11 q 49 100 49 61 q 51 129 49 114 q 56 163 53 144 l 178 735 l 231 735 l 110 168 q 104 138 106 151 q 103 111 103 124 q 121 53 103 72 q 174 35 139 35 q 210 38 192 35 q 246 49 229 40 l 236 -1 q 203 -10 221 -7 q 160 -14 185 -14 z "},"κ":{"ha":554,"x_min":29,"x_max":604,"o":"m 29 0 l 186 735 l 239 735 l 194 528 q 169 419 182 472 q 144 317 157 365 l 146 317 l 543 735 l 604 735 l 314 428 l 472 0 l 415 0 l 272 389 l 135 251 l 82 0 l 29 0 z "},"λ":{"ha":613,"x_min":-67,"x_max":533,"o":"m 478 -12 q 431 -1 449 -12 q 405 35 414 10 q 393 99 396 60 l 357 533 q 354 577 356 558 q 351 611 353 596 q 348 640 349 626 q 346 667 347 653 l 342 667 q 316 613 331 640 q 286 558 301 585 l -11 0 l -67 0 l 333 742 l 325 896 q 298 988 321 961 q 225 1014 275 1014 q 188 1010 206 1014 q 156 1000 169 1006 l 165 1050 q 185 1056 174 1054 q 210 1060 196 1058 q 239 1063 224 1063 q 312 1047 283 1063 q 357 998 340 1032 q 378 910 374 964 l 444 114 q 453 67 447 83 q 471 43 460 50 q 497 36 482 36 q 517 38 508 36 q 533 42 526 40 l 522 -4 q 510 -9 517 -7 q 497 -12 504 -11 q 478 -12 489 -12 z "}}}
